<svg xmlns="http://www.w3.org/2000/svg" fill-rule="evenodd" stroke-linejoin="round" stroke-miterlimit="2" clip-rule="evenodd" viewBox="0 0 64 64"><g><rect width="64" height="64" fill="none"/><path fill="#dd636e" d="M752,292.943C748.611,296.293 743.877,299.17 740.443,299.95C736.399,300.869 730.914,298.939 728.53,296.357C726.127,293.753 724.769,288.201 726.111,284.343C728.806,276.594 740.254,254.522 744.297,247.952C745.809,245.494 749.419,244 752,244C754.581,244 758.191,245.494 759.703,247.952C763.746,254.522 775.194,276.594 777.889,284.343C779.231,288.201 777.873,293.753 775.47,296.357C773.086,298.939 767.601,300.869 763.557,299.95C760.123,299.17 755.389,296.293 752,292.943ZM754.615,289.91C757.454,292.813 761.5,295.381 764.443,296.05C767.186,296.673 770.914,295.394 772.53,293.643C774.127,291.914 775.003,288.22 774.111,285.657C771.473,278.073 760.254,256.478 756.297,250.048C755.465,248.697 753.419,248 752,248C750.581,248 748.535,248.697 747.703,250.048C743.746,256.478 732.527,278.073 729.889,285.657C728.997,288.22 729.873,291.914 731.47,293.643C733.086,295.394 736.814,296.673 739.557,296.05C742.5,295.381 746.546,292.813 749.385,289.91C747.534,287.446 745.493,284.147 744.045,281.056C742.787,278.371 742,275.814 742,274C742,267.75 747,264 752,264C757,264 762,267.75 762,274C762,275.814 761.213,278.371 759.955,281.056C758.507,284.147 756.466,287.446 754.615,289.91ZM752,286.715C753.536,284.564 755.15,281.885 756.333,279.36C757.294,277.308 758,275.386 758,274C758,270.25 755,268 752,268C749,268 746,270.25 746,274C746,275.386 746.706,277.308 747.667,279.36C748.85,281.885 750.464,284.564 752,286.715Z" transform="translate(-720 -240)"/><path fill="#da4a54" d="M746.353,245.862C746.334,245.891 746.315,245.922 746.297,245.952C742.254,252.522 730.806,274.594 728.111,282.343C726.769,286.201 728.127,291.753 730.53,294.357C732.914,296.939 738.399,298.869 742.443,297.95C745.877,297.17 750.611,294.293 754,290.943C757.389,294.293 762.123,297.17 765.557,297.95C768.971,298.726 773.411,297.472 776.146,295.508C775.932,295.817 775.706,296.101 775.47,296.357C773.086,298.939 767.601,300.869 763.557,299.95C760.123,299.17 755.389,296.293 752,292.943C748.611,296.293 743.877,299.17 740.443,299.95C736.399,300.869 730.914,298.939 728.53,296.357C726.127,293.753 724.769,288.201 726.111,284.343C728.806,276.594 740.254,254.522 744.297,247.952C744.793,247.145 745.515,246.442 746.353,245.862ZM749.335,248.655C749.464,248.441 749.587,248.238 749.703,248.048C750.535,246.697 752.581,246 754,246C755.419,246 757.465,246.697 758.297,248.048C762.254,254.478 773.473,276.073 776.111,283.657C777.003,286.22 776.127,289.914 774.53,291.643C774.183,292.02 773.739,292.374 773.227,292.692C774.359,290.778 774.862,287.816 774.111,285.657C771.473,278.073 760.254,256.478 756.297,250.048C755.465,248.697 753.419,248 752,248C751.201,248 750.203,248.221 749.335,248.655ZM745.899,266.017C744.725,267.603 744,269.62 744,272C744,273.814 744.787,276.371 746.045,279.056C747.493,282.147 749.534,285.446 751.385,287.91C750.745,288.564 750.043,289.202 749.306,289.805C747.477,287.353 745.472,284.104 744.045,281.056C742.787,278.371 742,275.814 742,274C742,270.463 743.602,267.726 745.899,266.017ZM748.823,268.885C749.92,267.04 751.96,266 754,266C757,266 760,268.25 760,272C760,273.386 759.294,275.308 758.333,277.36C757.15,279.885 755.536,282.564 754,284.715C753.886,284.556 753.773,284.394 753.658,284.23C754.638,282.663 755.574,280.98 756.333,279.36C757.294,277.308 758,275.386 758,274C758,270.25 755,268 752,268C750.891,268 749.781,268.308 748.823,268.885Z" transform="translate(-720 -240)"/><path d="M752,293.64C748.572,296.91 743.941,299.668 740.554,300.438C736.347,301.394 730.643,299.382 728.163,296.696C725.659,293.983 724.24,288.199 725.639,284.179C728.341,276.409 739.817,254.277 743.871,247.69C745.469,245.094 749.273,243.5 752,243.5C754.727,243.5 758.531,245.094 760.129,247.69C764.183,254.277 775.659,276.409 778.361,284.179C779.76,288.199 778.341,293.983 775.837,296.696C773.357,299.382 767.653,301.394 763.446,300.438C760.059,299.668 755.428,296.91 752,293.64ZM752.351,292.588C752.157,292.395 751.843,292.395 751.649,292.588C748.328,295.869 743.697,298.698 740.332,299.463C736.451,300.345 731.186,298.496 728.898,296.017C726.595,293.523 725.298,288.204 726.583,284.507C729.271,276.779 740.69,254.766 744.723,248.214C746.15,245.894 749.564,244.5 752,244.5C754.436,244.5 757.85,245.894 759.277,248.214C763.31,254.766 774.729,276.779 777.417,284.507C778.702,288.204 777.405,293.523 775.102,296.017C772.814,298.496 767.549,300.345 763.668,299.463C760.303,298.698 755.672,295.869 752.351,292.588ZM754.215,289.609C754.067,289.807 754.085,290.083 754.258,290.259C757.165,293.233 761.317,295.852 764.332,296.537C767.238,297.198 771.186,295.838 772.898,293.983C774.595,292.144 775.531,288.218 774.583,285.493C771.938,277.888 760.69,256.234 756.723,249.786C755.806,248.297 753.564,247.5 752,247.5C750.436,247.5 748.194,248.297 747.277,249.786C743.31,256.234 732.062,277.888 729.417,285.493C728.469,288.218 729.405,292.144 731.102,293.983C732.814,295.838 736.762,297.198 739.668,296.537C742.683,295.852 746.835,293.233 749.742,290.259C749.915,290.083 749.933,289.807 749.785,289.609C747.953,287.17 745.931,283.905 744.498,280.844C743.277,278.239 742.5,275.761 742.5,274C742.5,268.063 747.25,264.5 752,264.5C756.75,264.5 761.5,268.063 761.5,274C761.5,275.761 760.723,278.239 759.502,280.844C758.069,283.905 756.047,287.17 754.215,289.609ZM755.274,289.862C758.022,292.57 761.785,294.933 764.554,295.562C767.134,296.148 770.643,294.951 772.163,293.304C773.659,291.684 774.474,288.223 773.639,285.821C771.008,278.258 759.817,256.723 755.871,250.31C755.124,249.097 753.274,248.5 752,248.5C750.726,248.5 748.876,249.097 748.129,250.31C744.183,256.723 732.992,278.258 730.361,285.821C729.526,288.223 730.341,291.684 731.837,293.304C733.357,294.951 736.866,296.148 739.446,295.562C742.215,294.933 745.978,292.57 748.726,289.862C746.928,287.416 744.987,284.247 743.592,281.269C742.297,278.504 741.5,275.868 741.5,274C741.5,267.438 746.75,263.5 752,263.5C757.25,263.5 762.5,267.438 762.5,274C762.5,275.868 761.703,278.504 760.408,281.269C759.013,284.247 757.072,287.416 755.274,289.862ZM751.593,287.006C751.687,287.137 751.839,287.215 752,287.215C752.161,287.215 752.313,287.137 752.407,287.006C753.959,284.832 755.59,282.124 756.786,279.572C757.784,277.441 758.5,275.439 758.5,274C758.5,269.938 755.25,267.5 752,267.5C748.75,267.5 745.5,269.938 745.5,274C745.5,275.439 746.216,277.441 747.214,279.572C748.41,282.124 750.041,284.832 751.593,287.006ZM752,285.845C753.394,283.826 754.814,281.424 755.88,279.147C756.804,277.175 757.5,275.333 757.5,274C757.5,270.563 754.75,268.5 752,268.5C749.25,268.5 746.5,270.563 746.5,274C746.5,275.333 747.196,277.175 748.12,279.147C749.186,281.424 750.606,283.826 752,285.845Z" transform="translate(-720 -240)"/></g></svg>