<svg xmlns="http://www.w3.org/2000/svg" fill-rule="evenodd" stroke-linejoin="round" stroke-miterlimit="2" clip-rule="evenodd" viewBox="0 0 64 64"><g><rect width="64" height="64" fill="none"/><path fill="#57b7eb" d="M136.848,278L121.249,278C121.987,280.89 124.284,283 127,283C129.037,283 130.838,281.813 131.923,280L136.373,280C134.862,284.659 130.786,288 126,288C119.929,288 115,282.623 115,276C115,269.377 119.929,264 126,264C132.071,264 137,269.377 137,276C137,276.682 136.948,277.35 136.848,278ZM102.996,256C107.416,256 111,259.583 111,264.004C111,264.005 111,264.005 111,264.006C111,265.861 110.263,267.64 108.951,268.952C107.64,270.263 105.861,271 104.006,271L105.018,271C106.87,271 108.646,271.736 109.955,273.045C111.264,274.354 112,276.13 112,277.982C112,277.983 112,277.983 112,277.984C112,280.64 110.945,283.188 109.066,285.066C107.188,286.945 104.64,288 101.984,288L86,288L86,256L102.996,256ZM94,274L94,282L102.002,282C104.21,282 106,280.21 106,278.002C106,278.001 106,277.999 106,277.998C106,275.79 104.21,274 102.002,274L94,274ZM132.422,273C131.458,270.636 129.392,269 127,269C124.608,269 122.542,270.636 121.578,273L132.422,273ZM94,262L94,268L102,268C102.796,268 103.559,267.684 104.121,267.121C104.684,266.559 105,265.796 105,265C105,264.204 104.684,263.441 104.121,262.879C103.559,262.316 102.796,262 102,262L94,262ZM132,258L119,258L119,262L132,262L132,258Z" transform="translate(-90.431 -266.667) scale(1.09804)"/><path fill="#4891d3" d="M120.581,265.931C118.613,268.275 117.412,271.398 117.412,274.824C117.412,282.096 122.824,288 129.49,288C132.251,288 134.797,286.987 136.832,285.284C134.623,287.917 131.448,289.569 127.922,289.569C121.255,289.569 115.843,283.664 115.843,276.392C115.843,272.131 117.701,268.34 120.581,265.931ZM85.569,254.431L85.569,288L103.12,288C105.664,288 108.118,287.118 110.072,285.523C109.839,285.809 109.591,286.084 109.328,286.347C107.265,288.41 104.468,289.569 101.551,289.569L84,289.569L84,254.431L85.569,254.431ZM134.746,280.784C134.521,280.998 134.283,281.195 134.035,281.374C134.173,281.185 134.304,280.988 134.425,280.784L134.746,280.784ZM94.353,274.196L94.353,272.627L103.139,272.627C105.564,272.627 107.529,274.593 107.529,277.017C107.529,277.019 107.529,277.02 107.529,277.022C107.529,278.637 106.658,280.048 105.359,280.81C105.742,280.159 105.961,279.4 105.961,278.59C105.961,278.589 105.961,278.587 105.961,278.586C105.961,276.162 103.995,274.196 101.571,274.196L94.353,274.196ZM139.986,277.02C139.964,277.551 139.912,278.075 139.833,278.588L124.844,278.588C124.607,278.096 124.414,277.571 124.273,277.02L139.986,277.02ZM125.572,269.842C126.781,268.187 128.58,267.137 130.588,267.137C133.214,267.137 135.483,268.934 136.542,271.529L134.12,271.529C132.912,269.806 131.075,268.706 129.02,268.706C127.756,268.706 126.575,269.122 125.572,269.842ZM94.353,261.02L94.353,259.451L103.137,259.451C104.011,259.451 104.849,259.798 105.467,260.416C106.084,261.034 106.431,261.871 106.431,262.745C106.431,263.619 106.084,264.457 105.467,265.074C105.197,265.344 104.885,265.563 104.546,265.723C104.753,265.286 104.863,264.806 104.863,264.314C104.863,263.44 104.516,262.602 103.898,261.984C103.28,261.367 102.442,261.02 101.569,261.02L94.353,261.02ZM121.804,259.451L134.51,259.451L134.51,261.02L120.235,261.02L120.235,256.627L121.804,256.627L121.804,259.451Z" transform="translate(-80 -240)"/><path d="M121.86,278.455C122.681,280.841 124.664,282.545 127,282.545C128.878,282.545 130.532,281.438 131.532,279.766C131.615,279.629 131.763,279.545 131.923,279.545L136.373,279.545C136.519,279.545 136.656,279.614 136.741,279.732C136.827,279.85 136.851,280.002 136.806,280.141C135.233,284.989 130.981,288.455 126,288.455C119.689,288.455 114.545,282.885 114.545,276C114.545,269.115 119.689,263.545 126,263.545C132.311,263.545 137.455,269.115 137.455,276C137.455,276.705 137.401,277.397 137.298,278.069C137.263,278.291 137.072,278.455 136.848,278.455L121.86,278.455ZM107.019,270.819C108.24,271.16 109.365,271.811 110.277,272.723C111.672,274.118 112.455,276.009 112.455,277.982C112.455,277.983 112.455,277.983 112.455,277.984C112.455,280.761 111.352,283.425 109.388,285.388C107.425,287.352 104.761,288.455 101.984,288.455L86,288.455C85.749,288.455 85.545,288.251 85.545,288L85.545,256C85.545,255.749 85.749,255.545 86,255.545L102.996,255.545C107.668,255.545 111.455,259.332 111.455,264.004C111.455,264.005 111.455,264.005 111.455,264.006C111.455,265.982 110.671,267.876 109.273,269.273C108.617,269.93 107.851,270.451 107.019,270.819ZM136.451,277.545C136.513,277.039 136.545,276.524 136.545,276C136.545,269.639 131.831,264.455 126,264.455C120.169,264.455 115.455,269.639 115.455,276C115.455,282.361 120.169,287.545 126,287.545C130.384,287.545 134.138,284.611 135.729,280.455L132.176,280.455C130.995,282.283 129.112,283.455 127,283.455C124.085,283.455 121.6,281.215 120.808,278.113C120.773,277.976 120.803,277.832 120.889,277.721C120.976,277.61 121.108,277.545 121.249,277.545L136.451,277.545ZM104.006,270.545C105.74,270.545 107.403,269.856 108.63,268.63C109.856,267.403 110.545,265.74 110.545,264.006C110.545,264.005 110.545,264.005 110.545,264.004C110.545,259.835 107.165,256.455 102.996,256.455L86.455,256.455L86.455,287.545L101.984,287.545C104.52,287.545 106.951,286.537 108.744,284.744C110.537,282.951 111.545,280.52 111.545,277.984C111.545,277.983 111.545,277.983 111.545,277.982C111.545,276.251 110.857,274.591 109.633,273.367C108.409,272.143 106.749,271.455 105.018,271.455L104.006,271.455C103.754,271.455 103.551,271.251 103.551,271C103.551,270.749 103.754,270.545 104.006,270.545ZM94,273.545C93.749,273.545 93.545,273.749 93.545,274L93.545,282C93.545,282.251 93.749,282.455 94,282.455L102.002,282.455C104.462,282.455 106.455,280.462 106.455,278.002C106.455,278.001 106.455,277.999 106.455,277.998C106.455,275.538 104.462,273.545 102.002,273.545C102.002,273.545 94,273.545 94,273.545ZM94.455,274.455L94.455,281.545L102.002,281.545C103.959,281.545 105.545,279.959 105.545,278.002C105.545,278.001 105.545,277.999 105.545,277.998C105.545,276.041 103.959,274.455 102.002,274.455L94.455,274.455ZM132.422,273.455C132.573,273.455 132.715,273.38 132.8,273.254C132.884,273.128 132.901,272.969 132.843,272.828C131.807,270.286 129.572,268.545 127,268.545C124.428,268.545 122.193,270.286 121.157,272.828C121.099,272.969 121.116,273.128 121.2,273.254C121.285,273.38 121.427,273.455 121.578,273.455L132.422,273.455ZM131.707,272.545C130.731,270.699 128.993,269.455 127,269.455C125.007,269.455 123.269,270.699 122.293,272.545L131.707,272.545ZM94,261.545C93.749,261.545 93.545,261.749 93.545,262L93.545,268C93.545,268.251 93.749,268.455 94,268.455L102,268.455C102.916,268.455 103.795,268.091 104.443,267.443C105.091,266.795 105.455,265.916 105.455,265C105.455,264.084 105.091,263.205 104.443,262.557C103.795,261.909 102.916,261.545 102,261.545C102,261.545 94,261.545 94,261.545ZM94.455,262.455L94.455,267.545L102,267.545C102.675,267.545 103.322,267.277 103.799,266.799C104.277,266.322 104.545,265.675 104.545,265C104.545,264.325 104.277,263.678 103.799,263.201C103.322,262.723 102.675,262.455 102,262.455L94.455,262.455ZM132.455,258C132.455,257.749 132.251,257.545 132,257.545L119,257.545C118.749,257.545 118.545,257.749 118.545,258L118.545,262C118.545,262.251 118.749,262.455 119,262.455L132,262.455C132.251,262.455 132.455,262.251 132.455,262L132.455,258ZM119.455,258.455L119.455,261.545L131.545,261.545L131.545,258.455L119.455,258.455Z" transform="translate(-90.431 -266.667) scale(1.09804)"/></g></svg>