<svg xmlns="http://www.w3.org/2000/svg" fill-rule="evenodd" stroke-linejoin="round" stroke-miterlimit="2" clip-rule="evenodd" viewBox="0 0 64 64"><g><rect width="64" height="64" fill="none"/><path fill="#95d6a4" d="M271.703,335C271.886,335 272.055,334.9 272.142,334.739C272.958,333.243 277.042,325.757 277.858,324.261C277.945,324.1 278.114,324 278.297,324C279.705,324 285.717,324 287.5,324C287.633,324 287.76,324.053 287.854,324.146C287.947,324.24 288,324.367 288,324.5C288,326.616 288,334.778 288,335.877C288,335.958 287.98,336.037 287.943,336.109C287.238,337.458 280.183,350.955 278.451,354.268C278.37,354.423 278.375,354.609 278.466,354.759C278.557,354.909 278.719,355 278.894,355C281.044,355 286.773,355 288.5,355C288.776,355 289,355.224 289,355.5C289,357.678 289,366.322 289,368.5C289,368.776 288.776,369 288.5,369C285.818,369 273.176,369 271.053,369C270.867,369 270.696,369.103 270.61,369.268C269.819,370.78 265.931,378.22 265.14,379.732C265.054,379.897 264.883,380 264.697,380C263.18,380 256.405,380 254.5,380C254.224,380 254,379.776 254,379.5C254,377.387 254,369.245 254,368.128C254,368.044 254.021,367.962 254.061,367.888C254.806,366.522 262.147,353.064 263.96,349.739C264.045,349.585 264.041,349.397 263.951,349.245C263.861,349.093 263.698,349 263.521,349C261.616,349 257.023,349 255.5,349C255.224,349 255,348.776 255,348.5C255,346.322 255,337.678 255,335.5C255,335.224 255.224,335 255.5,335C258.064,335 269.692,335 271.703,335Z" transform="translate(-239.5 -320)"/><path fill="#78c2a4" d="M259,335L259,346.5C259,346.776 259.224,347 259.5,347C261.023,347 265.616,347 267.521,347C267.698,347 267.861,347.093 267.951,347.245C268.041,347.397 268.045,347.585 267.96,347.739C266.147,351.064 258.806,364.522 258.061,365.888C258.021,365.962 258,366.044 258,366.128C258,367.245 258,375.387 258,377.5C258,377.776 258.224,378 258.5,378L266.545,378L265.64,379.732C265.554,379.897 265.383,380 265.197,380C263.68,380 256.905,380 255,380C254.724,380 254.5,379.776 254.5,379.5C254.5,377.387 254.5,369.245 254.5,368.128C254.5,368.044 254.521,367.962 254.561,367.888C255.306,366.522 262.647,353.064 264.46,349.739C264.545,349.585 264.541,349.397 264.451,349.245C264.361,349.093 264.198,349 264.021,349C262.116,349 257.523,349 256,349C255.724,349 255.5,348.776 255.5,348.5C255.5,346.322 255.5,337.678 255.5,335.5C255.5,335.224 255.724,335 256,335L259,335ZM289.5,367L289.5,368.5C289.5,368.776 289.276,369 289,369L273.705,369L274.61,367.268C274.696,367.103 274.867,367 275.053,367L289.5,367ZM280.909,324L276.142,332.739C276.055,332.9 275.886,333 275.703,333L273.591,333L278.358,324.261C278.445,324.1 278.614,324 278.797,324L280.909,324Z" transform="translate(-240 -320)"/><path d="M271.703,334.5L271.703,334.5C272.519,333.004 276.603,325.518 277.419,324.021C277.594,323.7 277.931,323.5 278.297,323.5C279.705,323.5 285.717,323.5 287.5,323.5C287.765,323.5 288.02,323.605 288.207,323.793C288.395,323.98 288.5,324.235 288.5,324.5C288.5,326.616 288.5,334.778 288.5,335.877C288.5,336.039 288.461,336.197 288.386,336.34C287.681,337.69 280.626,351.187 278.894,354.5L288.5,354.5C289.052,354.5 289.5,354.948 289.5,355.5C289.5,357.678 289.5,366.322 289.5,368.5C289.5,369.052 289.052,369.5 288.5,369.5L271.053,369.5L265.583,379.963C265.411,380.293 265.069,380.5 264.697,380.5C263.18,380.5 256.405,380.5 254.5,380.5C253.948,380.5 253.5,380.052 253.5,379.5C253.5,377.387 253.5,369.245 253.5,368.128C253.5,367.96 253.542,367.796 253.622,367.649C254.367,366.283 261.708,352.824 263.521,349.5L255.5,349.5C254.948,349.5 254.5,349.052 254.5,348.5C254.5,346.322 254.5,337.678 254.5,335.5C254.5,334.948 254.948,334.5 255.5,334.5L271.703,334.5ZM287.5,324.5L278.297,324.5L272.581,334.979C272.406,335.3 272.069,335.5 271.703,335.5L255.5,335.5L255.5,348.5L263.521,348.5C263.874,348.5 264.201,348.686 264.381,348.99C264.561,349.293 264.568,349.669 264.399,349.979C262.586,353.303 255.245,366.762 254.5,368.127L254.5,379.5L264.697,379.5L270.167,369.037C270.339,368.707 270.681,368.5 271.053,368.5C273.176,368.5 285.818,368.5 288.5,368.5L288.5,355.5L278.894,355.5C278.544,355.5 278.22,355.317 278.038,355.018C277.857,354.719 277.845,354.347 278.008,354.037C279.74,350.723 286.795,337.226 287.5,335.877L287.5,324.5ZM271.703,334.5C271.703,334.5 271.703,334.5 271.703,334.5Z" transform="translate(-239.5 -320)"/></g></svg>