<svg xmlns="http://www.w3.org/2000/svg" fill-rule="evenodd" stroke-linejoin="round" stroke-miterlimit="2" clip-rule="evenodd" viewBox="0 0 64 64"><g><rect width="64" height="64" fill="none"/><path fill="#738b95" d="M620,343.368C620,343.005 619.874,342.657 619.649,342.401C619.423,342.144 619.118,342 618.8,342C617.754,342 616.246,342 615.2,342C614.882,342 614.577,342.144 614.351,342.401C614.126,342.657 614,343.005 614,343.368C614,347.862 614,362.138 614,366.632C614,366.995 614.126,367.343 614.351,367.599C614.577,367.856 614.882,368 615.2,368C616.246,368 617.754,368 618.8,368C619.118,368 619.423,367.856 619.649,367.599C619.874,367.343 620,366.995 620,366.632C620,362.138 620,347.862 620,343.368Z" transform="matrix(.83333 0 0 .73077 -490.667 -227.923)"/><path fill="#738b95" d="M620,346.333C620,345.184 619.874,344.082 619.649,343.269C619.423,342.457 619.118,342 618.8,342C617.754,342 616.246,342 615.2,342C614.882,342 614.577,342.457 614.351,343.269C614.126,344.082 614,345.184 614,346.333C614,351.142 614,358.858 614,363.667C614,364.816 614.126,365.918 614.351,366.731C614.577,367.543 614.882,368 615.2,368C616.246,368 617.754,368 618.8,368C619.118,368 619.423,367.543 619.649,366.731C619.874,365.918 620,364.816 620,363.667C620,358.858 620,351.142 620,346.333Z" transform="matrix(.83333 0 0 .23077 -490.667 -64.923)"/><path fill="#738b95" d="M572 342C572.265 342 572.52 341.895 572.707 341.707 572.895 341.52 573 341.265 573 341 573 339.463 573 336.537 573 335 573 334.735 573.105 334.48 573.293 334.293 573.48 334.105 573.735 334 574 334L577 334C577.552 334 578 334.448 578 335 578 339.246 578 355.754 578 360 578 360.552 577.552 361 577 361 574.423 361 567.577 361 565 361 564.448 361 564 360.552 564 360 564 356.716 564 346.284 564 343 564 342.735 564.105 342.48 564.293 342.293 564.48 342.105 564.735 342 565 342 566.732 342 570.268 342 572 342zM572 357C572.552 357 573 356.552 573 356 573 353.908 573 349.092 573 347 573 346.448 572.552 346 572 346 571.389 346 570.611 346 570 346 569.448 346 569 346.448 569 347 569 349.092 569 353.908 569 356 569 356.552 569.448 357 570 357 570.611 357 571.389 357 572 357zM598 362C598 361.448 597.552 361 597 361 595.268 361 591.732 361 590 361 589.735 361 589.48 360.895 589.293 360.707 589.105 360.52 589 360.265 589 360 589 356.716 589 346.284 589 343 589 342.448 589.448 342 590 342 592.577 342 599.423 342 602 342 602.552 342 603 342.448 603 343 603 347.134 603 362.866 603 367 603 367.552 602.552 368 602 368 599.423 368 592.577 368 590 368 589.448 368 589 367.552 589 367 589 366.389 589 365.611 589 365 589 364.448 589.448 364 590 364 591.732 364 595.268 364 597 364 597.552 364 598 363.552 598 363 598 362.678 598 362.322 598 362zM597 357C597.552 357 598 356.552 598 356 598 353.908 598 349.092 598 347 598 346.448 597.552 346 597 346 596.389 346 595.611 346 595 346 594.448 346 594 346.448 594 347 594 349.092 594 353.908 594 356 594 356.552 594.448 357 595 357 595.611 357 596.389 357 597 357z" transform="translate(-560 -320)"/><path fill="#617881" d="M581 360C581 356.716 581 358 581 358 581 358.265 581.105 358.52 581.293 358.707 581.48 358.895 581.735 359 582 359 582.871 359 584.129 359 585 359 585.265 359 585.52 358.895 585.707 358.707 585.895 358.52 586 358.265 586 358L586 360C586 360.265 585.895 360.52 585.707 360.707 585.52 360.895 585.265 361 585 361 584.129 361 582.871 361 582 361 581.735 361 581.48 360.895 581.293 360.707 581.105 360.52 581 360.265 581 360zM586 337C586 337 586 337.89 586 339 586 339.265 585.895 339.52 585.707 339.707 585.52 339.895 585.265 340 585 340 584.129 340 582.871 340 582 340 581.735 340 581.48 339.895 581.293 339.707 581.105 339.52 581 339.265 581 339L581 337C581 337.265 581.105 337.52 581.293 337.707 581.48 337.895 581.735 338 582 338 582.871 338 584.129 338 585 338 585.265 338 585.52 337.895 585.707 337.707 585.895 337.52 586 337.265 586 337zM564 358C564 358.552 564.448 359 565 359 567.577 359 574.423 359 577 359 577.552 359 578 358.552 578 358L578 360C578 360.552 577.552 361 577 361 574.423 361 567.577 361 565 361 564.448 361 564 360.552 564 360L564 358zM569 347C569 347 569 347.092 569 345 569 344.448 569.448 344 570 344 570.611 344 571.389 344 572 344 572.552 344 573 344.448 573 345L573 347C573 346.448 572.552 346 572 346 571.389 346 570.611 346 570 346 569.448 346 569 346.448 569 347zM603 365C603 365 603 362.866 603 367 603 367.552 602.552 368 602 368 599.423 368 592.577 368 590 368 589.448 368 589 367.552 589 367L589 365C589 365.552 589.448 366 590 366 592.577 366 599.423 366 602 366 602.552 366 603 365.552 603 365zM589 358C589 358.265 589.105 358.52 589.293 358.707 589.48 358.895 589.735 359 590 359 591.732 359 595.268 359 597 359 597.552 359 598 359.448 598 360 598 360.322 598 360.678 598 361 598 361.182 597.951 361.353 597.866 361.5 597.693 361.201 597.37 361 597 361 595.268 361 591.732 361 590 361 589.735 361 589.48 360.895 589.293 360.707 589.105 360.52 589 360.265 589 360L589 358zM594 347C594 347 594 347.092 594 345 594 344.448 594.448 344 595 344 595.611 344 596.389 344 597 344 597.552 344 598 344.448 598 345L598 347C598 346.448 597.552 346 597 346 596.389 346 595.611 346 595 346 594.448 346 594 346.448 594 347z" transform="translate(-560 -320)"/><path fill="#738b95" d="M598,362C598,361.448 597.552,361 597,361C595.268,361 591.732,361 590,361C589.735,361 589.48,360.895 589.293,360.707C589.105,360.52 589,360.265 589,360C589,356.716 589,346.284 589,343C589,342.448 589.448,342 590,342C592.577,342 599.423,342 602,342C602.552,342 603,342.448 603,343C603,347.134 603,362.866 603,367C603,367.552 602.552,368 602,368C599.423,368 592.577,368 590,368C589.448,368 589,367.552 589,367C589,366.389 589,365.611 589,365C589,364.448 589.448,364 590,364C591.732,364 595.268,364 597,364C597.552,364 598,363.552 598,363C598,362.678 598,362.322 598,362ZM597,357C597.552,357 598,356.552 598,356C598,353.908 598,349.092 598,347C598,346.448 597.552,346 597,346C596.389,346 595.611,346 595,346C594.448,346 594,346.448 594,347C594,349.092 594,353.908 594,356C594,356.552 594.448,357 595,357C595.611,357 596.389,357 597,357Z" transform="translate(-543 -320)"/><path fill="#617881" d="M603,365C603,365 603,362.866 603,367C603,367.552 602.552,368 602,368C599.423,368 592.577,368 590,368C589.448,368 589,367.552 589,367L589,365C589,365.552 589.448,366 590,366C592.577,366 599.423,366 602,366C602.552,366 603,365.552 603,365ZM589,358C589,358.265 589.105,358.52 589.293,358.707C589.48,358.895 589.735,359 590,359C591.732,359 595.268,359 597,359C597.552,359 598,359.448 598,360C598,360.322 598,360.678 598,361C598,361.182 597.951,361.353 597.866,361.5C597.693,361.201 597.37,361 597,361C595.268,361 591.732,361 590,361C589.735,361 589.48,360.895 589.293,360.707C589.105,360.52 589,360.265 589,360L589,358ZM594,347C594,347 594,347.092 594,345C594,344.448 594.448,344 595,344C595.611,344 596.389,344 597,344C597.552,344 598,344.448 598,345L598,347C598,346.448 597.552,346 597,346C596.389,346 595.611,346 595,346C594.448,346 594,346.448 594,347Z" transform="translate(-543 -320)"/><path d="M620.6,343.368C620.6,342.824 620.41,342.302 620.073,341.917C619.735,341.532 619.277,341.316 618.8,341.316C617.754,341.316 616.246,341.316 615.2,341.316C614.723,341.316 614.265,341.532 613.927,341.917C613.59,342.302 613.4,342.824 613.4,343.368C613.4,347.862 613.4,362.138 613.4,366.632C613.4,367.176 613.59,367.698 613.927,368.083C614.265,368.468 614.723,368.684 615.2,368.684C616.246,368.684 617.754,368.684 618.8,368.684C619.277,368.684 619.735,368.468 620.073,368.083C620.41,367.698 620.6,367.176 620.6,366.632C620.6,362.138 620.6,347.862 620.6,343.368ZM619.4,343.368C619.4,347.862 619.4,362.138 619.4,366.632C619.4,366.813 619.337,366.987 619.224,367.115C619.112,367.244 618.959,367.316 618.8,367.316C617.754,367.316 616.246,367.316 615.2,367.316C615.041,367.316 614.888,367.244 614.776,367.115C614.663,366.987 614.6,366.813 614.6,366.632C614.6,362.138 614.6,347.862 614.6,343.368C614.6,343.187 614.663,343.013 614.776,342.885C614.888,342.756 615.041,342.684 615.2,342.684C616.246,342.684 617.754,342.684 618.8,342.684C618.959,342.684 619.112,342.756 619.224,342.885C619.337,343.013 619.4,343.187 619.4,343.368Z" transform="matrix(.83333 0 0 .73077 -490.667 -227.923)"/><path d="M620.6,346.333C620.6,344.609 620.41,342.956 620.073,341.737C619.735,340.518 619.277,339.833 618.8,339.833C617.754,339.833 616.246,339.833 615.2,339.833C614.723,339.833 614.265,340.518 613.927,341.737C613.59,342.956 613.4,344.609 613.4,346.333C613.4,351.142 613.4,358.858 613.4,363.667C613.4,365.391 613.59,367.044 613.927,368.263C614.265,369.482 614.723,370.167 615.2,370.167C616.246,370.167 617.754,370.167 618.8,370.167C619.277,370.167 619.735,369.482 620.073,368.263C620.41,367.044 620.6,365.391 620.6,363.667L620.6,346.333ZM619.4,346.333L619.4,363.667C619.4,364.241 619.337,364.792 619.224,365.199C619.112,365.605 618.959,365.833 618.8,365.833C617.754,365.833 616.246,365.833 615.2,365.833C615.041,365.833 614.888,365.605 614.776,365.199C614.663,364.792 614.6,364.241 614.6,363.667C614.6,358.858 614.6,351.142 614.6,346.333C614.6,345.759 614.663,345.208 614.776,344.801C614.888,344.395 615.041,344.167 615.2,344.167C616.246,344.167 617.754,344.167 618.8,344.167C618.959,344.167 619.112,344.395 619.224,344.801C619.337,345.208 619.4,345.759 619.4,346.333Z" transform="matrix(.83333 0 0 .23077 -490.667 -64.923)"/><path d="M572 341.5L565 341.5C564.602 341.5 564.221 341.658 563.939 341.939 563.658 342.221 563.5 342.602 563.5 343 563.5 346.284 563.5 356.716 563.5 360 563.5 360.828 564.172 361.5 565 361.5 567.577 361.5 574.423 361.5 577 361.5 577.828 361.5 578.5 360.828 578.5 360 578.5 355.754 578.5 339.246 578.5 335 578.5 334.172 577.828 333.5 577 333.5 576.129 333.5 574.871 333.5 574 333.5 573.602 333.5 573.221 333.658 572.939 333.939 572.658 334.221 572.5 334.602 572.5 335 572.5 336.537 572.5 339.463 572.5 341 572.5 341.133 572.447 341.26 572.354 341.354 572.26 341.447 572.133 341.5 572 341.5zM572 342.5C572.398 342.5 572.779 342.342 573.061 342.061 573.342 341.779 573.5 341.398 573.5 341 573.5 339.463 573.5 336.537 573.5 335 573.5 334.867 573.553 334.74 573.646 334.646 573.74 334.553 573.867 334.5 574 334.5 574.871 334.5 576.129 334.5 577 334.5 577.276 334.5 577.5 334.724 577.5 335L577.5 360C577.5 360.276 577.276 360.5 577 360.5 574.423 360.5 567.577 360.5 565 360.5 564.724 360.5 564.5 360.276 564.5 360 564.5 356.716 564.5 346.284 564.5 343 564.5 342.867 564.553 342.74 564.646 342.646 564.74 342.553 564.867 342.5 565 342.5L572 342.5zM572 357.5C572.828 357.5 573.5 356.828 573.5 356 573.5 353.908 573.5 349.092 573.5 347 573.5 346.172 572.828 345.5 572 345.5 571.389 345.5 570.611 345.5 570 345.5 569.172 345.5 568.5 346.172 568.5 347 568.5 349.092 568.5 353.908 568.5 356 568.5 356.828 569.172 357.5 570 357.5L572 357.5zM572 356.5C572.276 356.5 572.5 356.276 572.5 356 572.5 353.908 572.5 349.092 572.5 347 572.5 346.724 572.276 346.5 572 346.5 571.389 346.5 570.611 346.5 570 346.5 569.724 346.5 569.5 346.724 569.5 347 569.5 349.092 569.5 353.908 569.5 356 569.5 356.276 569.724 356.5 570 356.5L572 356.5zM597.5 362C597.5 361.724 597.276 361.5 597 361.5 595.268 361.5 591.732 361.5 590 361.5 589.602 361.5 589.221 361.342 588.939 361.061 588.658 360.779 588.5 360.398 588.5 360 588.5 356.716 588.5 346.284 588.5 343 588.5 342.172 589.172 341.5 590 341.5 592.577 341.5 599.423 341.5 602 341.5 602.828 341.5 603.5 342.172 603.5 343 603.5 347.134 603.5 362.866 603.5 367 603.5 367.828 602.828 368.5 602 368.5 599.423 368.5 592.577 368.5 590 368.5 589.172 368.5 588.5 367.828 588.5 367 588.5 366.389 588.5 365.611 588.5 365 588.5 364.172 589.172 363.5 590 363.5 591.732 363.5 595.268 363.5 597 363.5 597.276 363.5 597.5 363.276 597.5 363L597.5 362zM598.5 362C598.5 361.172 597.828 360.5 597 360.5 595.268 360.5 591.732 360.5 590 360.5 589.867 360.5 589.74 360.447 589.646 360.354 589.553 360.26 589.5 360.133 589.5 360 589.5 356.716 589.5 346.284 589.5 343 589.5 342.724 589.724 342.5 590 342.5 592.577 342.5 599.423 342.5 602 342.5 602.276 342.5 602.5 342.724 602.5 343 602.5 347.134 602.5 362.866 602.5 367 602.5 367.276 602.276 367.5 602 367.5 599.423 367.5 592.577 367.5 590 367.5 589.724 367.5 589.5 367.276 589.5 367 589.5 366.389 589.5 365.611 589.5 365 589.5 364.724 589.724 364.5 590 364.5 591.732 364.5 595.268 364.5 597 364.5 597.828 364.5 598.5 363.828 598.5 363L598.5 362zM597 357.5C597.828 357.5 598.5 356.828 598.5 356 598.5 353.908 598.5 349.092 598.5 347 598.5 346.172 597.828 345.5 597 345.5 596.389 345.5 595.611 345.5 595 345.5 594.172 345.5 593.5 346.172 593.5 347 593.5 349.092 593.5 353.908 593.5 356 593.5 356.828 594.172 357.5 595 357.5L597 357.5zM597 356.5C597.276 356.5 597.5 356.276 597.5 356 597.5 353.908 597.5 349.092 597.5 347 597.5 346.724 597.276 346.5 597 346.5 596.389 346.5 595.611 346.5 595 346.5 594.724 346.5 594.5 346.724 594.5 347 594.5 349.092 594.5 353.908 594.5 356 594.5 356.276 594.724 356.5 595 356.5L597 356.5z" transform="translate(-560 -320)"/><path d="M597.5,362C597.5,361.724 597.276,361.5 597,361.5C595.268,361.5 591.732,361.5 590,361.5C589.602,361.5 589.221,361.342 588.939,361.061C588.658,360.779 588.5,360.398 588.5,360C588.5,356.716 588.5,346.284 588.5,343C588.5,342.172 589.172,341.5 590,341.5C592.577,341.5 599.423,341.5 602,341.5C602.828,341.5 603.5,342.172 603.5,343C603.5,347.134 603.5,362.866 603.5,367C603.5,367.828 602.828,368.5 602,368.5C599.423,368.5 592.577,368.5 590,368.5C589.172,368.5 588.5,367.828 588.5,367C588.5,366.389 588.5,365.611 588.5,365C588.5,364.172 589.172,363.5 590,363.5C591.732,363.5 595.268,363.5 597,363.5C597.276,363.5 597.5,363.276 597.5,363L597.5,362ZM598.5,362C598.5,361.172 597.828,360.5 597,360.5C595.268,360.5 591.732,360.5 590,360.5C589.867,360.5 589.74,360.447 589.646,360.354C589.553,360.26 589.5,360.133 589.5,360C589.5,356.716 589.5,346.284 589.5,343C589.5,342.724 589.724,342.5 590,342.5C592.577,342.5 599.423,342.5 602,342.5C602.276,342.5 602.5,342.724 602.5,343C602.5,347.134 602.5,362.866 602.5,367C602.5,367.276 602.276,367.5 602,367.5C599.423,367.5 592.577,367.5 590,367.5C589.724,367.5 589.5,367.276 589.5,367C589.5,366.389 589.5,365.611 589.5,365C589.5,364.724 589.724,364.5 590,364.5C591.732,364.5 595.268,364.5 597,364.5C597.828,364.5 598.5,363.828 598.5,363L598.5,362ZM597,357.5C597.828,357.5 598.5,356.828 598.5,356C598.5,353.908 598.5,349.092 598.5,347C598.5,346.172 597.828,345.5 597,345.5C596.389,345.5 595.611,345.5 595,345.5C594.172,345.5 593.5,346.172 593.5,347C593.5,349.092 593.5,353.908 593.5,356C593.5,356.828 594.172,357.5 595,357.5L597,357.5ZM597,356.5C597.276,356.5 597.5,356.276 597.5,356C597.5,353.908 597.5,349.092 597.5,347C597.5,346.724 597.276,346.5 597,346.5C596.389,346.5 595.611,346.5 595,346.5C594.724,346.5 594.5,346.724 594.5,347C594.5,349.092 594.5,353.908 594.5,356C594.5,356.276 594.724,356.5 595,356.5L597,356.5Z" transform="translate(-543 -320)"/></g></svg>