<svg xmlns="http://www.w3.org/2000/svg" fill-rule="evenodd" stroke-linejoin="round" stroke-miterlimit="2" clip-rule="evenodd" viewBox="0 0 64 64"><g><rect width="64" height="64" fill="none"/><circle cx="432" cy="192" r="26" fill="#dd636e" transform="translate(-400 -160)"/><path fill="#e4989d" d="M417.606,288.633C421.798,282.357 428.327,277.642 436.014,275.606C437.993,280.971 439.547,286.527 440.637,292.237C437.984,293.372 435.065,294 432,294C426.498,294 421.466,291.976 417.606,288.633ZM443.414,290.807C442.331,285.377 440.84,280.087 438.974,274.966C440.786,274.66 442.653,274.5 444.559,274.5C447.726,274.5 450.788,274.942 453.679,275.764C452.579,282.132 448.737,287.567 443.414,290.807ZM410.036,270.726C410.688,270.748 411.343,270.759 412,270.759C419.211,270.759 426.106,269.462 432.448,267.099C433.33,268.969 434.157,270.867 434.93,272.79C426.86,275.006 419.985,279.937 415.444,286.482C412.055,282.612 410,277.544 410,272C410,271.573 410.012,271.148 410.036,270.726ZM448.744,257.736C452.021,261.577 454,266.559 454,272C454,272.246 453.996,272.492 453.988,272.736C450.988,271.931 447.826,271.5 444.559,271.5C442.277,271.5 440.047,271.71 437.887,272.111C437.064,270.036 436.179,267.991 435.234,265.978C440.152,263.847 444.696,261.061 448.744,257.736ZM423.555,251.682C426.361,255.737 428.893,259.981 431.124,264.389C425.181,266.567 418.734,267.759 412,267.759C411.47,267.759 410.941,267.751 410.414,267.736C411.844,260.461 416.867,254.468 423.555,251.682ZM426.511,250.691C428.265,250.24 430.105,250 432,250C437.619,250 442.75,252.111 446.639,255.583C442.822,258.686 438.545,261.286 433.921,263.276C431.728,258.918 429.251,254.716 426.511,250.691Z" transform="translate(-400 -240)"/><path d="M417.191,288.355C417.051,288.565 417.089,288.846 417.279,289.011C421.226,292.43 426.373,294.5 432,294.5C435.134,294.5 438.12,293.858 440.833,292.697C441.049,292.605 441.172,292.374 441.128,292.143C440.033,286.406 438.471,280.824 436.483,275.433C436.394,275.191 436.135,275.056 435.886,275.122C428.079,277.191 421.448,281.98 417.191,288.355ZM435.703,276.209C428.478,278.232 422.324,282.667 418.272,288.542C421.998,291.638 426.783,293.5 432,293.5C434.852,293.5 437.576,292.943 440.068,291.932C439.018,286.542 437.552,281.291 435.703,276.209ZM442.924,290.905C442.956,291.065 443.064,291.199 443.213,291.265C443.363,291.331 443.535,291.319 443.674,291.234C449.118,287.921 453.046,282.362 454.171,275.849C454.215,275.597 454.061,275.353 453.815,275.283C450.881,274.448 447.774,274 444.559,274C442.625,274 440.73,274.162 438.89,274.473C438.744,274.498 438.616,274.586 438.541,274.714C438.467,274.843 438.453,274.998 438.504,275.137C440.362,280.234 441.846,285.5 442.924,290.905ZM453.104,276.124C450.386,275.392 447.519,275 444.559,275C442.888,275 441.248,275.125 439.649,275.365C441.348,280.107 442.727,284.992 443.76,289.997C448.525,286.875 451.978,281.913 453.104,276.124ZM410.053,270.227C409.781,270.218 409.553,270.427 409.537,270.698C409.512,271.129 409.5,271.563 409.5,272C409.5,277.67 411.602,282.853 415.068,286.812C415.17,286.928 415.319,286.99 415.473,286.982C415.626,286.973 415.768,286.894 415.855,286.767C420.33,280.316 427.108,275.456 435.062,273.272C435.2,273.234 435.314,273.14 435.378,273.012C435.441,272.885 435.447,272.736 435.394,272.604C434.618,270.671 433.786,268.765 432.901,266.886C432.79,266.651 432.517,266.54 432.274,266.631C425.986,268.974 419.149,270.259 412,270.259C411.348,270.259 410.699,270.248 410.053,270.227ZM432.19,267.727C425.913,270.009 419.108,271.259 412,271.259C411.503,271.259 411.007,271.253 410.513,271.24C410.504,271.493 410.5,271.746 410.5,272C410.5,277.189 412.343,281.952 415.409,285.668C419.909,279.437 426.523,274.714 434.257,272.461C433.606,270.864 432.917,269.286 432.19,267.727ZM449.124,257.411C448.948,257.204 448.637,257.176 448.427,257.349C444.414,260.646 439.91,263.407 435.035,265.519C434.911,265.573 434.814,265.675 434.766,265.801C434.719,265.928 434.724,266.068 434.781,266.191C435.722,268.194 436.603,270.229 437.422,272.295C437.51,272.517 437.743,272.646 437.978,272.603C440.108,272.207 442.308,272 444.559,272C447.781,272 450.9,272.425 453.858,273.219C454.006,273.258 454.163,273.228 454.285,273.138C454.408,273.047 454.482,272.905 454.488,272.753C454.496,272.503 454.5,272.252 454.5,272C454.5,266.435 452.476,261.34 449.124,257.411ZM448.676,258.436C444.821,261.547 440.53,264.177 435.903,266.23C436.715,267.979 437.481,269.751 438.2,271.547C440.263,271.188 442.388,271 444.559,271C447.647,271 450.643,271.38 453.5,272.093L453.5,272C453.5,266.858 451.691,262.136 448.676,258.436ZM423.966,251.397C423.832,251.203 423.58,251.13 423.363,251.22C416.522,254.07 411.386,260.2 409.923,267.64C409.895,267.784 409.931,267.934 410.023,268.049C410.115,268.164 410.253,268.232 410.4,268.236C410.932,268.251 411.465,268.259 412,268.259C418.795,268.259 425.299,267.056 431.296,264.859C431.43,264.81 431.537,264.706 431.589,264.573C431.642,264.44 431.635,264.291 431.57,264.163C429.329,259.735 426.786,255.471 423.966,251.397ZM423.375,252.303C417.203,255.012 412.543,260.538 411.028,267.25C411.351,267.256 411.675,267.259 412,267.259C418.473,267.259 424.679,266.147 430.421,264.111C428.326,260.025 425.97,256.082 423.375,252.303ZM426.387,250.207C426.229,250.248 426.101,250.363 426.043,250.515C425.986,250.667 426.006,250.838 426.098,250.973C428.825,254.979 431.291,259.163 433.474,263.501C433.593,263.737 433.875,263.84 434.118,263.736C438.786,261.727 443.102,259.103 446.954,255.971C447.068,255.878 447.135,255.741 447.139,255.594C447.142,255.448 447.081,255.307 446.972,255.21C442.994,251.659 437.747,249.5 432,249.5C430.062,249.5 428.18,249.746 426.387,250.207ZM445.859,255.568C442.116,252.407 437.279,250.5 432,250.5C430.396,250.5 428.833,250.676 427.33,251.01C429.833,254.738 432.114,258.617 434.154,262.63C438.385,260.765 442.316,258.383 445.859,255.568Z" transform="translate(-400 -240)"/><path fill="#da4a54" d="M414.646,172.646C410.515,177.249 408,183.333 408,190C408,204.35 419.65,216 434,216C440.667,216 446.751,213.485 451.354,209.354C446.592,214.66 439.683,218 432,218C417.65,218 406,206.35 406,192C406,184.317 409.34,177.408 414.646,172.646Z" transform="translate(-400 -160)"/><path d="M432,165.5C417.374,165.5 405.5,177.374 405.5,192C405.5,206.626 417.374,218.5 432,218.5C446.626,218.5 458.5,206.626 458.5,192C458.5,177.374 446.626,165.5 432,165.5ZM432,166.5C446.074,166.5 457.5,177.926 457.5,192C457.5,206.074 446.074,217.5 432,217.5C417.926,217.5 406.5,206.074 406.5,192C406.5,177.926 417.926,166.5 432,166.5Z" transform="translate(-400 -160)"/></g></svg>