<svg xmlns="http://www.w3.org/2000/svg" fill-rule="evenodd" stroke-linejoin="round" stroke-miterlimit="2" clip-rule="evenodd" viewBox="0 0 64 64"><g><rect width="64" height="64" fill="none"/><circle cx="97" cy="351" r="13" fill="#57b7eb" transform="translate(-80 -319)"/><path fill="#4891d3" d="M88.864,341.864C87.073,344.091 86,346.921 86,350C86,357.175 91.825,363 99,363C102.079,363 104.909,361.927 107.136,360.136C104.752,363.101 101.096,365 97,365C89.825,365 84,359.175 84,352C84,347.904 85.899,344.248 88.864,341.864Z" transform="translate(-80 -320)"/><circle cx="97" cy="351" r="13" fill="#dd636e" transform="translate(-50 -319)"/><path fill="#da4a54" d="M88.864,341.864C87.073,344.091 86,346.921 86,350C86,357.175 91.825,363 99,363C102.079,363 104.909,361.927 107.136,360.136C104.752,363.101 101.096,365 97,365C89.825,365 84,359.175 84,352C84,347.904 85.899,344.248 88.864,341.864Z" transform="translate(-50 -320)"/><path d="M97,337.5C89.549,337.5 83.5,343.549 83.5,351C83.5,358.451 89.549,364.5 97,364.5C104.451,364.5 110.5,358.451 110.5,351C110.5,343.549 104.451,337.5 97,337.5ZM97,338.5C103.899,338.5 109.5,344.101 109.5,351C109.5,357.899 103.899,363.5 97,363.5C90.101,363.5 84.5,357.899 84.5,351C84.5,344.101 90.101,338.5 97,338.5Z" transform="translate(-80 -319)"/><path d="M97,337.5C89.549,337.5 83.5,343.549 83.5,351C83.5,358.451 89.549,364.5 97,364.5C104.451,364.5 110.5,358.451 110.5,351C110.5,343.549 104.451,337.5 97,337.5ZM97,338.5C103.899,338.5 109.5,344.101 109.5,351C109.5,357.899 103.899,363.5 97,363.5C90.101,363.5 84.5,357.899 84.5,351C84.5,344.101 90.101,338.5 97,338.5Z" transform="translate(-50 -319)"/></g></svg>