<svg xmlns="http://www.w3.org/2000/svg" fill-rule="evenodd" stroke-linejoin="round" stroke-miterlimit="2" clip-rule="evenodd" viewBox="0 0 64 64"><g><rect width="64" height="64" fill="none"/><path fill="#e4989d" d="M336,164C333.791,164 332,165.791 332,168L332,217.172C332,218.734 333.266,220 334.828,220C334.829,220 334.83,220 334.831,220C335.574,220 336.283,219.682 336.777,219.126C339.362,216.217 347.689,206.85 350.807,203.343C351.566,202.489 352.654,202 353.796,202C355.846,202 359.238,202 361.754,202C363.646,202 365.279,200.675 365.669,198.824C367.07,192.167 370.323,176.714 371.984,168.824C372.233,167.644 371.936,166.416 371.176,165.48C370.417,164.544 369.276,164 368.07,164L336,164Z" transform="translate(-320 -160)"/><path fill="#dd636e" d="M334.306,164.376C334.064,164.89 333.93,165.465 333.93,166.07L333.93,215.242C333.93,216.804 335.196,218.07 336.758,218.07C336.759,218.07 336.76,218.07 336.76,218.07C337.194,218.07 337.616,217.962 337.99,217.762L336.777,219.126C336.283,219.682 335.574,220 334.831,220C334.83,220 334.829,220 334.828,220C333.266,220 332,218.734 332,217.172L332,168C332,166.397 332.943,165.014 334.306,164.376ZM365.378,199.694C364.733,201.076 363.334,202 361.754,202C359.238,202 355.846,202 353.796,202C353.037,202 352.301,202.216 351.671,202.611L352.736,201.413C353.495,200.559 354.583,200.07 355.726,200.07C357.776,200.07 361.168,200.07 363.684,200.07C364.286,200.07 364.861,199.936 365.378,199.694Z" transform="translate(-320 -160)"/><path d="M336,163.5C333.515,163.5 331.5,165.515 331.5,168L331.5,217.172C331.5,219.01 332.99,220.5 334.828,220.5C334.829,220.5 334.83,220.5 334.831,220.5C335.717,220.5 336.562,220.121 337.151,219.458C339.736,216.549 348.063,207.182 351.18,203.675C351.845,202.928 352.797,202.5 353.796,202.5C355.846,202.5 359.238,202.5 361.754,202.5C363.882,202.5 365.72,201.009 366.158,198.927C367.559,192.27 370.813,176.817 372.474,168.927C372.753,167.6 372.419,166.218 371.565,165.165C370.71,164.112 369.426,163.5 368.07,163.5L336,163.5ZM336,164.5L368.07,164.5C369.125,164.5 370.123,164.976 370.788,165.795C371.453,166.614 371.712,167.689 371.495,168.721C369.834,176.611 366.581,192.064 365.179,198.721C364.838,200.341 363.41,201.5 361.754,201.5C359.238,201.5 355.846,201.5 353.796,201.5C352.511,201.5 351.287,202.05 350.433,203.01C347.315,206.518 338.989,215.885 336.403,218.794C336.004,219.243 335.432,219.5 334.831,219.5C334.83,219.5 334.829,219.5 334.828,219.5C333.542,219.5 332.5,218.458 332.5,217.172C332.5,207.95 332.5,178.728 332.5,168C332.5,166.067 334.067,164.5 336,164.5Z" transform="translate(-320 -160)"/><path fill="#f9f6f9" d="M364.05,178.45C363.841,179.357 363.033,180 362.101,180C359.406,180 353.949,180 351,180C349.895,180 349,180.895 349,182C349,182.644 349,183.356 349,184C349,185.105 349.895,186 351,186C353.348,186 357.244,186 359.794,186C360.403,186 360.979,186.278 361.359,186.755C361.738,187.232 361.879,187.856 361.742,188.45C361.31,190.323 360.728,192.847 360.358,194.45C360.148,195.357 359.34,196 358.409,196C356.077,196 351.806,196 349.928,196C349.339,196 348.781,196.259 348.401,196.708C346.105,199.421 338,209 338,209L338,172C338,171.47 338.211,170.961 338.586,170.586C338.961,170.211 339.47,170 340,170C344.991,170 357.988,170 363.486,170C364.095,170 364.672,170.278 365.051,170.755C365.43,171.232 365.572,171.856 365.435,172.45C365.002,174.323 364.42,176.847 364.05,178.45Z" transform="translate(-320 -160)"/><path d="M364.537,178.562C364.907,176.96 365.49,174.435 365.922,172.562C366.093,171.82 365.917,171.04 365.442,170.444C364.968,169.847 364.248,169.5 363.486,169.5C357.988,169.5 344.991,169.5 340,169.5C339.337,169.5 338.701,169.763 338.232,170.232C337.763,170.701 337.5,171.337 337.5,172L337.5,209C337.5,209.21 337.631,209.397 337.828,209.469C338.025,209.542 338.246,209.483 338.382,209.323C338.382,209.323 346.487,199.744 348.783,197.031C349.068,196.694 349.486,196.5 349.928,196.5C351.806,196.5 356.077,196.5 358.409,196.5C359.573,196.5 360.583,195.696 360.845,194.562C361.215,192.96 361.797,190.435 362.23,188.562C362.401,187.82 362.224,187.04 361.75,186.444C361.276,185.847 360.555,185.5 359.794,185.5C357.244,185.5 353.348,185.5 351,185.5C350.172,185.5 349.5,184.828 349.5,184C349.5,183.356 349.5,182.644 349.5,182C349.5,181.172 350.172,180.5 351,180.5C353.949,180.5 359.406,180.5 362.101,180.5C363.265,180.5 364.275,179.696 364.537,178.562ZM338.5,207.635L348.019,196.385C348.494,195.824 349.192,195.5 349.928,195.5C351.806,195.5 356.077,195.5 358.409,195.5C359.107,195.5 359.713,195.018 359.871,194.337C360.24,192.735 360.823,190.21 361.255,188.337C361.358,187.892 361.252,187.424 360.967,187.066C360.683,186.708 360.251,186.5 359.794,186.5C357.244,186.5 353.348,186.5 351,186.5C349.619,186.5 348.5,185.381 348.5,184C348.5,183.356 348.5,182.644 348.5,182C348.5,180.619 349.619,179.5 351,179.5C353.949,179.5 359.406,179.5 362.101,179.5C362.8,179.5 363.406,179.018 363.563,178.337C363.933,176.735 364.515,174.21 364.947,172.337C365.05,171.892 364.944,171.424 364.66,171.066C364.375,170.708 363.943,170.5 363.486,170.5C357.988,170.5 344.991,170.5 340,170.5C339.602,170.5 339.221,170.658 338.939,170.939C338.658,171.221 338.5,171.602 338.5,172L338.5,207.635Z" transform="translate(-320 -160)"/></g></svg>