<svg xmlns="http://www.w3.org/2000/svg" fill-rule="evenodd" stroke-linejoin="round" stroke-miterlimit="2" clip-rule="evenodd" viewBox="0 0 64 64"><g><rect width="64" height="64" fill="none"/><path fill="#95d6a4" d="M538,178C538,171.377 532.623,166 526,166L498,166C491.377,166 486,171.377 486,178L486,206C486,212.623 491.377,218 498,218L526,218C532.623,218 538,212.623 538,206L538,178Z" transform="translate(-480 -160)"/><path fill="#78c2a4" d="M490.575,168.575C488.963,170.619 488,173.198 488,176L488,204C488,210.623 493.377,216 500,216L528,216C530.802,216 533.381,215.037 535.425,213.425C533.227,216.21 529.821,218 526,218L498,218C491.377,218 486,212.623 486,206L486,178C486,174.179 487.79,170.773 490.575,168.575Z" transform="translate(-480 -160)"/><path d="M538.5,178C538.5,171.101 532.899,165.5 526,165.5C526,165.5 498,165.5 498,165.5C491.101,165.5 485.5,171.101 485.5,178C485.5,178 485.5,206 485.5,206C485.5,212.899 491.101,218.5 498,218.5C498,218.5 526,218.5 526,218.5C532.899,218.5 538.5,212.899 538.5,206C538.5,206 538.5,178 538.5,178ZM537.5,178L537.5,206C537.5,212.347 532.347,217.5 526,217.5L498,217.5C491.653,217.5 486.5,212.347 486.5,206L486.5,178C486.5,171.653 491.653,166.5 498,166.5L526,166.5C532.347,166.5 537.5,171.653 537.5,178Z" transform="translate(-480 -160)"/><path fill="#738b95" d="M524.745,208.686C521.21,211.392 516.791,213 512,213C500.41,213 491,203.59 491,192C491,180.41 500.41,171 512,171C523.59,171 533,180.41 533,192C533,196.791 531.392,201.21 528.686,204.745L530,210L524.745,208.686Z" transform="translate(-480 -160)"/><path d="M524.856,209.229C521.269,211.911 516.819,213.5 512,213.5C500.134,213.5 490.5,203.866 490.5,192C490.5,180.134 500.134,170.5 512,170.5C523.866,170.5 533.5,180.134 533.5,192C533.5,196.819 531.911,201.269 529.229,204.856L530.485,209.879C530.528,210.049 530.478,210.229 530.354,210.354C530.229,210.478 530.049,210.528 529.879,210.485L524.856,209.229ZM529.313,209.313L528.201,204.867C528.164,204.719 528.197,204.563 528.289,204.442C530.93,200.991 532.5,196.677 532.5,192C532.5,180.686 523.314,171.5 512,171.5C500.686,171.5 491.5,180.686 491.5,192C491.5,203.314 500.686,212.5 512,212.5C516.677,212.5 520.991,210.93 524.442,208.289C524.563,208.197 524.719,208.164 524.867,208.201L529.313,209.313Z" transform="translate(-480 -160)"/><circle cx="512" cy="192" r="21" fill="#f9f6f9" transform="translate(-236.19 -68.571) scale(.52381)"/><path d="M512,170.045C499.883,170.045 490.045,179.883 490.045,192C490.045,204.117 499.883,213.955 512,213.955C524.117,213.955 533.955,204.117 533.955,192C533.955,179.883 524.117,170.045 512,170.045ZM512,171.955C523.063,171.955 532.045,180.937 532.045,192C532.045,203.063 523.063,212.045 512,212.045C500.937,212.045 491.955,203.063 491.955,192C491.955,180.937 500.937,171.955 512,171.955Z" transform="translate(-236.19 -68.571) scale(.52381)"/><circle cx="512" cy="192" r="21" fill="#738b95" transform="matrix(.14286 0 0 .14286 -41.143 4.571)"/><path d="M512,167.5C498.478,167.5 487.5,178.478 487.5,192C487.5,205.522 498.478,216.5 512,216.5C525.522,216.5 536.5,205.522 536.5,192C536.5,178.478 525.522,167.5 512,167.5ZM512,174.5C521.659,174.5 529.5,182.341 529.5,192C529.5,201.659 521.659,209.5 512,209.5C502.341,209.5 494.5,201.659 494.5,192C494.5,182.341 502.341,174.5 512,174.5Z" transform="matrix(.14286 0 0 .14286 -41.143 4.571)"/></g></svg>