<svg xmlns="http://www.w3.org/2000/svg" fill-rule="evenodd" stroke-linejoin="round" stroke-miterlimit="2" clip-rule="evenodd" viewBox="0 0 64 64"><g><rect width="64" height="64" fill="none"/><path fill="#95d6a4" d="M752.035,330.128L754.358,327.805C759.432,322.732 767.669,322.732 772.743,327.805C777.816,332.878 777.816,341.116 772.743,346.19L766.933,352L772.743,357.81C777.816,362.884 777.816,371.122 772.743,376.195C767.669,381.268 759.432,381.268 754.358,376.195L752.035,373.872C749.738,377.55 745.653,380 741,380C733.825,380 728,374.175 728,367L728,337C728,329.825 733.825,324 741,324C745.653,324 749.738,326.45 752.035,330.128Z" transform="translate(-720.274 -320)"/><path fill="#78c2a4" d="M751.998,374.109C752.663,373.432 753.255,372.681 753.761,371.872L756.084,374.195C760.82,378.93 768.312,379.246 773.415,375.141C773.122,375.505 772.807,375.857 772.469,376.195C767.395,381.268 759.158,381.268 754.084,376.195L751.998,374.109ZM732.59,326.864C730.799,329.091 729.726,331.921 729.726,335L729.726,365C729.726,372.175 735.551,378 742.726,378C745.804,378 748.634,376.928 750.862,375.136C748.479,378.101 744.822,380 740.726,380C733.551,380 727.726,374.175 727.726,367L727.726,337C727.726,332.904 729.625,329.248 732.59,326.864ZM768.659,350L772.469,346.19L768.659,350Z" transform="translate(-720 -320)"/><path d="M752.115,374.659C749.679,378.187 745.607,380.5 741,380.5C733.549,380.5 727.5,374.451 727.5,367L727.5,337C727.5,329.549 733.549,323.5 741,323.5C745.607,323.5 749.679,325.813 752.115,329.341L754.005,327.452C759.273,322.183 767.828,322.183 773.096,327.452C778.365,332.72 778.365,341.275 773.096,346.543L767.64,352L773.096,357.457C778.365,362.725 778.365,371.28 773.096,376.548C767.828,381.817 759.273,381.817 754.005,376.548L752.115,374.659ZM751.611,330.393C751.692,330.522 751.827,330.608 751.978,330.625C752.13,330.642 752.281,330.59 752.388,330.482L754.712,328.159C759.59,323.28 767.511,323.28 772.389,328.159C777.268,333.037 777.268,340.958 772.389,345.836C772.389,345.836 766.579,351.646 766.579,351.646C766.384,351.842 766.384,352.158 766.579,352.354L772.389,358.164C777.268,363.042 777.268,370.963 772.389,375.841C767.511,380.72 759.59,380.72 754.712,375.841C754.712,375.841 752.388,373.518 752.388,373.518C752.281,373.41 752.13,373.358 751.978,373.375C751.827,373.392 751.692,373.478 751.611,373.607C749.402,377.144 745.474,379.5 741,379.5C734.101,379.5 728.5,373.899 728.5,367C728.5,367 728.5,337 728.5,337C728.5,330.101 734.101,324.5 741,324.5C745.474,324.5 749.402,326.856 751.611,330.393Z" transform="translate(-720.274 -320)"/></g></svg>