<svg xmlns="http://www.w3.org/2000/svg" fill-rule="evenodd" stroke-linejoin="round" stroke-miterlimit="2" clip-rule="evenodd" viewBox="0 0 64 64"><g><rect width="64" height="64" fill="none"/><path fill="#f9f6f9" d="M512.129,8C523.115,8.07 532,16.997 532,28C532,41 516,54 508,54L510.466,47.942C500.143,47.157 492,38.522 492,28C492,16.962 500.962,8 512,8L512.129,8Z" transform="translate(-480 1)"/><path d="M509.749,48.377C499.491,47.254 491.5,38.553 491.5,28C491.5,16.686 500.686,7.5 512,7.5L512.133,7.5C523.393,7.572 532.5,16.722 532.5,28C532.5,35.942 526.665,43.902 520.213,48.985C515.884,52.396 511.28,54.5 508,54.5C507.834,54.5 507.678,54.417 507.585,54.279C507.492,54.141 507.474,53.966 507.537,53.811L509.749,48.377ZM512.127,8.5L512,8.5C501.238,8.5 492.5,17.238 492.5,28C492.5,38.259 500.439,46.678 510.504,47.443C510.663,47.455 510.807,47.543 510.891,47.679C510.975,47.815 510.989,47.982 510.929,48.13L508.759,53.462C511.804,53.169 515.8,51.189 519.595,48.199C525.815,43.298 531.5,35.658 531.5,28C531.5,17.272 522.838,8.568 512.127,8.5Z" transform="translate(-480 1)"/><path fill="#95d6a4" d="M532 34L532 38 538 38C539.104 38 540 38.896 540 40 540 41.104 539.104 42 538 42L530 42C528.895 42 528 41.105 528 40L528 24C528 22.895 528.895 22 530 22L538 22C539.104 22 540 22.896 540 24 540 25.104 539.104 26 538 26L532 26 532 30 538 30C539.104 30 540 30.896 540 32 540 33.104 539.104 34 538 34L532 34zM500 24L500 40C500 41.104 500.896 42 502 42 503.104 42 504 41.104 504 40L504 24C504 22.896 503.104 22 502 22 500.896 22 500 22.896 500 24zM512 30L512 40C512 41.104 511.104 42 510 42 508.896 42 508 41.104 508 40L508 24C508 23.139 508.551 22.375 509.368 22.103 510.184 21.83 511.083 22.111 511.6 22.8L520 34 520 24C520 22.896 520.896 22 522 22 523.104 22 524 22.896 524 24L524 40C524 40.861 523.449 41.625 522.632 41.897 521.816 42.17 520.917 41.889 520.4 41.2L512 30zM488 38L494 38C495.104 38 496 38.896 496 40 496 41.104 495.104 42 494 42L486 42C484.895 42 484 41.105 484 40L484 24C484 22.896 484.896 22 486 22 487.104 22 488 22.896 488 24L488 38z" transform="translate(-480)"/><path fill="#78c2a4" d="M524,39L524,40C524,40.861 523.449,41.625 522.632,41.897C521.816,42.17 520.917,41.889 520.4,41.2L518.75,39L524,39ZM512,39L512,40C512,41.104 511.104,42 510,42C508.896,42 508,41.104 508,40L508,39L512,39ZM539.732,39C539.902,39.294 540,39.636 540,40C540,41.104 539.104,42 538,42L530,42C528.895,42 528,41.105 528,40L528,39L539.732,39ZM504,39L504,40C504,41.104 503.104,42 502,42C500.896,42 500,41.104 500,40L500,39L504,39ZM495.732,39C495.902,39.294 496,39.636 496,40C496,41.104 495.104,42 494,42L486,42C484.895,42 484,41.105 484,40L484,39L495.732,39Z" transform="translate(-480)"/><path d="M532.5 37.5L538 37.5C539.38 37.5 540.5 38.62 540.5 40 540.5 41.38 539.38 42.5 538 42.5 538 42.5 530 42.5 530 42.5 528.619 42.5 527.5 41.381 527.5 40L527.5 24C527.5 22.619 528.619 21.5 530 21.5L538 21.5C539.38 21.5 540.5 22.62 540.5 24 540.5 25.38 539.38 26.5 538 26.5L532.5 26.5 532.5 29.5 538 29.5C539.38 29.5 540.5 30.62 540.5 32 540.5 33.38 539.38 34.5 538 34.5L532.5 34.5 532.5 37.5zM532 33.5C531.724 33.5 531.5 33.724 531.5 34L531.5 38C531.5 38.276 531.724 38.5 532 38.5L538 38.5C538.828 38.5 539.5 39.172 539.5 40 539.5 40.828 538.828 41.5 538 41.5L530 41.5C529.172 41.5 528.5 40.828 528.5 40L528.5 24C528.5 23.172 529.172 22.5 530 22.5L538 22.5C538.828 22.5 539.5 23.172 539.5 24 539.5 24.828 538.828 25.5 538 25.5L532 25.5C531.724 25.5 531.5 25.724 531.5 26L531.5 30C531.5 30.276 531.724 30.5 532 30.5L538 30.5C538.828 30.5 539.5 31.172 539.5 32 539.5 32.828 538.828 33.5 538 33.5 538 33.5 532 33.5 532 33.5zM499.5 24L499.5 40C499.5 41.38 500.62 42.5 502 42.5 503.38 42.5 504.5 41.38 504.5 40L504.5 24C504.5 22.62 503.38 21.5 502 21.5 500.62 21.5 499.5 22.62 499.5 24zM500.5 24C500.5 23.172 501.172 22.5 502 22.5 502.828 22.5 503.5 23.172 503.5 24 503.5 24 503.5 40 503.5 40 503.5 40.828 502.828 41.5 502 41.5 501.172 41.5 500.5 40.828 500.5 40 500.5 40 500.5 24 500.5 24zM512.5 31.5L512.5 40C512.5 41.38 511.38 42.5 510 42.5 508.62 42.5 507.5 41.38 507.5 40L507.5 24C507.5 22.924 508.189 21.969 509.209 21.628 510.23 21.288 511.354 21.639 512 22.5L519.5 32.5 519.5 24C519.5 22.62 520.62 21.5 522 21.5 523.38 21.5 524.5 22.62 524.5 24L524.5 40C524.5 41.076 523.811 42.031 522.791 42.372 521.77 42.712 520.646 42.361 520 41.5L512.5 31.5zM512.4 29.7C512.271 29.528 512.046 29.458 511.842 29.526 511.638 29.594 511.5 29.785 511.5 30L511.5 40C511.5 40.828 510.828 41.5 510 41.5 509.172 41.5 508.5 40.828 508.5 40 508.5 40 508.5 24 508.5 24 508.5 23.354 508.913 22.781 509.526 22.577 510.138 22.373 510.813 22.583 511.2 23.1 511.2 23.1 519.6 34.3 519.6 34.3 519.729 34.472 519.954 34.542 520.158 34.474 520.362 34.406 520.5 34.215 520.5 34L520.5 24C520.5 23.172 521.172 22.5 522 22.5 522.828 22.5 523.5 23.172 523.5 24 523.5 24 523.5 40 523.5 40 523.5 40.646 523.087 41.219 522.474 41.423 521.862 41.627 521.187 41.417 520.8 40.9 520.8 40.9 512.4 29.7 512.4 29.7zM488.5 37.5L494 37.5C495.38 37.5 496.5 38.62 496.5 40 496.5 41.38 495.38 42.5 494 42.5 494 42.5 486 42.5 486 42.5 484.619 42.5 483.5 41.381 483.5 40L483.5 24C483.5 22.62 484.62 21.5 486 21.5 487.38 21.5 488.5 22.62 488.5 24L488.5 37.5zM487.5 38C487.5 38.276 487.724 38.5 488 38.5L494 38.5C494.828 38.5 495.5 39.172 495.5 40 495.5 40.828 494.828 41.5 494 41.5L486 41.5C485.172 41.5 484.5 40.828 484.5 40L484.5 24C484.5 23.172 485.172 22.5 486 22.5 486.828 22.5 487.5 23.172 487.5 24L487.5 38z" transform="translate(-480)"/></g></svg>