<svg xmlns="http://www.w3.org/2000/svg" fill-rule="evenodd" stroke-linejoin="round" stroke-miterlimit="2" clip-rule="evenodd" viewBox="0 0 64 64"><g><rect width="64" height="64" fill="none"/><path fill="#57b7eb" d="M422 26.643C422 26.472 421.932 26.309 421.812 26.188 421.691 26.068 421.528 26 421.357 26 420.204 26 417.796 26 416.643 26 416.472 26 416.309 26.068 416.188 26.188 416.068 26.309 416 26.472 416 26.643 416 30.233 416 47.767 416 51.357 416 51.528 416.068 51.691 416.188 51.812 416.309 51.932 416.472 52 416.643 52 417.796 52 420.204 52 421.357 52 421.528 52 421.691 51.932 421.812 51.812 421.932 51.691 422 51.528 422 51.357 422 47.767 422 30.233 422 26.643zM432 51.357C432 51.528 431.932 51.691 431.812 51.812 431.691 51.932 431.528 52 431.357 52 430.204 52 427.796 52 426.643 52 426.472 52 426.309 51.932 426.188 51.812 426.068 51.691 426 51.528 426 51.357 426 47.767 426 30.233 426 26.643 426 26.472 426.068 26.309 426.188 26.188 426.309 26.068 426.472 26 426.643 26 427.796 26 430.204 26 431.357 26 431.528 26 431.691 26.068 431.812 26.188 431.932 26.309 432 26.472 432 26.643 432 27.615 432 29.345 432 29.345 433.651 27.305 436.174 26 439 26 443.967 26 448 30.033 448 35 448 35 448 48.257 448 51.357 448 51.528 447.932 51.691 447.812 51.812 447.691 51.932 447.528 52 447.357 52 446.204 52 443.796 52 442.643 52 442.472 52 442.309 51.932 442.188 51.812 442.068 51.691 442 51.528 442 51.357 442 48.489 442 37 442 37 442 34.24 439.76 32 437 32 434.24 32 432 34.24 432 37L432 51.357z" transform="translate(-640 -20.889) scale(1.55556)"/><circle cx="419" cy="19" r="3" fill="#57b7eb" transform="translate(-640 -20.889) scale(1.55556)"/><path d="M419,15.679C417.167,15.679 415.679,17.167 415.679,19C415.679,20.833 417.167,22.321 419,22.321C420.833,22.321 422.321,20.833 422.321,19C422.321,17.167 420.833,15.679 419,15.679ZM419,16.321C420.478,16.321 421.679,17.522 421.679,19C421.679,20.478 420.478,21.679 419,21.679C417.522,21.679 416.321,20.478 416.321,19C416.321,17.522 417.522,16.321 419,16.321Z" transform="translate(-640 -20.889) scale(1.55556)"/><path fill="#4891d3" d="M416.444 57L416.444 59C416.444 59.265 416.339 59.52 416.152 59.707 415.964 59.895 415.71 60 415.444 60 413.65 60 409.905 60 408.111 60 407.846 60 407.592 59.895 407.404 59.707 407.216 59.52 407.111 59.265 407.111 59L407.111 57 416.444 57zM456.889 57L456.889 59C456.889 59.265 456.784 59.52 456.596 59.707 456.408 59.895 456.154 60 455.889 60 454.095 60 450.35 60 448.556 60 448.29 60 448.036 59.895 447.848 59.707 447.661 59.52 447.556 59.265 447.556 59L447.556 57 456.889 57zM432 57L432 59C432 59.265 431.895 59.52 431.707 59.707 431.52 59.895 431.265 60 431 60 429.206 60 425.461 60 423.667 60 423.401 60 423.147 59.895 422.96 59.707 422.772 59.52 422.667 59.265 422.667 59L422.667 57 432 57z" transform="translate(-400)"/><path d="M422.321 26.643C422.321 26.387 422.22 26.142 422.039 25.961 421.858 25.78 421.613 25.679 421.357 25.679 420.204 25.679 417.796 25.679 416.643 25.679 416.387 25.679 416.142 25.78 415.961 25.961 415.78 26.142 415.679 26.387 415.679 26.643 415.679 30.233 415.679 47.767 415.679 51.357 415.679 51.613 415.78 51.858 415.961 52.039 416.142 52.22 416.387 52.321 416.643 52.321 417.796 52.321 420.204 52.321 421.357 52.321 421.613 52.321 421.858 52.22 422.039 52.039 422.22 51.858 422.321 51.613 422.321 51.357L422.321 26.643zM421.679 26.643L421.679 51.357C421.679 51.442 421.645 51.524 421.584 51.584 421.524 51.645 421.442 51.679 421.357 51.679 420.204 51.679 417.796 51.679 416.643 51.679 416.558 51.679 416.476 51.645 416.416 51.584 416.355 51.524 416.321 51.442 416.321 51.357 416.321 47.767 416.321 30.233 416.321 26.643 416.321 26.558 416.355 26.476 416.416 26.416 416.476 26.355 416.558 26.321 416.643 26.321 417.796 26.321 420.204 26.321 421.357 26.321 421.442 26.321 421.524 26.355 421.584 26.416 421.645 26.476 421.679 26.558 421.679 26.643zM432.321 28.5C434.015 26.76 436.382 25.679 439 25.679 444.145 25.679 448.321 29.855 448.321 35 448.321 35 448.321 48.257 448.321 51.357 448.321 51.613 448.22 51.858 448.039 52.039 447.858 52.22 447.613 52.321 447.357 52.321 446.204 52.321 443.796 52.321 442.643 52.321 442.387 52.321 442.142 52.22 441.961 52.039 441.78 51.858 441.679 51.613 441.679 51.357 441.679 48.489 441.679 37 441.679 37 441.679 34.418 439.582 32.321 437 32.321 434.418 32.321 432.321 34.418 432.321 37L432.321 51.357 432.321 51.357C432.321 51.613 432.22 51.858 432.039 52.039 431.858 52.22 431.613 52.321 431.357 52.321 430.204 52.321 427.796 52.321 426.643 52.321 426.387 52.321 426.142 52.22 425.961 52.039 425.78 51.858 425.679 51.613 425.679 51.357 425.679 47.767 425.679 30.233 425.679 26.643 425.679 26.387 425.78 26.142 425.961 25.961 426.142 25.78 426.387 25.679 426.643 25.679 427.796 25.679 430.204 25.679 431.357 25.679 431.613 25.679 431.858 25.78 432.039 25.961 432.22 26.142 432.321 26.387 432.321 26.643L432.321 28.5zM431.679 51.357C431.679 51.442 431.645 51.524 431.584 51.584 431.524 51.645 431.442 51.679 431.357 51.679 430.204 51.679 427.796 51.679 426.643 51.679 426.558 51.679 426.476 51.645 426.416 51.584 426.355 51.524 426.321 51.442 426.321 51.357 426.321 47.767 426.321 30.233 426.321 26.643 426.321 26.558 426.355 26.476 426.416 26.416 426.476 26.355 426.558 26.321 426.643 26.321 427.796 26.321 430.204 26.321 431.357 26.321 431.442 26.321 431.524 26.355 431.584 26.416 431.645 26.476 431.679 26.558 431.679 26.643 431.679 27.615 431.679 29.345 431.679 29.345 431.679 29.482 431.764 29.603 431.893 29.648 432.021 29.694 432.164 29.653 432.25 29.548 433.842 27.58 436.275 26.321 439 26.321 443.79 26.321 447.679 30.21 447.679 35 447.679 35 447.679 48.257 447.679 51.357 447.679 51.442 447.645 51.524 447.584 51.584 447.524 51.645 447.442 51.679 447.357 51.679 446.204 51.679 443.796 51.679 442.643 51.679 442.558 51.679 442.476 51.645 442.416 51.584 442.355 51.524 442.321 51.442 442.321 51.357 442.321 48.489 442.321 37 442.321 37 442.321 34.063 439.937 31.679 437 31.679 434.063 31.679 431.679 34.063 431.679 37L431.679 51.357z" transform="translate(-640 -20.889) scale(1.55556)"/></g></svg>