<svg xmlns="http://www.w3.org/2000/svg" fill-rule="evenodd" stroke-linejoin="round" stroke-miterlimit="2" clip-rule="evenodd" viewBox="0 0 64 64"><g><rect width="64" height="64" fill="none"/><path fill="#57b7eb" d="M656,51.334C648.748,46.634 644,38.828 644,30C644,15.65 656.546,4 672,4C687.454,4 700,15.65 700,30C700,44.35 687.454,56 672,56C670.119,56 668.282,55.827 666.504,55.498C666.504,55.498 660.251,58.178 657.394,59.403C657.085,59.535 656.73,59.503 656.45,59.318C656.169,59.133 656,58.82 656,58.483C656,55.999 656,51.334 656,51.334Z" transform="translate(-640)"/><path fill="#f9f6f9" d="M652,36C652,36 664.034,25.47 667.229,22.675C667.432,22.497 667.698,22.409 667.966,22.43C668.235,22.451 668.483,22.58 668.656,22.787C670.88,25.456 678,34 678,34L692,28C692,28 679.966,38.53 676.771,41.325C676.568,41.503 676.302,41.591 676.034,41.57C675.765,41.549 675.517,41.42 675.344,41.213C673.12,38.544 666,30 666,30L652,36Z" transform="translate(-640 -2)"/><path d="M665.854,30.606L652.197,36.46C651.971,36.556 651.708,36.475 651.577,36.266C651.446,36.058 651.486,35.786 651.671,35.624C651.671,35.624 663.705,25.094 666.9,22.298C667.204,22.032 667.603,21.9 668.005,21.932C668.408,21.964 668.781,22.156 669.04,22.467L678.146,33.394L691.803,27.54C692.029,27.444 692.292,27.525 692.423,27.734C692.554,27.942 692.514,28.214 692.329,28.376C692.329,28.376 680.295,38.906 677.1,41.702C676.796,41.968 676.397,42.1 675.995,42.068C675.592,42.036 675.219,41.844 674.96,41.533L665.854,30.606ZM689.293,29.704L678.197,34.46C677.994,34.547 677.757,34.49 677.616,34.32C677.616,34.32 670.496,25.776 668.272,23.107C668.185,23.004 668.061,22.939 667.927,22.929C667.793,22.918 667.66,22.962 667.558,23.051L654.707,34.296L665.803,29.54C666.006,29.453 666.243,29.51 666.384,29.68C666.384,29.68 673.504,38.224 675.728,40.893C675.815,40.996 675.939,41.061 676.073,41.071C676.207,41.082 676.34,41.038 676.442,40.949L689.293,29.704Z" transform="translate(-640 -2)"/><path fill="#4891d3" d="M652.508,11.342C648.446,15.855 646,21.665 646,28C646,42.35 658.546,54 674,54C681.574,54 688.449,51.202 693.492,46.658C688.355,52.366 680.631,56 672,56C670.119,56 668.282,55.827 666.504,55.498C666.504,55.498 660.251,58.178 657.394,59.403C657.085,59.535 656.73,59.503 656.45,59.318C656.169,59.133 656,58.82 656,58.483C656,55.999 656,51.334 656,51.334C648.748,46.634 644,38.828 644,30C644,22.683 647.262,16.068 652.508,11.342Z" transform="translate(-640)"/><path d="M655.5,51.604C648.236,46.798 643.5,38.908 643.5,30C643.5,15.385 656.261,3.5 672,3.5C687.739,3.5 700.5,15.385 700.5,30C700.5,44.615 687.739,56.5 672,56.5C670.141,56.5 668.323,56.334 666.562,56.017L657.591,59.862C657.127,60.061 656.595,60.013 656.174,59.736C655.753,59.458 655.5,58.988 655.5,58.483L655.5,51.604ZM656.5,51.334C656.5,51.165 656.414,51.007 656.272,50.915C649.162,46.306 644.5,38.656 644.5,30C644.5,15.916 656.832,4.5 672,4.5C687.168,4.5 699.5,15.916 699.5,30C699.5,44.084 687.168,55.5 672,55.5C670.15,55.5 668.343,55.33 666.595,55.007C666.498,54.989 666.398,55 666.307,55.039C666.307,55.039 660.054,57.719 657.197,58.943C657.042,59.009 656.865,58.993 656.725,58.901C656.584,58.808 656.5,58.652 656.5,58.483C656.5,55.999 656.5,51.334 656.5,51.334Z" transform="translate(-640)"/></g></svg>