<svg xmlns="http://www.w3.org/2000/svg" fill-rule="evenodd" stroke-linejoin="round" stroke-miterlimit="2" clip-rule="evenodd" viewBox="0 0 64 64"><g><rect width="64" height="64" fill="none"/><path fill="#57b7eb" d="M17,358L7,358C7,358 7,351.235 7,346C7,344.409 7.632,342.883 8.757,341.757C9.883,340.632 11.409,340 13,340C13,340 13,340 13,340C14.591,340 16.117,340.632 17.243,341.757C18.221,342.736 18.827,344.018 18.968,345.383C19.176,345.123 19.399,344.874 19.636,344.636C21.324,342.948 23.613,342 26,342C26,342 26,342 26,342C28.387,342 30.676,342.948 32.364,344.636C33.113,345.385 33.716,346.252 34.155,347.193C36.369,345.207 39.293,344 42.5,344C42.5,344 42.5,344 42.5,344C49.404,344 55,349.596 55,356.5L55,380L30,380L30,368L17,368L17,358ZM43,324C47.967,324 52,328.033 52,333C52,337.967 47.967,342 43,342C38.033,342 34,337.967 34,333C34,328.033 38.033,324 43,324ZM26,326C29.311,326 32,329.137 32,333C32,336.863 29.311,340 26,340C22.689,340 20,336.863 20,333C20,329.137 22.689,326 26,326ZM13,327C15.76,327 18,329.464 18,332.5C18,335.536 15.76,338 13,338C10.24,338 8,335.536 8,332.5C8,329.464 10.24,327 13,327Z" transform="translate(1 -320)"/><path fill="#4891d3" d="M10.877,340.877C10.308,341.81 10,342.889 10,344C10,349.235 10,356 10,356L20,356L20,366L33,366L33,378L56,378L56,380L31,380L31,368L18,368L18,358L8,358C8,358 8,351.235 8,346C8,344.409 8.632,342.883 9.757,341.757C10.097,341.418 10.473,341.123 10.877,340.877ZM38.716,325.716C37.637,327.2 37,329.026 37,331C37,335.967 41.033,340 46,340C47.974,340 49.8,339.363 51.284,338.284C49.647,340.536 46.993,342 44,342C39.033,342 35,337.967 35,333C35,330.007 36.464,327.353 38.716,325.716ZM24.192,326.813C23.444,327.981 23,329.431 23,331C23,334.863 25.689,338 29,338C30.014,338 30.97,337.706 31.808,337.187C30.713,338.894 28.966,340 27,340C23.689,340 21,336.863 21,333C21,330.32 22.294,327.989 24.192,326.813ZM11.763,327.581C11.279,328.427 11,329.428 11,330.5C11,333.536 13.24,336 16,336C16.804,336 17.564,335.791 18.237,335.419C17.353,336.969 15.785,338 14,338C11.24,338 9,335.536 9,332.5C9,330.349 10.125,328.485 11.763,327.581Z" transform="translate(0 -320)"/><path d="M16.5,358.5L7,358.5C6.724,358.5 6.5,358.276 6.5,358C6.5,358 6.5,351.235 6.5,346C6.5,344.276 7.185,342.623 8.404,341.404C9.623,340.185 11.276,339.5 13,339.5L13,339.5C14.724,339.5 16.377,340.185 17.596,341.404C18.404,342.212 18.977,343.21 19.272,344.294L19.282,344.282C21.064,342.501 23.48,341.5 26,341.5L26,341.5C28.52,341.5 30.936,342.501 32.718,344.282C33.352,344.916 33.887,345.631 34.313,346.402C36.548,344.587 39.397,343.5 42.5,343.5C42.5,343.5 42.5,343.5 42.5,343.5C49.68,343.5 55.5,349.32 55.5,356.5L55.5,380C55.5,380.276 55.276,380.5 55,380.5L30,380.5C29.724,380.5 29.5,380.276 29.5,380L29.5,368.5L17,368.5C16.724,368.5 16.5,368.276 16.5,368L16.5,358.5ZM54.5,379.5L54.5,356.5C54.5,349.873 49.127,344.5 42.5,344.5C42.5,344.5 42.5,344.5 42.5,344.5C39.422,344.5 36.614,345.659 34.489,347.565C34.371,347.671 34.21,347.715 34.055,347.683C33.9,347.651 33.769,347.548 33.702,347.405C33.287,346.516 32.718,345.697 32.01,344.99C30.416,343.396 28.254,342.5 26,342.5L26,342.5C23.746,342.5 21.584,343.396 19.99,344.99C19.765,345.214 19.555,345.449 19.359,345.695C19.232,345.853 19.022,345.92 18.827,345.862C18.633,345.805 18.492,345.636 18.471,345.434C18.341,344.183 17.786,343.008 16.889,342.111C15.858,341.079 14.459,340.5 13,340.5L13,340.5C11.541,340.5 10.142,341.079 9.111,342.111C8.079,343.142 7.5,344.541 7.5,346L7.5,357.5L17,357.5C17.276,357.5 17.5,357.724 17.5,358L17.5,367.5L30,367.5C30.276,367.5 30.5,367.724 30.5,368L30.5,379.5L54.5,379.5ZM43,323.5C37.757,323.5 33.5,327.757 33.5,333C33.5,338.243 37.757,342.5 43,342.5C48.243,342.5 52.5,338.243 52.5,333C52.5,327.757 48.243,323.5 43,323.5ZM43,324.5C47.691,324.5 51.5,328.309 51.5,333C51.5,337.691 47.691,341.5 43,341.5C38.309,341.5 34.5,337.691 34.5,333C34.5,328.309 38.309,324.5 43,324.5ZM26,325.5C22.435,325.5 19.5,328.841 19.5,333C19.5,337.159 22.435,340.5 26,340.5C29.565,340.5 32.5,337.159 32.5,333C32.5,328.841 29.565,325.5 26,325.5ZM26,326.5C29.058,326.5 31.5,329.432 31.5,333C31.5,336.568 29.058,339.5 26,339.5C22.942,339.5 20.5,336.568 20.5,333C20.5,329.432 22.942,326.5 26,326.5ZM13,326.5C9.978,326.5 7.5,329.176 7.5,332.5C7.5,335.824 9.978,338.5 13,338.5C16.022,338.5 18.5,335.824 18.5,332.5C18.5,329.176 16.022,326.5 13,326.5ZM13,327.5C15.497,327.5 17.5,329.753 17.5,332.5C17.5,335.247 15.497,337.5 13,337.5C10.503,337.5 8.5,335.247 8.5,332.5C8.5,329.753 10.503,327.5 13,327.5Z" transform="translate(1 -320)"/></g></svg>