<svg xmlns="http://www.w3.org/2000/svg" fill-rule="evenodd" stroke-linejoin="round" stroke-miterlimit="2" clip-rule="evenodd" viewBox="0 0 64 64"><g><rect width="64" height="64" fill="none"/><circle cx="432" cy="192" r="26" fill="#ccf49f" transform="translate(-400 -160)"/><path fill="#95d6a4" d="M414.646,172.646C410.515,177.249 408,183.333 408,190C408,204.35 419.65,216 434,216C440.667,216 446.751,213.485 451.354,209.354C446.592,214.66 439.683,218 432,218C417.65,218 406,206.35 406,192C406,184.317 409.34,177.408 414.646,172.646Z" transform="translate(-400 -160)"/><path d="M432,165.5C417.374,165.5 405.5,177.374 405.5,192C405.5,206.626 417.374,218.5 432,218.5C446.626,218.5 458.5,206.626 458.5,192C458.5,177.374 446.626,165.5 432,165.5ZM432,166.5C446.074,166.5 457.5,177.926 457.5,192C457.5,206.074 446.074,217.5 432,217.5C417.926,217.5 406.5,206.074 406.5,192C406.5,177.926 417.926,166.5 432,166.5Z" transform="translate(-400 -160)"/><path fill="#f9f6f9" d="M22.109,263.899C24.429,260.348 28.44,258 33,258L33,258C40.18,258 46,263.82 46,271L46,283C46,283.552 45.552,284 45,284C43.463,284 40.537,284 39,284C38.735,284 38.48,283.895 38.293,283.707C38.105,283.52 38,283.265 38,283C38,280.75 38,275.159 38,271C38,269.674 37.473,268.402 36.536,267.464C35.598,266.527 34.326,266 33,266C33,266 33,266 33,266C31.674,266 30.402,266.527 29.464,267.464C28.527,268.402 28,269.674 28,271C28,275.159 28,280.75 28,283C28,283.265 27.895,283.52 27.707,283.707C27.52,283.895 27.265,284 27,284C25.463,284 22.537,284 21,284C20.448,284 20,283.552 20,283C20,280.933 20,275.967 20,271C20,270.663 20.013,270.33 20.038,270L20,270C16.582,270 13,266.418 13,262C13,261.219 13,260.524 13,260C13,259.448 13.448,259 14,259C15.11,259 16.89,259 18,259C18.265,259 18.52,259.105 18.707,259.293C18.895,259.48 19,259.735 19,260C19,260 19,260 19,260C19,261.061 19.421,262.078 20.172,262.828C20.708,263.365 21.381,263.733 22.109,263.899Z" transform="translate(2.5 -239)"/><path d="M21.895,263.321C24.331,259.804 28.397,257.5 33,257.5L33,257.5C40.456,257.5 46.5,263.544 46.5,271C46.5,275.967 46.5,280.933 46.5,283C46.5,283.828 45.828,284.5 45,284.5C43.463,284.5 40.537,284.5 39,284.5C38.602,284.5 38.221,284.342 37.939,284.061C37.658,283.779 37.5,283.398 37.5,283C37.5,280.75 37.5,275.159 37.5,271C37.5,269.807 37.026,268.662 36.182,267.818C35.338,266.974 34.193,266.5 33,266.5L33,266.5C31.807,266.5 30.662,266.974 29.818,267.818C28.974,268.662 28.5,269.807 28.5,271C28.5,275.159 28.5,280.75 28.5,283C28.5,283.398 28.342,283.779 28.061,284.061C27.779,284.342 27.398,284.5 27,284.5C25.463,284.5 22.537,284.5 21,284.5C20.172,284.5 19.5,283.828 19.5,283C19.5,280.933 19.5,275.967 19.5,271C19.5,270.825 19.503,270.651 19.51,270.477C16.018,270.159 12.5,266.501 12.5,262C12.5,261.219 12.5,260.524 12.5,260C12.5,259.172 13.172,258.5 14,258.5C15.11,258.5 16.89,258.5 18,258.5C18.398,258.5 18.779,258.658 19.061,258.939C19.342,259.221 19.5,259.602 19.5,260C19.5,260.928 19.869,261.819 20.525,262.475C20.914,262.863 21.384,263.151 21.895,263.321ZM21.997,264.387C22.201,264.433 22.413,264.348 22.527,264.173C24.758,260.758 28.615,258.5 33,258.5L33,258.5C39.904,258.5 45.5,264.096 45.5,271L45.5,283C45.5,283.276 45.276,283.5 45,283.5L39,283.5C38.867,283.5 38.74,283.447 38.646,283.354C38.553,283.26 38.5,283.133 38.5,283C38.5,280.75 38.5,275.159 38.5,271C38.5,269.541 37.921,268.142 36.889,267.111C35.858,266.079 34.459,265.5 33,265.5L33,265.5C31.541,265.5 30.142,266.079 29.111,267.111C28.079,268.142 27.5,269.541 27.5,271C27.5,275.159 27.5,280.75 27.5,283C27.5,283.133 27.447,283.26 27.354,283.354C27.26,283.447 27.133,283.5 27,283.5C25.463,283.5 22.537,283.5 21,283.5C20.724,283.5 20.5,283.276 20.5,283C20.5,280.933 20.5,275.967 20.5,271C20.5,270.676 20.512,270.355 20.536,270.038C20.547,269.899 20.499,269.762 20.405,269.66C20.31,269.558 20.177,269.5 20.038,269.5L20,269.5C16.809,269.5 13.5,266.125 13.5,262C13.5,261.219 13.5,260.524 13.5,260C13.5,259.724 13.724,259.5 14,259.5C15.11,259.5 16.89,259.5 18,259.5C18.133,259.5 18.26,259.553 18.354,259.646C18.447,259.74 18.5,259.867 18.5,260L18.5,260C18.5,261.193 18.974,262.338 19.818,263.182C20.421,263.785 21.179,264.2 21.997,264.387Z" transform="translate(2.5 -239)"/></g></svg>