<svg xmlns="http://www.w3.org/2000/svg" fill-rule="evenodd" stroke-linejoin="round" stroke-miterlimit="2" clip-rule="evenodd" viewBox="0 0 64 64"><g><rect width="64" height="64" fill="none"/><path fill="#57b7eb" d="M343,293L331.288,293C330.694,293 330.13,292.736 329.75,292.278C329.37,291.821 329.213,291.219 329.322,290.634C330.914,282.079 336.347,252.874 337.694,245.634C337.87,244.687 338.697,244 339.66,244L363.169,244C366.092,244 368.863,245.3 370.731,247.548C372.599,249.796 373.371,252.758 372.836,255.632C372.654,256.61 372.469,257.602 372.286,258.586C370.948,265.782 364.669,271 357.35,271L349.924,271C348.283,271 346.875,272.17 346.575,273.783C345.474,279.701 343,293 343,293Z" transform="translate(-320 -240)"/><path fill="#4891d3" d="M339.624,244L331.32,288.636C331.211,289.221 331.368,289.823 331.748,290.28C332.128,290.738 332.692,291.002 333.286,291.002L343.372,291.002L343,293L331.288,293C330.694,293 330.13,292.736 329.75,292.278C329.37,291.821 329.213,291.219 329.322,290.634C330.914,282.079 336.347,252.874 337.694,245.634C337.868,244.699 338.676,244.017 339.624,244ZM369.048,265.502C366.237,268.89 362.004,271 357.35,271L349.924,271C349.506,271 349.104,271.076 348.731,271.215C349.221,269.904 350.481,269.002 351.922,269.002L359.348,269.002C363.002,269.002 366.397,267.701 369.048,265.502Z" transform="translate(-320 -240)"/><path d="M343,293.5C343.241,293.5 343.448,293.328 343.492,293.091C343.492,293.091 345.966,279.793 347.067,273.874C347.323,272.498 348.524,271.5 349.924,271.5C352.96,271.5 357.35,271.5 357.35,271.5C364.91,271.5 371.395,266.11 372.778,258.677C372.961,257.693 373.146,256.701 373.328,255.723C373.889,252.703 373.079,249.59 371.116,247.228C369.152,244.866 366.24,243.5 363.169,243.5C363.169,243.5 345.272,243.5 339.66,243.5C338.456,243.5 337.423,244.359 337.202,245.543C335.855,252.783 330.422,281.988 328.83,290.543C328.694,291.273 328.891,292.026 329.366,292.598C329.84,293.169 330.545,293.5 331.288,293.5C335.319,293.5 343,293.5 343,293.5ZM342.584,292.5L346.084,273.691C346.428,271.842 348.042,270.5 349.924,270.5C352.96,270.5 357.35,270.5 357.35,270.5C364.428,270.5 370.5,265.453 371.795,258.495C371.978,257.51 372.162,256.519 372.344,255.54C372.852,252.813 372.12,250.001 370.347,247.868C368.573,245.734 365.943,244.5 363.169,244.5L339.66,244.5C338.938,244.5 338.318,245.015 338.186,245.726C336.839,252.966 331.405,282.171 329.813,290.726C329.732,291.164 329.85,291.616 330.135,291.959C330.42,292.302 330.842,292.5 331.288,292.5L342.584,292.5Z" transform="translate(-320 -240)"/><path fill="#aae1f9" d="M349.662,257L368.169,257C371.092,257 373.863,258.3 375.731,260.548C377.599,262.796 378.371,265.758 377.836,268.632C377.654,269.61 377.469,270.602 377.286,271.586C375.948,278.782 369.669,284 362.35,284L356.977,284C356.977,284 355.062,294.29 354.304,298.366C354.128,299.313 353.301,300 352.338,300C349.874,300 345.241,300 342.406,300C341.812,300 341.248,299.736 340.868,299.278C340.488,298.821 340.331,298.219 340.44,297.634C341.886,289.86 346.47,265.224 347.696,258.634C347.872,257.687 348.699,257 349.662,257Z" transform="translate(-320 -240)"/><path fill="#57b7eb" d="M344.316,298C344.346,298.001 344.375,298.002 344.404,298.002C347.239,298.002 351.872,298.002 354.336,298.002L354.372,298.002L354.304,298.366C354.128,299.313 353.301,300 352.338,300C349.874,300 345.241,300 342.406,300C341.812,300 341.248,299.736 340.868,299.278C340.567,298.916 340.406,298.463 340.406,298L344.316,298Z" transform="translate(-320 -240)"/><path d="M357.392,284.5L354.796,298.457C354.575,299.641 353.542,300.5 352.338,300.5C349.874,300.5 345.241,300.5 342.406,300.5C341.663,300.5 340.959,300.169 340.484,299.598C340.009,299.026 339.813,298.273 339.949,297.543C341.395,289.769 345.978,265.132 347.204,258.543C347.425,257.359 348.458,256.5 349.662,256.5L368.169,256.5C371.24,256.5 374.152,257.866 376.116,260.228C378.079,262.59 378.889,265.703 378.328,268.723C378.146,269.701 377.961,270.693 377.778,271.677C376.395,279.11 369.91,284.5 362.35,284.5L357.392,284.5ZM349.662,257.5L368.169,257.5C370.943,257.5 373.573,258.734 375.347,260.868C377.12,263.001 377.852,265.813 377.344,268.54C377.162,269.519 376.978,270.51 376.795,271.495C375.5,278.453 369.428,283.5 362.35,283.5C362.35,283.5 356.977,283.5 356.977,283.5C356.736,283.5 356.529,283.672 356.485,283.909C356.485,283.909 354.571,294.198 353.812,298.274C353.68,298.985 353.06,299.5 352.338,299.5C349.874,299.5 345.241,299.5 342.406,299.5C341.961,299.5 341.538,299.302 341.253,298.959C340.968,298.616 340.85,298.164 340.932,297.726C342.378,289.952 346.962,265.315 348.188,258.726C348.32,258.015 348.94,257.5 349.662,257.5Z" transform="translate(-320 -240)"/><path fill="#4891d3" d="M344.878,273.783C344.878,273.783 346.911,262.853 347.696,258.634C347.872,257.687 348.699,257 349.662,257C354.49,257 368.169,257 368.169,257C369.652,257 371.096,257.335 372.403,257.959L372.286,258.586C370.948,265.782 364.669,271 357.35,271L348.226,271C346.585,271 345.178,272.17 344.878,273.783Z" transform="translate(-320 -240)"/><path d="M344.386,273.691C344.336,273.963 344.515,274.224 344.786,274.274C345.058,274.325 345.319,274.146 345.369,273.874C345.625,272.498 346.826,271.5 348.226,271.5L357.35,271.5C364.91,271.5 371.395,266.11 372.778,258.677C372.778,258.677 372.895,258.05 372.895,258.05C372.936,257.827 372.823,257.605 372.618,257.507C371.245,256.852 369.728,256.5 368.169,256.5C368.169,256.5 354.49,256.5 349.662,256.5C348.458,256.5 347.425,257.359 347.204,258.543C346.419,262.762 344.386,273.691 344.386,273.691ZM371.84,258.252C370.693,257.762 369.446,257.5 368.169,257.5C368.169,257.5 354.49,257.5 349.662,257.5C348.94,257.5 348.32,258.015 348.188,258.726L345.847,271.309C346.51,270.799 347.338,270.5 348.226,270.5C351.761,270.5 357.35,270.5 357.35,270.5C364.428,270.5 370.5,265.453 371.795,258.495L371.84,258.252Z" transform="translate(-320 -240)"/></g></svg>