<svg xmlns="http://www.w3.org/2000/svg" fill-rule="evenodd" stroke-linejoin="round" stroke-miterlimit="2" clip-rule="evenodd" viewBox="0 0 64 64"><g><rect width="64" height="64" fill="none"/><path fill="#dd636e" d="M502.617,136.253C492.898,132.486 486,123.042 486,112C486,97.65 497.65,86 512,86C526.35,86 538,97.65 538,112C538,126.35 526.35,138 512,138C509.327,138 506.747,137.596 504.32,136.845C504.949,135.613 506.069,134.05 506.316,133.08C507.105,129.997 507.911,126.918 508.713,123.839C510.433,125.728 512.73,126.845 515.59,126.602C520.96,126.145 524.854,121.812 526.539,116.487C528.174,111.322 527.674,105.338 524.811,101.568C520.798,96.284 514.072,94.743 508.111,96.266C502.138,97.793 497.003,102.369 496.134,109.084C495.665,112.705 496.992,116.359 498.767,119.427C499.319,120.383 500.544,120.71 501.499,120.157C502.455,119.605 502.782,118.38 502.229,117.425C500.881,115.093 499.745,112.349 500.101,109.598C500.747,104.6 504.656,101.278 509.101,100.142C513.558,99.003 518.625,100.036 521.625,103.987C523.788,106.835 523.961,111.378 522.726,115.28C521.541,119.022 519.024,122.295 515.251,122.616C513.401,122.773 512.035,121.785 511.067,120.383C510.682,119.825 510.353,119.204 510.08,118.548C510.871,115.457 511.644,112.361 512.375,109.255C512.739,107.708 512.194,106.643 511.576,106.106C510.863,105.486 509.637,105.087 508.1,106.055C506.49,107.069 505.65,108.728 505.305,110.526C504.854,112.874 505.047,115.921 505.911,118.705C504.826,122.926 503.711,127.14 502.628,131.361C502.349,132.446 502.601,134.588 502.617,136.253Z" transform="translate(-480 -80)"/><path fill="#da4a54" d="M531.354,129.354C526.592,134.66 519.683,138 512,138C509.327,138 506.747,137.596 504.32,136.845C504.674,136.151 505.184,135.352 505.606,134.613C508.241,135.512 511.064,136 514,136C520.667,136 526.751,133.485 531.354,129.354ZM494.646,92.646C490.515,97.249 488,103.333 488,110C488,120.224 493.914,129.078 502.504,133.323C502.528,134.273 502.608,135.335 502.617,136.253C492.898,132.486 486,123.042 486,112C486,104.317 489.34,97.408 494.646,92.646Z" transform="translate(-480 -80)"/><path d="M502.436,136.719C502.59,136.779 502.765,136.758 502.901,136.664C503.037,136.569 503.118,136.414 503.117,136.248C503.101,134.627 502.841,132.542 503.112,131.486C504.196,127.264 505.31,123.05 506.396,118.829C506.419,118.74 506.416,118.645 506.389,118.557C505.55,115.855 505.358,112.898 505.796,110.62C506.115,108.958 506.878,107.416 508.366,106.478C509.64,105.676 510.657,105.969 511.248,106.483C511.768,106.935 512.195,107.839 511.889,109.14C511.158,112.243 510.386,115.337 509.596,118.424C509.569,118.529 509.577,118.64 509.619,118.74C509.905,119.429 510.251,120.08 510.656,120.667C511.725,122.217 513.247,123.288 515.293,123.114C519.266,122.776 521.955,119.37 523.202,115.431C524.487,111.371 524.274,106.648 522.023,103.685C518.896,99.567 513.623,98.47 508.977,99.657C504.341,100.842 500.279,104.322 499.605,109.534C499.235,112.394 500.395,115.251 501.796,117.675C502.211,118.392 501.965,119.31 501.249,119.724C500.532,120.139 499.614,119.894 499.199,119.177C497.479,116.201 496.175,112.661 496.63,109.149C497.471,102.648 502.452,98.228 508.235,96.751C514.008,95.276 520.526,96.753 524.412,101.87C527.188,105.525 527.647,111.329 526.062,116.336C524.44,121.463 520.718,125.663 515.547,126.103C512.858,126.332 510.7,125.279 509.083,123.502C508.959,123.367 508.771,123.309 508.593,123.353C508.415,123.397 508.275,123.535 508.229,123.713C507.427,126.793 506.621,129.872 505.832,132.956C505.59,133.901 504.487,135.417 503.874,136.618C503.807,136.749 503.802,136.903 503.859,137.039C503.917,137.175 504.031,137.279 504.172,137.323C506.646,138.088 509.275,138.5 512,138.5C526.626,138.5 538.5,126.626 538.5,112C538.5,97.374 526.626,85.5 512,85.5C497.374,85.5 485.5,97.374 485.5,112C485.5,123.254 492.531,132.88 502.436,136.719ZM505.052,136.54C507.261,137.165 509.591,137.5 512,137.5C526.074,137.5 537.5,126.074 537.5,112C537.5,97.926 526.074,86.5 512,86.5C497.926,86.5 486.5,97.926 486.5,112C486.5,122.564 492.937,131.635 502.098,135.503C502.042,133.945 501.898,132.192 502.143,131.237C503.216,127.06 504.318,122.891 505.392,118.716C504.538,115.887 504.357,112.81 504.814,110.431C505.185,108.498 506.102,106.723 507.833,105.632C509.633,104.498 511.069,105.002 511.905,105.728C512.621,106.351 513.284,107.577 512.862,109.369C512.143,112.424 511.384,115.469 510.606,118.508C510.852,119.075 511.143,119.612 511.479,120.099C512.344,121.353 513.554,122.258 515.208,122.118C518.782,121.814 521.127,118.673 522.249,115.129C523.434,111.385 523.303,107.023 521.227,104.29C518.353,100.505 513.494,99.535 509.225,100.626C504.971,101.713 501.216,104.879 500.597,109.662C500.255,112.305 501.367,114.935 502.662,117.174C503.353,118.369 502.944,119.899 501.749,120.59C500.555,121.281 499.024,120.872 498.334,119.677C496.506,116.518 495.156,112.75 495.638,109.02C496.535,102.09 501.823,97.357 507.987,95.782C514.136,94.211 521.069,95.815 525.209,101.266C528.16,105.151 528.701,111.315 527.016,116.638C525.268,122.161 521.203,126.626 515.632,127.1C512.939,127.329 510.716,126.423 508.976,124.813C508.247,127.609 507.517,130.405 506.801,133.204C506.581,134.063 505.703,135.382 505.052,136.54Z" transform="translate(-480 -80)"/></g></svg>