<svg xmlns="http://www.w3.org/2000/svg" fill-rule="evenodd" stroke-linejoin="round" stroke-miterlimit="2" clip-rule="evenodd" viewBox="0 0 64 64"><g><rect width="64" height="64" fill="none"/><path fill="#dd636e" d="M589,84C601.694,84 612,94.754 612,108C612,121.246 601.694,132 589,132C576.306,132 566,121.246 566,108C566,94.754 576.306,84 589,84ZM589,88C596.727,88 603,96.962 603,108C603,119.038 596.727,128 589,128C581.273,128 575,119.038 575,108C575,96.962 581.273,88 589,88Z" transform="translate(-560 -80)"/><path fill="#da4a54" d="M574.121,89.704C570.322,93.986 568,99.712 568,106C568,119.246 578.306,130 591,130C596.672,130 601.867,127.853 605.879,124.296C601.677,129.033 595.668,132 589,132C576.306,132 566,121.246 566,108C566,100.672 569.154,94.107 574.121,89.704Z" transform="translate(-560 -80)"/><path d="M589,83.5C576.036,83.5 565.5,94.472 565.5,108C565.5,121.528 576.036,132.5 589,132.5C601.964,132.5 612.5,121.528 612.5,108C612.5,94.472 601.964,83.5 589,83.5ZM589,84.5C601.424,84.5 611.5,95.036 611.5,108C611.5,120.964 601.424,131.5 589,131.5C576.576,131.5 566.5,120.964 566.5,108C566.5,95.036 576.576,84.5 589,84.5ZM589,87.5C585.776,87.5 582.789,88.984 580.372,91.516C576.821,95.235 574.5,101.233 574.5,108C574.5,114.767 576.821,120.765 580.372,124.484C582.789,127.016 585.776,128.5 589,128.5C592.224,128.5 595.211,127.016 597.628,124.484C601.179,120.765 603.5,114.767 603.5,108C603.5,101.233 601.179,95.235 597.628,91.516C595.211,88.984 592.224,87.5 589,87.5ZM589,88.5C591.958,88.5 594.687,89.884 596.904,92.206C600.305,95.768 602.5,101.521 602.5,108C602.5,114.479 600.305,120.232 596.904,123.794C594.687,126.116 591.958,127.5 589,127.5C586.042,127.5 583.313,126.116 581.096,123.794C577.695,120.232 575.5,114.479 575.5,108C575.5,101.521 577.695,95.768 581.096,92.206C583.313,89.884 586.042,88.5 589,88.5Z" transform="translate(-560 -80)"/><path fill="#da4a54" d="M581.47,116.697C581.025,116.949 580.845,117.499 581.056,117.964C581.272,118.47 581.559,119.103 581.775,119.58C581.96,119.987 582.392,120.222 582.835,120.156C584.173,119.912 586.979,119.576 588.207,120.478C593,124 596,140 608,140C616.1,140 618.214,132.261 618.724,129.321C618.768,129.039 618.689,128.752 618.507,128.532C618.326,128.312 618.058,128.181 617.773,128.171C617.038,128.143 616.089,128.11 615.424,128.087C614.976,128.072 614.573,128.357 614.437,128.784C614.069,129.948 613.032,132.099 610.414,132.07C604,132 602,118 593.636,114.902C588.895,113.145 583.471,115.622 581.47,116.697Z" transform="translate(-560.968 -80)"/><path d="M581.224,116.262C580.553,116.641 580.283,117.469 580.601,118.171C580.813,118.669 581.102,119.306 581.319,119.786C581.597,120.397 582.246,120.75 582.909,120.65L582.924,120.648C583.698,120.507 584.981,120.332 586.14,120.404C586.835,120.447 587.485,120.568 587.911,120.881C588.827,121.554 589.666,122.712 590.527,124.121C591.881,126.336 593.269,129.162 594.98,131.83C597.919,136.41 601.811,140.5 608,140.5C616.444,140.5 618.685,132.471 619.217,129.407C619.284,128.975 619.166,128.544 618.893,128.213C618.62,127.883 618.218,127.686 617.79,127.671C617.057,127.643 616.106,127.61 615.442,127.587C614.769,127.564 614.164,127.992 613.96,128.633C613.634,129.664 612.738,131.596 610.419,131.57C609.259,131.557 608.265,131.027 607.346,130.186C606.359,129.283 605.463,128.028 604.568,126.62C603.18,124.438 601.799,121.896 600.137,119.665C598.424,117.364 596.409,115.396 593.81,114.433C588.91,112.618 583.301,115.146 581.233,116.256L581.224,116.262ZM582.757,119.662C583.59,119.511 584.962,119.329 586.202,119.406C587.11,119.462 587.947,119.666 588.503,120.075C589.504,120.811 590.439,122.06 591.381,123.6C592.731,125.809 594.114,128.629 595.822,131.29C598.581,135.59 602.189,139.5 608,139.5C615.757,139.5 617.743,132.051 618.23,129.244C618.252,129.104 618.213,128.96 618.122,128.851C618.031,128.741 617.898,128.675 617.754,128.67C617.02,128.642 616.071,128.61 615.407,128.587C615.183,128.579 614.981,128.722 614.914,128.935C614.504,130.232 613.326,132.602 610.408,132.57C609.003,132.555 607.784,131.943 606.671,130.924C605.627,129.968 604.672,128.646 603.724,127.157C602.348,124.995 600.983,122.473 599.335,120.262C597.74,118.12 595.882,116.267 593.463,115.371C588.884,113.675 583.652,116.093 581.713,117.134C581.495,117.259 581.408,117.529 581.516,117.768C581.73,118.27 582.015,118.899 582.23,119.373C582.322,119.576 582.537,119.693 582.757,119.662Z" transform="translate(-560.968 -80)"/></g></svg>