<svg xmlns="http://www.w3.org/2000/svg" fill-rule="evenodd" stroke-linejoin="round" stroke-miterlimit="2" clip-rule="evenodd" viewBox="0 0 64 64"><g><rect width="64" height="64" fill="none"/><path fill="#9bb9c1" d="M438.294,88.323L433.883,100.673C433.512,101.712 432.367,102.255 431.327,101.883C430.288,101.512 429.745,100.367 430.117,99.327L435.117,85.327C435.454,84.383 436.438,83.834 437.419,84.044L451.419,87.044C452.498,87.276 453.187,88.34 452.956,89.419C452.724,90.498 451.66,91.187 450.581,90.956L438.294,88.323Z" transform="translate(-400 -76)"/><path d="M438.618,88.903L434.354,100.841C433.89,102.14 432.459,102.818 431.159,102.354C429.86,101.89 429.182,100.459 429.646,99.159C429.646,99.159 434.646,85.159 434.646,85.159C435.067,83.979 436.298,83.293 437.524,83.555C437.524,83.555 451.524,86.555 451.524,86.555C452.873,86.845 453.734,88.175 453.445,89.524C453.155,90.873 451.825,91.734 450.476,91.445L438.618,88.903ZM438.399,87.834C438.154,87.781 437.908,87.918 437.823,88.155L433.413,100.505C433.134,101.284 432.275,101.691 431.495,101.413C430.716,101.134 430.309,100.275 430.587,99.495C430.587,99.495 435.587,85.495 435.587,85.495C435.84,84.787 436.579,84.376 437.314,84.533C437.314,84.533 451.314,87.533 451.314,87.533C452.124,87.707 452.64,88.505 452.467,89.314C452.293,90.124 451.495,90.64 450.686,90.467C450.686,90.467 438.399,87.834 438.399,87.834Z" transform="translate(-400 -76)"/><circle cx="410" cy="106" r="6" fill="#c1d5e4" transform="translate(-400 -76)"/><path d="M410,99.5C406.413,99.5 403.5,102.413 403.5,106C403.5,109.587 406.413,112.5 410,112.5C413.587,112.5 416.5,109.587 416.5,106C416.5,102.413 413.587,99.5 410,99.5ZM410,100.5C413.036,100.5 415.5,102.964 415.5,106C415.5,109.036 413.036,111.5 410,111.5C406.964,111.5 404.5,109.036 404.5,106C404.5,102.964 406.964,100.5 410,100.5Z" transform="translate(-400 -76)"/><circle cx="410" cy="106" r="6" fill="#c1d5e4" transform="translate(-356 -76)"/><path d="M410,99.5C406.413,99.5 403.5,102.413 403.5,106C403.5,109.587 406.413,112.5 410,112.5C413.587,112.5 416.5,109.587 416.5,106C416.5,102.413 413.587,99.5 410,99.5ZM410,100.5C413.036,100.5 415.5,102.964 415.5,106C415.5,109.036 413.036,111.5 410,111.5C406.964,111.5 404.5,109.036 404.5,106C404.5,102.964 406.964,100.5 410,100.5Z" transform="translate(-356 -76)"/><ellipse cx="432" cy="114" fill="#dae7ef" rx="24" ry="18" transform="translate(-400 -76)"/><path fill="#c1d5e4" d="M413.835,106.241C411.409,109.053 410,112.404 410,116C410,125.935 420.754,134 434,134C441.255,134 447.762,131.581 452.165,127.76C447.888,132.717 440.451,136 432,136C418.754,136 408,127.935 408,118C408,113.507 410.2,109.396 413.835,106.241Z" transform="translate(-400 -80)"/><circle cx="440.5" cy="111.5" r="3.5" fill="#dd636e" transform="translate(-400 -76)"/><path d="M440.5,107.5C438.292,107.5 436.5,109.292 436.5,111.5C436.5,113.708 438.292,115.5 440.5,115.5C442.708,115.5 444.5,113.708 444.5,111.5C444.5,109.292 442.708,107.5 440.5,107.5ZM440.5,108.5C442.156,108.5 443.5,109.844 443.5,111.5C443.5,113.156 442.156,114.5 440.5,114.5C438.844,114.5 437.5,113.156 437.5,111.5C437.5,109.844 438.844,108.5 440.5,108.5Z" transform="translate(-400 -76)"/><circle cx="440.5" cy="111.5" r="3.5" fill="#dd636e" transform="translate(-417 -76)"/><path d="M440.5,107.5C438.292,107.5 436.5,109.292 436.5,111.5C436.5,113.708 438.292,115.5 440.5,115.5C442.708,115.5 444.5,113.708 444.5,111.5C444.5,109.292 442.708,107.5 440.5,107.5ZM440.5,108.5C442.156,108.5 443.5,109.844 443.5,111.5C443.5,113.156 442.156,114.5 440.5,114.5C438.844,114.5 437.5,113.156 437.5,111.5C437.5,109.844 438.844,108.5 440.5,108.5Z" transform="translate(-417 -76)"/><path fill="#dd636e" d="M422.971,123.715C428.614,127.101 435.386,127.101 441.029,123.715C441.976,123.147 442.283,121.918 441.715,120.971C441.147,120.024 439.918,119.717 438.971,120.285C434.614,122.899 429.386,122.899 425.029,120.285C424.082,119.717 422.853,120.024 422.285,120.971C421.717,121.918 422.024,123.147 422.971,123.715Z" transform="translate(-400 -76)"/><path d="M422.714,124.144C428.518,127.626 435.482,127.626 441.286,124.144C442.469,123.434 442.854,121.897 442.144,120.714C441.434,119.531 439.897,119.146 438.714,119.856C434.518,122.374 429.482,122.374 425.286,119.856C424.103,119.146 422.566,119.531 421.856,120.714C421.146,121.897 421.531,123.434 422.714,124.144ZM423.228,123.286C422.518,122.86 422.288,121.938 422.714,121.228C423.14,120.518 424.062,120.288 424.772,120.714C429.289,123.424 434.711,123.424 439.228,120.714C439.938,120.288 440.86,120.518 441.286,121.228C441.712,121.938 441.482,122.86 440.772,123.286C435.289,126.576 428.711,126.576 423.228,123.286Z" transform="translate(-400 -76)"/><circle cx="451.5" cy="89.5" r="4.5" fill="#dae7ef" transform="translate(-450.667 -86.444) scale(1.11111)"/><path d="M451.5,84.55C448.768,84.55 446.55,86.768 446.55,89.5C446.55,92.232 448.768,94.45 451.5,94.45C454.232,94.45 456.45,92.232 456.45,89.5C456.45,86.768 454.232,84.55 451.5,84.55ZM451.5,85.45C453.735,85.45 455.55,87.265 455.55,89.5C455.55,91.735 453.735,93.55 451.5,93.55C449.265,93.55 447.45,91.735 447.45,89.5C447.45,87.265 449.265,85.45 451.5,85.45Z" transform="translate(-450.667 -86.444) scale(1.11111)"/><path d="M432,95.5C418.445,95.5 407.5,103.834 407.5,114C407.5,124.166 418.445,132.5 432,132.5C445.555,132.5 456.5,124.166 456.5,114C456.5,103.834 445.555,95.5 432,95.5ZM432,96.5C444.937,96.5 455.5,104.297 455.5,114C455.5,123.703 444.937,131.5 432,131.5C419.063,131.5 408.5,123.703 408.5,114C408.5,104.297 419.063,96.5 432,96.5Z" transform="translate(-400 -76)"/></g></svg>