<svg xmlns="http://www.w3.org/2000/svg" fill-rule="evenodd" stroke-linejoin="round" stroke-miterlimit="2" clip-rule="evenodd" viewBox="0 0 64 64"><g><rect width="64" height="64" fill="none"/><path fill="#dd636e" d="M511.156,246.598C511.275,246.232 511.615,245.985 512,245.985C512.385,245.985 512.725,246.232 512.844,246.598C514.321,251.144 517.292,260.288 518.087,262.734C518.206,263.1 518.547,263.348 518.931,263.348C521.503,263.348 531.118,263.348 535.898,263.348C536.282,263.348 536.623,263.595 536.742,263.961C536.861,264.327 536.731,264.727 536.419,264.953C532.553,267.762 524.774,273.414 522.693,274.926C522.382,275.152 522.252,275.553 522.371,275.918C523.166,278.364 526.137,287.509 527.614,292.054C527.733,292.42 527.602,292.821 527.291,293.047C526.98,293.273 526.559,293.273 526.248,293.047C522.381,290.238 514.602,284.586 512.522,283.074C512.211,282.848 511.789,282.848 511.478,283.074C509.398,284.586 501.619,290.238 497.752,293.047C497.441,293.273 497.02,293.273 496.709,293.047C496.398,292.821 496.267,292.42 496.386,292.054C497.863,287.509 500.834,278.364 501.629,275.918C501.748,275.553 501.618,275.152 501.307,274.926C499.226,273.414 491.447,267.762 487.581,264.953C487.269,264.727 487.139,264.327 487.258,263.961C487.377,263.595 487.718,263.348 488.102,263.348C492.882,263.348 502.497,263.348 505.069,263.348C505.453,263.348 505.794,263.1 505.913,262.734C506.708,260.288 509.679,251.144 511.156,246.598Z" transform="translate(-544.802 -271.414) scale(1.12657)"/><path fill="#da4a54" d="M486.072,265.265C486.11,265.302 486.15,265.337 486.194,265.369C490.55,268.534 499.314,274.901 501.658,276.604C502.008,276.859 502.155,277.31 502.021,277.722C501.126,280.478 497.778,290.78 496.114,295.9C495.981,296.312 496.127,296.764 496.478,297.018C496.828,297.273 497.303,297.273 497.653,297.018C502.009,293.854 510.773,287.487 513.117,285.784C513.467,285.529 513.942,285.529 514.292,285.784L529.289,296.68L529.59,297.605C529.724,298.017 529.577,298.468 529.227,298.723C528.876,298.977 528.402,298.977 528.051,298.723C523.695,295.558 514.932,289.191 512.588,287.488C512.237,287.233 511.763,287.233 511.412,287.488C509.068,289.191 500.305,295.558 495.949,298.723C495.598,298.977 495.124,298.977 494.773,298.723C494.423,298.468 494.276,298.017 494.41,297.605C496.074,292.484 499.421,282.182 500.317,279.426C500.45,279.014 500.304,278.563 499.953,278.308C497.609,276.605 488.846,270.238 484.49,267.074C484.139,266.819 483.993,266.368 484.127,265.956C484.26,265.544 484.644,265.265 485.078,265.265L486.072,265.265ZM505.472,263.56L511.049,246.395C511.183,245.983 511.567,245.704 512,245.704C512.14,245.704 512.275,245.733 512.397,245.787L506.847,262.869C506.713,263.281 506.329,263.56 505.896,263.56L505.472,263.56Z" transform="translate(-480 -240)"/><path d="M510.734,246.461L505.491,262.597C505.431,262.78 505.261,262.904 505.069,262.904C502.497,262.904 492.882,262.904 488.102,262.904C487.525,262.904 487.014,263.275 486.836,263.824C486.658,264.372 486.853,264.973 487.32,265.312C491.186,268.122 498.965,273.773 501.046,275.285C501.201,275.398 501.266,275.598 501.207,275.781C500.412,278.227 497.441,287.372 495.964,291.917C495.786,292.466 495.981,293.067 496.448,293.406C496.914,293.745 497.546,293.745 498.013,293.406C501.88,290.597 509.658,284.945 511.739,283.433C511.895,283.32 512.105,283.32 512.261,283.433C514.342,284.945 522.12,290.597 525.987,293.406C526.454,293.745 527.086,293.745 527.552,293.406C528.019,293.067 528.214,292.466 528.036,291.917C526.559,287.372 523.588,278.227 522.793,275.781C522.734,275.598 522.799,275.398 522.954,275.285C525.035,273.773 532.814,268.122 536.68,265.312C537.147,264.973 537.342,264.372 537.164,263.824C536.986,263.275 536.475,262.904 535.898,262.904C531.118,262.904 521.503,262.904 518.931,262.904C518.739,262.904 518.569,262.78 518.509,262.597C517.714,260.151 514.743,251.006 513.266,246.461C513.088,245.912 512.577,245.541 512,245.541C511.423,245.541 510.912,245.912 510.734,246.461ZM511.578,246.735C511.637,246.552 511.808,246.429 512,246.429C512.192,246.429 512.363,246.552 512.422,246.735C513.899,251.281 516.87,260.425 517.665,262.871C517.843,263.42 518.354,263.791 518.931,263.791C521.503,263.791 531.118,263.791 535.898,263.791C536.09,263.791 536.26,263.915 536.32,264.098C536.379,264.281 536.314,264.481 536.159,264.594C532.292,267.403 524.513,273.055 522.432,274.567C521.966,274.906 521.771,275.507 521.949,276.055C522.744,278.501 525.715,287.646 527.192,292.191C527.251,292.374 527.186,292.575 527.03,292.688C526.875,292.801 526.664,292.801 526.509,292.688C522.642,289.878 514.863,284.227 512.783,282.715C512.316,282.376 511.684,282.376 511.217,282.715C509.137,284.227 501.358,289.878 497.491,292.688C497.336,292.801 497.125,292.801 496.97,292.688C496.814,292.575 496.749,292.374 496.808,292.191C498.285,287.646 501.256,278.501 502.051,276.055C502.229,275.507 502.034,274.906 501.568,274.567C499.487,273.055 491.708,267.403 487.841,264.594C487.686,264.481 487.621,264.281 487.68,264.098C487.74,263.915 487.91,263.791 488.102,263.791C492.882,263.791 502.497,263.791 505.069,263.791C505.646,263.791 506.157,263.42 506.335,262.871L511.578,246.735Z" transform="translate(-544.802 -271.414) scale(1.12657)"/></g></svg>