<svg xmlns="http://www.w3.org/2000/svg" fill-rule="evenodd" stroke-linejoin="round" stroke-miterlimit="2" clip-rule="evenodd" viewBox="0 0 64 64"><g><rect width="64" height="64" fill="none"/><path fill="#dd636e" d="M84.008,121.631C83.819,117.573 86.882,111.382 92.19,105.837C99.252,98.46 107.63,95.003 110.888,98.122C112.573,99.735 112.559,102.795 111.176,106.394C117.242,103.251 122.776,102.657 124.805,105.33C125.913,106.789 125.801,108.994 124.713,111.507C129.794,114.073 133,117.824 133,122C133,129.727 122.022,136 108.5,136C94.978,136 84,129.727 84,122C84,121.876 84.003,121.753 84.008,121.631Z" transform="translate(-80 -80)"/><path fill="#da4a54" d="M125.525,111.937C130.133,114.483 133,118.052 133,122C133,129.727 122.022,136 108.5,136C100.23,136 92.912,133.653 88.475,130.064C92.884,132.5 98.888,134 105.5,134C119.022,134 130,127.727 130,120C130,116.999 128.344,114.217 125.525,111.937Z" transform="translate(-80 -80)"/><ellipse cx="106.631" cy="121.5" fill="#f9f6f9" rx="16.631" ry="10.5" transform="matrix(.99302 -.11792 .11855 .99836 -93.729 -68.06)"/><path d="M106.631,110.503C100.987,110.503 95.986,112.253 92.883,114.925C90.746,116.765 89.5,119.045 89.5,121.5C89.5,123.955 90.746,126.235 92.883,128.075C95.986,130.747 100.987,132.497 106.631,132.497C112.274,132.497 117.276,130.747 120.378,128.075C122.516,126.235 123.762,123.955 123.762,121.5C123.762,119.045 122.516,116.765 120.378,114.925C117.276,112.253 112.274,110.503 106.631,110.503ZM106.631,111.497C112.002,111.497 116.772,113.134 119.724,115.677C121.623,117.311 122.762,119.319 122.762,121.5C122.762,123.681 121.623,125.689 119.724,127.323C116.772,129.866 112.002,131.503 106.631,131.503C101.26,131.503 96.49,129.866 93.538,127.323C91.639,125.689 90.5,123.681 90.5,121.5C90.5,119.319 91.639,117.311 93.538,115.677C96.49,113.134 101.26,111.497 106.631,111.497Z" transform="matrix(.99302 -.11792 .11855 .99836 -93.729 -68.06)"/><path fill="#fcb860" d="M141.554,109.538C141.919,108.146 142.104,106.713 142.104,105.273C142.104,95.984 134.562,88.443 125.273,88.443C124.581,88.443 123.89,88.486 123.203,88.571C122.05,88.714 121.231,89.765 121.374,90.917C121.516,92.07 122.568,92.889 123.72,92.746C124.235,92.683 124.754,92.65 125.273,92.65C132.24,92.65 137.896,98.307 137.896,105.273C137.896,106.353 137.758,107.428 137.484,108.472C137.19,109.595 137.863,110.746 138.986,111.04C140.109,111.335 141.26,110.662 141.554,109.538Z" transform="matrix(.95066 0 0 .95066 -75.092 -76.079)"/><path d="M142.063,109.672C142.439,108.236 142.63,106.758 142.63,105.273C142.63,95.694 134.853,87.917 125.273,87.917C124.559,87.917 123.846,87.961 123.138,88.049C121.697,88.227 120.673,89.542 120.852,90.982C121.03,92.422 122.345,93.447 123.785,93.268C124.279,93.207 124.776,93.176 125.273,93.176C131.95,93.176 137.37,98.597 137.37,105.273C137.37,106.308 137.238,107.338 136.975,108.339C136.608,109.743 137.449,111.181 138.853,111.549C140.257,111.917 141.695,111.076 142.063,109.672ZM141.046,109.405C140.825,110.248 139.962,110.752 139.119,110.532C138.277,110.311 137.772,109.448 137.993,108.605C138.278,107.518 138.422,106.398 138.422,105.273C138.422,98.016 132.53,92.125 125.273,92.125C124.733,92.125 124.192,92.158 123.656,92.224C122.791,92.332 122.003,91.717 121.896,90.853C121.788,89.988 122.403,89.2 123.267,89.093C123.933,89.01 124.603,88.969 125.273,88.969C134.272,88.969 141.578,96.275 141.578,105.273C141.578,106.668 141.399,108.056 141.046,109.405Z" transform="matrix(.95066 0 0 .95066 -75.092 -76.079)"/><path fill="#fcb860" d="M144.268,110.249C144.693,108.625 144.909,106.953 144.909,105.273C144.909,94.436 136.11,85.638 125.273,85.638C124.466,85.638 123.659,85.688 122.857,85.787C120.169,86.12 118.256,88.574 118.59,91.263C118.923,93.951 121.377,95.863 124.065,95.53C124.466,95.48 124.87,95.456 125.273,95.456C130.692,95.456 135.091,99.855 135.091,105.273C135.091,106.113 134.983,106.949 134.771,107.761C134.084,110.382 135.654,113.067 138.275,113.754C140.896,114.441 143.581,112.87 144.268,110.249Z" transform="matrix(.40742 0 0 .40742 -7.04 -18.89)"/><path d="M145.455,110.56C145.907,108.834 146.136,107.058 146.136,105.273C146.136,93.759 136.788,84.411 125.273,84.411C124.415,84.411 123.558,84.463 122.706,84.569C119.346,84.986 116.955,88.053 117.372,91.414C117.789,94.774 120.856,97.165 124.216,96.748C124.567,96.705 124.92,96.683 125.273,96.683C130.015,96.683 133.864,100.532 133.864,105.273C133.864,106.008 133.77,106.74 133.583,107.45C132.725,110.726 134.688,114.083 137.964,114.941C141.24,115.799 144.597,113.836 145.455,110.56ZM143.081,109.938C142.566,111.904 140.552,113.082 138.586,112.567C136.621,112.052 135.443,110.038 135.958,108.072C136.197,107.159 136.318,106.218 136.318,105.273C136.318,99.177 131.369,94.228 125.273,94.228C124.819,94.228 124.365,94.256 123.914,94.312C121.898,94.562 120.058,93.128 119.808,91.112C119.558,89.095 120.992,87.255 123.008,87.005C123.76,86.912 124.516,86.865 125.273,86.865C135.433,86.865 143.682,95.113 143.682,105.273C143.682,106.848 143.48,108.415 143.081,109.938Z" transform="matrix(.40742 0 0 .40742 -7.04 -18.89)"/><ellipse cx="105" cy="122.5" fill="#738b95" rx="9" ry="7.5" transform="matrix(.9353 -.2459 .2433 .92541 -102.604 -46.83)"/><path d="M105,114.477C99.723,114.477 95.483,118.102 95.483,122.5C95.483,126.898 99.723,130.523 105,130.523C110.277,130.523 114.517,126.898 114.517,122.5C114.517,118.102 110.277,114.477 105,114.477ZM105,115.523C109.657,115.523 113.483,118.619 113.483,122.5C113.483,126.381 109.657,129.477 105,129.477C100.343,129.477 96.517,126.381 96.517,122.5C96.517,118.619 100.343,115.523 105,115.523Z" transform="matrix(.9353 -.2459 .2433 .92541 -102.604 -46.83)"/><ellipse cx="105" cy="122.5" fill="#f9f6f9" rx="9" ry="7.5" transform="matrix(.27004 -.071 .07302 .27773 -14.807 15.598)"/><path d="M105,113.259C98.974,113.259 94.209,117.478 94.209,122.5C94.209,127.522 98.974,131.741 105,131.741C111.026,131.741 115.791,127.522 115.791,122.5C115.791,117.478 111.026,113.259 105,113.259ZM105,116.741C108.91,116.741 112.209,119.242 112.209,122.5C112.209,125.758 108.91,128.259 105,128.259C101.09,128.259 97.791,125.758 97.791,122.5C97.791,119.242 101.09,116.741 105,116.741Z" transform="matrix(.27004 -.071 .07302 .27773 -14.807 15.598)"/><ellipse cx="105" cy="122.5" fill="#f9f6f9" rx="9" ry="7.5" transform="matrix(.12613 -.03316 .0341 .12972 9.742 26.595)"/><path d="M105,111.272C97.765,111.272 92.166,116.471 92.166,122.5C92.166,128.529 97.765,133.728 105,133.728C112.235,133.728 117.834,128.529 117.834,122.5C117.834,116.471 112.235,111.272 105,111.272ZM105,118.728C107.707,118.728 110.166,120.244 110.166,122.5C110.166,124.756 107.707,126.272 105,126.272C102.293,126.272 99.834,124.756 99.834,122.5C99.834,120.244 102.293,118.728 105,118.728Z" transform="matrix(.12613 -.03316 .0341 .12972 9.742 26.595)"/><path d="M83.508,121.631C83.327,117.483 86.414,111.147 91.829,105.491C96.14,100.988 100.941,97.932 104.802,96.883C107.537,96.141 109.824,96.412 111.233,97.761C111.985,98.48 112.442,99.452 112.611,100.623C112.806,101.977 112.61,103.609 112.05,105.403C115.371,103.833 118.483,103.048 120.898,103.145C122.814,103.222 124.311,103.852 125.203,105.028C126.337,106.521 126.35,108.737 125.351,111.274C130.388,113.934 133.5,117.776 133.5,122C133.5,125.233 131.688,128.237 128.578,130.66C124.048,134.191 116.741,136.5 108.5,136.5C100.259,136.5 92.952,134.191 88.422,130.66C85.312,128.237 83.5,125.233 83.5,122C83.5,121.876 83.503,121.753 83.508,121.631ZM84.508,121.654C84.509,121.639 84.509,121.623 84.508,121.608C84.322,117.639 87.36,111.606 92.552,106.183C96.715,101.834 101.336,98.861 105.064,97.848C107.388,97.217 109.345,97.337 110.542,98.483C111.296,99.205 111.652,100.258 111.683,101.525C111.716,102.887 111.374,104.485 110.709,106.214C110.635,106.408 110.688,106.628 110.842,106.766C110.997,106.905 111.221,106.933 111.406,106.838C114.953,105 118.31,104.042 120.858,104.144C122.427,104.207 123.676,104.669 124.406,105.632C125.425,106.974 125.254,108.998 124.254,111.309C124.149,111.552 124.252,111.835 124.488,111.954C129.371,114.42 132.5,117.987 132.5,122C132.5,124.949 130.799,127.661 127.963,129.872C123.573,133.292 116.485,135.5 108.5,135.5C100.515,135.5 93.427,133.292 89.037,129.872C86.201,127.661 84.5,124.949 84.5,122C84.5,121.884 84.503,121.768 84.508,121.654Z" transform="translate(-80 -80)"/></g></svg>