<svg xmlns="http://www.w3.org/2000/svg" fill-rule="evenodd" stroke-linejoin="round" stroke-miterlimit="2" clip-rule="evenodd" viewBox="0 0 64 64"><g><rect width="64" height="64" fill="none"/><circle cx="112" cy="192" r="24" fill="#4891d3" transform="matrix(.58333 0 0 .58333 -47.333 -94)"/><path fill="#57b7eb" d="M87.153,169.153C89.72,166.009 93.627,164 98,164C105.727,164 112,170.273 112,178C112,182.373 109.991,186.28 106.847,188.847C108.818,186.434 110,183.354 110,180C110,172.273 103.727,166 96,166C92.646,166 89.566,167.182 87.153,169.153Z" transform="translate(-80 -160)"/><path d="M112,167.143C98.281,167.143 87.143,178.281 87.143,192C87.143,205.719 98.281,216.857 112,216.857C125.719,216.857 136.857,205.719 136.857,192C136.857,178.281 125.719,167.143 112,167.143ZM112,168.857C124.773,168.857 135.143,179.227 135.143,192C135.143,204.773 124.773,215.143 112,215.143C99.227,215.143 88.857,204.773 88.857,192C88.857,179.227 99.227,168.857 112,168.857Z" transform="matrix(.58333 0 0 .58333 -47.333 -94)"/><circle cx="112" cy="192" r="24" fill="#4891d3" transform="matrix(.58333 0 0 .58333 -19.333 -66)"/><path fill="#57b7eb" d="M87.153,169.153C89.72,166.009 93.627,164 98,164C105.727,164 112,170.273 112,178C112,182.373 109.991,186.28 106.847,188.847C108.818,186.434 110,183.354 110,180C110,172.273 103.727,166 96,166C92.646,166 89.566,167.182 87.153,169.153Z" transform="translate(-52 -132)"/><path d="M112,167.143C98.281,167.143 87.143,178.281 87.143,192C87.143,205.719 98.281,216.857 112,216.857C125.719,216.857 136.857,205.719 136.857,192C136.857,178.281 125.719,167.143 112,167.143ZM112,168.857C124.773,168.857 135.143,179.227 135.143,192C135.143,204.773 124.773,215.143 112,215.143C99.227,215.143 88.857,204.773 88.857,192C88.857,179.227 99.227,168.857 112,168.857Z" transform="matrix(.58333 0 0 .58333 -19.333 -66)"/><circle cx="112" cy="192" r="24" fill="#57b7eb" transform="translate(-89.333 -176) scale(1.08333)"/><path fill="#4891d3" d="M94.646,172.646C90.515,177.249 88,183.333 88,190C88,204.35 99.65,216 114,216C120.667,216 126.751,213.485 131.354,209.354C126.592,214.66 119.683,218 112,218C97.65,218 86,206.35 86,192C86,184.317 89.34,177.408 94.646,172.646Z" transform="translate(-80 -160)"/><path fill="#f9f6f9" d="M125.322,183.044C123.201,180.261 117.957,178.286 112,178.286C107.336,178.286 103.223,179.469 100.659,181.217C98.701,182.553 97.6,184.219 97.6,186C97.6,188.315 99.161,189.865 102.094,191.082C104.305,191.999 107.452,192.724 111.241,193.626C114.652,194.438 117.505,195.057 119.494,195.882C120.762,196.409 121.6,197 121.6,198C121.6,198.868 120.981,199.652 120.026,200.303C118.221,201.534 115.284,202.286 112,202.286C107.997,202.286 104.319,201.187 102.894,199.317C102.261,198.486 100.802,198.178 99.639,198.63C98.476,199.083 98.045,200.125 98.678,200.956C100.799,203.739 106.043,205.714 112,205.714C116.664,205.714 120.777,204.531 123.341,202.783C125.299,201.447 126.4,199.781 126.4,198C126.4,195.685 124.839,194.135 121.906,192.918C119.695,192.001 116.548,191.276 112.759,190.374C109.348,189.562 106.495,188.943 104.506,188.118C103.238,187.591 102.4,187 102.4,186C102.4,185.132 103.019,184.348 103.974,183.697C105.779,182.466 108.716,181.714 112,181.714C116.003,181.714 119.681,182.813 121.106,184.683C121.739,185.514 123.198,185.822 124.361,185.37C125.524,184.917 125.955,183.875 125.322,183.044Z" transform="matrix(.83333 0 0 1.16667 -61.333 -192)"/><path d="M125.849,182.839C123.641,179.942 118.201,177.857 112,177.857C107.164,177.857 102.903,179.095 100.245,180.907C98.161,182.329 97,184.104 97,186C97,188.479 98.651,190.149 101.793,191.453C104.031,192.381 107.215,193.12 111.051,194.033C114.415,194.834 117.231,195.439 119.193,196.253C120.253,196.693 121,197.164 121,198C121,198.754 120.441,199.427 119.612,199.993C117.901,201.159 115.112,201.857 112,201.857C108.241,201.857 104.76,200.868 103.421,199.112C102.63,198.073 100.806,197.689 99.352,198.254C97.898,198.819 97.36,200.122 98.151,201.161C100.359,204.058 105.799,206.143 112,206.143C116.836,206.143 121.097,204.905 123.755,203.093C125.839,201.671 127,199.896 127,198C127,195.521 125.349,193.851 122.207,192.547C119.969,191.619 116.785,190.88 112.949,189.967C109.585,189.166 106.769,188.561 104.807,187.747C103.747,187.307 103,186.836 103,186C103,185.246 103.559,184.573 104.388,184.007C106.099,182.841 108.888,182.143 112,182.143C115.759,182.143 119.24,183.132 120.579,184.888C121.37,185.927 123.194,186.311 124.648,185.746C126.102,185.181 126.64,183.878 125.849,182.839ZM124.795,183.249C125.27,183.872 124.947,184.654 124.074,184.993C123.202,185.332 122.108,185.102 121.633,184.478C120.121,182.494 116.247,181.286 112,181.286C108.544,181.286 105.46,182.092 103.56,183.387C102.48,184.124 101.8,185.018 101.8,186C101.8,187.164 102.729,187.876 104.204,188.488C106.222,189.325 109.111,189.957 112.569,190.78C116.311,191.671 119.422,192.383 121.604,193.289C124.329,194.419 125.8,195.85 125.8,198C125.8,199.667 124.759,201.223 122.926,202.473C120.458,204.156 116.491,205.286 112,205.286C106.288,205.286 101.239,203.42 99.205,200.751C98.73,200.128 99.053,199.346 99.926,199.007C100.798,198.668 101.892,198.898 102.367,199.522C103.879,201.506 107.753,202.714 112,202.714C115.456,202.714 118.54,201.908 120.44,200.613C121.52,199.876 122.2,198.982 122.2,198C122.2,196.836 121.271,196.124 119.796,195.512C117.778,194.675 114.889,194.043 111.431,193.22C107.689,192.329 104.578,191.617 102.396,190.711C99.671,189.581 98.2,188.15 98.2,186C98.2,184.333 99.241,182.777 101.074,181.527C103.542,179.844 107.509,178.714 112,178.714C117.712,178.714 122.761,180.58 124.795,183.249Z" transform="matrix(.83333 0 0 1.16667 -61.333 -192)"/><path d="M112,167.538C98.499,167.538 87.538,178.499 87.538,192C87.538,205.501 98.499,216.462 112,216.462C125.501,216.462 136.462,205.501 136.462,192C136.462,178.499 125.501,167.538 112,167.538ZM112,168.462C124.991,168.462 135.538,179.009 135.538,192C135.538,204.991 124.991,215.538 112,215.538C99.009,215.538 88.462,204.991 88.462,192C88.462,179.009 99.009,168.462 112,168.462Z" transform="translate(-89.333 -176) scale(1.08333)"/></g></svg>