<svg xmlns="http://www.w3.org/2000/svg" fill-rule="evenodd" stroke-linejoin="round" stroke-miterlimit="2" clip-rule="evenodd" viewBox="0 0 64 64"><g><rect width="64" height="64" fill="none"/><path fill="#ffe07d" d="M218,94C218,89.585 214.415,86 210,86L174,86C169.585,86 166,89.585 166,94L166,130C166,134.415 169.585,138 174,138L210,138C214.415,138 218,134.415 218,130L218,94Z" transform="translate(-160 -80)"/><path fill="#ffd064" d="M169.433,87.433C168.53,88.728 168,90.303 168,92L168,128C168,132.415 171.585,136 176,136L212,136C213.697,136 215.272,135.47 216.567,134.567C215.121,136.642 212.718,138 210,138L174,138C169.585,138 166,134.415 166,130L166,94C166,91.282 167.358,88.879 169.433,87.433Z" transform="translate(-160 -80)"/><path fill="#f9f6f9" d="M176,104.54L176,100C176,91.163 183.163,84 192,84L192,84C200.837,84 208,91.163 208,100L208,104.54L208.705,104.133C210.594,103.043 213.008,103.69 214.098,105.578C214.099,105.579 214.1,105.58 214.1,105.581C215.19,107.469 214.543,109.884 212.655,110.974L208,113.662L208,114C208,119 219.167,123.5 220,126C220.833,128.5 214.5,129.5 213,131C212.13,131.87 211.971,134.612 211,135C209.333,135.667 205.639,134.306 203,135C199.833,135.833 195.667,140 192,140C188.333,140 184.167,135.833 181,135C178.361,134.306 174.667,135.667 173,135C172.029,134.612 171.87,131.87 171,131C169.5,129.5 163.167,128.5 164,126C164.833,123.5 176,119 176,114L176,113.662L171.345,110.974C169.457,109.884 168.81,107.469 169.9,105.581C169.9,105.58 169.901,105.579 169.902,105.578C170.992,103.69 173.406,103.043 175.295,104.133L176,104.54Z" transform="matrix(.71429 0 0 .71429 -105.143 -48)"/><path d="M175.3,103.346L175.3,100C175.3,90.777 182.777,83.3 192,83.3L192,83.3C201.223,83.3 208.7,90.777 208.7,100L208.7,103.346C210.864,102.325 213.487,103.118 214.705,105.228C214.705,105.229 214.706,105.23 214.706,105.231C215.99,107.454 215.228,110.297 213.005,111.58L208.701,114.065C208.721,114.9 209.122,115.711 209.725,116.504C210.769,117.877 212.416,119.173 214.094,120.367C216.144,121.828 218.244,123.136 219.465,124.222C220.099,124.785 220.511,125.319 220.664,125.779C221.012,126.822 220.554,127.717 219.557,128.46C218.517,129.236 216.829,129.859 215.405,130.459C214.591,130.802 213.869,131.121 213.495,131.495C213.342,131.648 213.232,131.886 213.124,132.154C212.906,132.694 212.733,133.344 212.533,133.909C212.372,134.362 212.19,134.767 211.976,135.061C211.77,135.346 211.527,135.543 211.26,135.65C210.512,135.949 209.403,135.919 208.149,135.784C206.553,135.611 204.685,135.28 203.178,135.677C201.647,136.08 199.883,137.304 198.05,138.412C196.037,139.628 193.946,140.7 192,140.7C190.054,140.7 187.963,139.628 185.95,138.412C184.117,137.304 182.353,136.08 180.822,135.677C179.315,135.28 177.447,135.611 175.851,135.784C174.597,135.919 173.488,135.949 172.74,135.65C172.473,135.543 172.23,135.346 172.024,135.061C171.81,134.767 171.628,134.362 171.467,133.909C171.267,133.344 171.094,132.694 170.876,132.154C170.768,131.886 170.658,131.648 170.505,131.495C170.131,131.121 169.409,130.802 168.595,130.459C167.171,129.859 165.483,129.236 164.443,128.46C163.446,127.717 162.988,126.822 163.336,125.779C163.489,125.319 163.901,124.785 164.535,124.222C165.756,123.136 167.856,121.828 169.906,120.367C171.584,119.173 173.231,117.877 174.275,116.504C174.878,115.711 175.279,114.9 175.299,114.065L170.995,111.58C168.772,110.297 168.01,107.454 169.294,105.231C169.294,105.23 169.295,105.229 169.295,105.228C170.513,103.118 173.136,102.325 175.3,103.346ZM175.65,105.146C175.867,105.271 176.133,105.271 176.35,105.146C176.567,105.021 176.7,104.79 176.7,104.54L176.7,100C176.7,91.55 183.55,84.7 192,84.7L192,84.7C200.45,84.7 207.3,91.55 207.3,100C207.3,100 207.3,104.54 207.3,104.54C207.3,104.79 207.433,105.021 207.65,105.146C207.867,105.271 208.133,105.271 208.35,105.146L209.055,104.739C210.609,103.842 212.595,104.374 213.492,105.928C213.493,105.929 213.493,105.93 213.494,105.931C214.391,107.484 213.859,109.471 212.305,110.368C212.305,110.368 207.65,113.055 207.65,113.055C207.433,113.18 207.3,113.411 207.3,113.662L207.3,114C207.3,115.142 207.787,116.27 208.611,117.352C209.731,118.823 211.484,120.227 213.281,121.508C215.009,122.738 216.774,123.855 217.998,124.822C218.68,125.359 219.198,125.806 219.336,126.221C219.446,126.551 219.288,126.821 219.035,127.071C218.77,127.333 218.406,127.569 217.994,127.793C216.937,128.367 215.577,128.85 214.468,129.338C213.621,129.71 212.911,130.099 212.505,130.505C212.01,131 211.678,132.009 211.371,132.967C211.248,133.35 211.126,133.721 210.976,134.017C210.9,134.165 210.851,134.306 210.74,134.35C210.154,134.584 209.282,134.498 208.299,134.392C206.541,134.202 204.482,133.886 202.822,134.323C201.186,134.754 199.284,136.03 197.325,137.213C195.546,138.289 193.721,139.3 192,139.3C190.279,139.3 188.454,138.289 186.675,137.213C184.716,136.03 182.814,134.754 181.178,134.323C179.518,133.886 177.459,134.202 175.701,134.392C174.718,134.498 173.846,134.584 173.26,134.35C173.149,134.306 173.1,134.165 173.024,134.017C172.874,133.721 172.752,133.35 172.629,132.967C172.322,132.009 171.99,131 171.495,130.505C171.089,130.099 170.379,129.71 169.532,129.338C168.423,128.85 167.063,128.367 166.006,127.793C165.594,127.569 165.23,127.333 164.965,127.071C164.712,126.821 164.554,126.551 164.664,126.221C164.802,125.806 165.32,125.359 166.002,124.822C167.226,123.855 168.991,122.738 170.719,121.508C172.516,120.227 174.269,118.823 175.389,117.352C176.213,116.27 176.7,115.142 176.7,114L176.7,113.662C176.7,113.411 176.567,113.18 176.35,113.055L171.695,110.368C170.141,109.471 169.609,107.484 170.506,105.931C170.507,105.93 170.507,105.929 170.508,105.928C171.405,104.374 173.391,103.842 174.945,104.739C174.945,104.739 175.65,105.146 175.65,105.146Z" transform="matrix(.71429 0 0 .71429 -105.143 -48)"/><path d="M218.5,94C218.5,89.309 214.691,85.5 210,85.5L174,85.5C169.309,85.5 165.5,89.309 165.5,94C165.5,94 165.5,130 165.5,130C165.5,134.691 169.309,138.5 174,138.5L210,138.5C214.691,138.5 218.5,134.691 218.5,130C218.5,130 218.5,94 218.5,94ZM217.5,94L217.5,130C217.5,134.139 214.139,137.5 210,137.5C210,137.5 174,137.5 174,137.5C169.861,137.5 166.5,134.139 166.5,130L166.5,94C166.5,89.861 169.861,86.5 174,86.5C174,86.5 210,86.5 210,86.5C214.139,86.5 217.5,89.861 217.5,94Z" transform="translate(-160 -80)"/></g></svg>