<svg xmlns="http://www.w3.org/2000/svg" fill-rule="evenodd" stroke-linejoin="round" stroke-miterlimit="2" clip-rule="evenodd" viewBox="0 0 64 64"><g><rect width="64" height="64" fill="none"/><path fill="#fcaa52" d="M673,261.742C673,261.337 673.245,260.973 673.62,260.822C674.978,260.293 676.455,260 678,260C684.187,260 689.286,264.692 689.931,270.708C690.858,270.255 691.899,270 693,270C696.863,270 700,273.137 700,277C700,280.863 696.863,284 693,284L674.982,284C674.456,284 673.952,283.791 673.581,283.419C673.209,283.048 673,282.544 673,282.018C673,277.138 673,264.725 673,261.742Z" transform="translate(-646.306 -242.563) scale(1.00901)"/><path fill="#fcb860" d="M672.757,262.331L672.757,261.536C672.756,261.129 673.004,260.761 673.382,260.608C674.752,260.075 676.243,259.779 677.802,259.779C684.044,259.779 689.189,264.513 689.84,270.584C690.775,270.126 691.826,269.869 692.937,269.869C696.835,269.869 700,273.034 700,276.932C700,279.45 698.68,281.661 696.696,282.912C697.382,281.823 697.779,280.534 697.779,279.153C697.779,275.255 694.614,272.09 690.716,272.09C689.606,272.09 688.555,272.347 687.62,272.804C686.969,266.734 681.823,262 675.581,262C674.609,262 673.663,262.115 672.757,262.331Z" transform="translate(-640 -240)"/><path d="M669.5,262L669.5,284C669.5,284.28 669.724,284.507 670,284.507C670.276,284.507 670.5,284.28 670.5,284L670.5,262C670.5,261.72 670.276,261.493 670,261.493C669.724,261.493 669.5,261.72 669.5,262Z" transform="matrix(1.00901 0 0 .99487 -645.297 -238.547)"/><path d="M669.5,262L669.5,284C669.5,284.3 669.724,284.543 670,284.543C670.276,284.543 670.5,284.3 670.5,284L670.5,262C670.5,261.7 670.276,261.457 670,261.457C669.724,261.457 669.5,261.7 669.5,262Z" transform="matrix(1.00901 0 0 .92956 -647.315 -220.001)"/><path d="M669.5,262L669.5,284C669.5,284.337 669.724,284.611 670,284.611C670.276,284.611 670.5,284.337 670.5,284L670.5,262C670.5,261.663 670.276,261.389 670,261.389C669.724,261.389 669.5,261.663 669.5,262Z" transform="matrix(1.00901 0 0 .82555 -649.333 -190.462)"/><path d="M669.5,262L669.5,284C669.5,284.331 669.724,284.6 670,284.6C670.276,284.6 670.5,284.331 670.5,284L670.5,262C670.5,261.669 670.276,261.4 670,261.4C669.724,261.4 669.5,261.669 669.5,262Z" transform="matrix(1.00901 0 0 .84049 -651.351 -194.703)"/><path d="M669.5,262L669.5,284C669.5,284.326 669.724,284.591 670,284.591C670.276,284.591 670.5,284.326 670.5,284L670.5,262C670.5,261.674 670.276,261.409 670,261.409C669.724,261.409 669.5,261.674 669.5,262Z" transform="matrix(1.00901 0 0 .85374 -653.369 -198.467)"/><path d="M669.5,262L669.5,284C669.5,284.329 669.724,284.597 670,284.597C670.276,284.597 670.5,284.329 670.5,284L670.5,262C670.5,261.671 670.276,261.403 670,261.403C669.724,261.403 669.5,261.671 669.5,262Z" transform="matrix(1.00901 0 0 .84561 -655.387 -196.158)"/><path d="M669.5,262L669.5,284C669.5,284.332 669.724,284.602 670,284.602C670.276,284.602 670.5,284.332 670.5,284L670.5,262C670.5,261.668 670.276,261.398 670,261.398C669.724,261.398 669.5,261.668 669.5,262Z" transform="matrix(1.00901 0 0 .83756 -657.405 -193.871)"/><path d="M669.5,262L669.5,284C669.5,284.351 669.724,284.636 670,284.636C670.276,284.636 670.5,284.351 670.5,284L670.5,262C670.5,261.649 670.276,261.364 670,261.364C669.724,261.364 669.5,261.649 669.5,262Z" transform="matrix(1.00901 0 0 .79268 -659.423 -181.126)"/><path d="M669.5,262L669.5,284C669.5,284.404 669.724,284.732 670,284.732C670.276,284.732 670.5,284.404 670.5,284L670.5,262C670.5,261.596 670.276,261.268 670,261.268C669.724,261.268 669.5,261.596 669.5,262Z" transform="matrix(1.00901 0 0 .68898 -661.441 -151.674)"/><path d="M669.5,262L669.5,284C669.5,284.528 669.724,284.957 670,284.957C670.276,284.957 670.5,284.528 670.5,284L670.5,262C670.5,261.472 670.276,261.043 670,261.043C669.724,261.043 669.5,261.472 669.5,262Z" transform="matrix(1.00901 0 0 .52716 -663.459 -105.718)"/><path d="M669.5,262L669.5,284C669.5,284.516 669.724,284.935 670,284.935C670.276,284.935 670.5,284.516 670.5,284L670.5,262C670.5,261.484 670.276,261.065 670,261.065C669.724,261.065 669.5,261.484 669.5,262Z" transform="matrix(1.00901 0 0 .53975 -665.477 -109.451)"/><path d="M669.5,262L669.5,284C669.5,284.539 669.724,284.977 670,284.977C670.276,284.977 670.5,284.539 670.5,284L670.5,262C670.5,261.461 670.276,261.023 670,261.023C669.724,261.023 669.5,261.461 669.5,262Z" transform="matrix(1.00901 0 0 .51637 -667.495 -103.05)"/><path d="M669.5,262L669.5,284C669.5,284.647 669.724,285.173 670,285.173C670.276,285.173 670.5,284.647 670.5,284L670.5,262C670.5,261.353 670.276,260.827 670,260.827C669.724,260.827 669.5,261.353 669.5,262Z" transform="matrix(1.00901 0 0 .43007 -669.514 -79.332)"/><path d="M669.5,262L669.5,284C669.5,285.024 669.724,285.856 670,285.856C670.276,285.856 670.5,285.024 670.5,284L670.5,262C670.5,260.976 670.276,260.144 670,260.144C669.724,260.144 669.5,260.976 669.5,262Z" transform="matrix(1.00901 0 0 .27185 -671.532 -36.138)"/><path d="M690.335,269.993C691.163,269.677 692.061,269.504 693,269.504C697.137,269.504 700.496,272.863 700.496,277C700.496,281.137 697.137,284.496 693,284.496C693,284.496 680.035,284.496 674.982,284.496C674.325,284.496 673.695,284.235 673.23,283.77C672.766,283.305 672.504,282.675 672.504,282.018C672.504,277.138 672.504,264.725 672.504,261.742L672.504,261.742C672.504,261.136 672.872,260.59 673.44,260.36C674.854,259.809 676.391,259.504 678,259.504C684.213,259.504 689.374,264.05 690.335,269.993ZM673.496,261.741C673.495,261.539 673.618,261.357 673.805,261.281C675.102,260.776 676.518,260.496 678,260.496C683.931,260.496 688.82,264.993 689.438,270.761C689.456,270.921 689.55,271.064 689.692,271.142C689.833,271.22 690.004,271.224 690.149,271.153C691.01,270.732 691.977,270.496 693,270.496C696.59,270.496 699.504,273.41 699.504,277C699.504,280.59 696.59,283.504 693,283.504L674.982,283.504C674.588,283.504 674.21,283.348 673.931,283.069C673.652,282.79 673.496,282.412 673.496,282.018L673.496,261.741Z" transform="translate(-646.306 -242.563) scale(1.00901)"/></g></svg>