<svg xmlns="http://www.w3.org/2000/svg" fill-rule="evenodd" stroke-linejoin="round" stroke-miterlimit="2" clip-rule="evenodd" viewBox="0 0 64 64"><g><rect width="64" height="64" fill="none"/><path fill="#738b95" d="M215.249,348C215.801,348 216.249,348.448 216.249,349C216.249,352.622 216.249,364.845 216.249,364.845C216.249,365.56 215.868,366.22 215.249,366.577C211.316,368.848 196.933,377.152 193,379.423C192.381,379.78 191.619,379.78 191,379.423C191,379.423 188.013,377.698 186.494,376.821C186.016,376.545 185.852,375.933 186.128,375.455C188.501,371.345 198.515,354 198.515,354C200.659,350.287 204.62,348 208.907,348C208.907,348 213.24,348 215.249,348ZM178.334,370.955C178.058,371.433 177.446,371.597 176.968,371.321C174.698,370.011 168.751,366.577 168.751,366.577C168.132,366.22 167.751,365.56 167.751,364.845L167.751,339.155C167.751,338.44 168.132,337.78 168.751,337.423C172.684,335.152 187.067,326.848 191,324.577C191.619,324.22 192.381,324.22 193,324.577C196.933,326.848 211.316,335.152 215.249,337.423C215.25,337.423 215.251,337.424 215.252,337.424C215.582,337.616 215.743,338.006 215.643,338.375C215.544,338.744 215.209,339 214.827,339C208.08,339 179.5,339 179.5,339C178.307,339 177.162,339.474 176.318,340.318C175.474,341.162 175,342.307 175,343.5C175,343.5 175,343.5 175,343.5C175,344.693 175.474,345.838 176.318,346.682C177.162,347.526 178.307,348 179.5,348C179.5,348 181.959,348 184.659,348C186.088,348 187.408,348.762 188.123,350C188.837,351.238 188.837,352.762 188.123,354C188.123,354 180.395,367.386 178.334,370.955Z" transform="translate(-160 -320)"/><path fill="#617881" d="M186.733,374.407L193.249,378.169C193.753,378.46 194.352,378.514 194.891,378.331L193,379.423C192.381,379.78 191.619,379.78 191,379.423C191,379.423 188.013,377.698 186.494,376.821C186.016,376.545 185.852,375.933 186.128,375.455C186.421,374.948 186.733,374.407 186.733,374.407ZM168.751,337.423C172.684,335.152 171,336.169 171,336.169C170.381,336.526 170,337.186 170,337.901L170,363.591C170,364.306 170.381,364.966 171,365.323L178.939,369.907C178.939,369.907 178.626,370.448 178.334,370.955C178.201,371.185 177.983,371.352 177.727,371.421C177.47,371.49 177.197,371.454 176.968,371.321C174.698,370.011 168.751,366.577 168.751,366.577C168.132,366.22 167.751,365.56 167.751,364.845L167.751,339.155C167.751,338.44 168.132,337.78 168.751,337.423Z" transform="translate(-160 -320)"/><path d="M215.249,347.5C213.24,347.5 208.907,347.5 208.907,347.5C204.442,347.5 200.315,349.882 198.082,353.75C198.082,353.75 188.068,371.095 185.695,375.205C185.281,375.923 185.527,376.84 186.244,377.254C187.763,378.131 190.75,379.856 190.75,379.856C191.524,380.302 192.476,380.302 193.25,379.856C197.183,377.585 211.566,369.281 215.499,367.01C216.272,366.564 216.749,365.738 216.749,364.845C216.749,364.845 216.749,352.622 216.749,349C216.749,348.172 216.077,347.5 215.249,347.5L215.249,347.5ZM215.249,348.5C215.525,348.5 215.749,348.724 215.749,349L215.749,364.845C215.749,365.381 215.463,365.876 214.999,366.144C211.066,368.415 196.683,376.719 192.75,378.99C192.286,379.258 191.714,379.258 191.25,378.99C191.25,378.99 188.263,377.265 186.744,376.388C186.505,376.25 186.423,375.944 186.561,375.705C188.934,371.595 198.948,354.25 198.948,354.25C201.002,350.692 204.799,348.5 208.907,348.5L215.249,348.5ZM178.767,371.205L188.556,354.25C189.36,352.858 189.36,351.142 188.556,349.75C187.752,348.358 186.266,347.5 184.659,347.5L179.5,347.5C178.439,347.5 177.422,347.079 176.672,346.328C175.921,345.578 175.5,344.561 175.5,343.5L175.5,343.5C175.5,342.439 175.921,341.422 176.672,340.672C177.422,339.921 178.439,339.5 179.5,339.5C179.5,339.5 208.08,339.5 214.827,339.5C215.435,339.5 215.968,339.092 216.126,338.505C216.284,337.918 216.029,337.298 215.503,336.992L193.25,324.144C192.476,323.698 191.524,323.698 190.75,324.144C186.817,326.415 172.434,334.719 168.501,336.99C167.728,337.436 167.251,338.262 167.251,339.155C167.251,343.696 167.251,360.304 167.251,364.845C167.251,365.738 167.728,366.564 168.501,367.01C168.501,367.01 174.448,370.444 176.718,371.754C177.435,372.168 178.353,371.923 178.767,371.205ZM177.901,370.705C177.763,370.944 177.457,371.026 177.218,370.888C174.948,369.578 169.001,366.144 169.001,366.144C168.537,365.876 168.251,365.381 168.251,364.845C168.251,360.304 168.251,343.696 168.251,339.155C168.251,338.619 168.537,338.124 169.001,337.856C172.934,335.585 187.317,327.281 191.25,325.01C191.714,324.742 192.286,324.742 192.75,325.01L215.001,337.857C215.135,337.935 215.201,338.094 215.16,338.245C215.12,338.395 214.983,338.5 214.827,338.5C208.08,338.5 179.5,338.5 179.5,338.5C178.174,338.5 176.902,339.027 175.964,339.964C175.027,340.902 174.5,342.174 174.5,343.5L174.5,343.5C174.5,344.826 175.027,346.098 175.964,347.036C176.902,347.973 178.174,348.5 179.5,348.5C179.5,348.5 181.959,348.5 184.659,348.5C185.909,348.5 187.065,349.167 187.69,350.25C188.315,351.333 188.315,352.667 187.69,353.75L177.901,370.705Z" transform="translate(-160 -320)"/></g></svg>