<svg xmlns="http://www.w3.org/2000/svg" fill-rule="evenodd" stroke-linejoin="round" stroke-miterlimit="2" clip-rule="evenodd" viewBox="0 0 64 64"><g><rect width="64" height="64" fill="none"/><path fill="#57b7eb" d="M298,176C298,170.481 293.519,166 288,166L256,166C250.481,166 246,170.481 246,176L246,208C246,213.519 250.481,218 256,218L288,218C293.519,218 298,213.519 298,208L298,176Z" transform="translate(-240 -160)"/><path fill="#4891d3" d="M250.001,168.001C248.745,169.672 248,171.75 248,174L248,206C248,211.519 252.481,216 258,216L290,216C292.25,216 294.328,215.255 295.999,213.999C294.174,216.428 291.269,218 288,218L256,218C250.481,218 246,213.519 246,208L246,176C246,172.731 247.572,169.826 250.001,168.001Z" transform="translate(-240 -160)"/><path d="M298.5,176C298.5,170.205 293.795,165.5 288,165.5C288,165.5 256,165.5 256,165.5C250.205,165.5 245.5,170.205 245.5,176C245.5,176 245.5,208 245.5,208C245.5,213.795 250.205,218.5 256,218.5C256,218.5 288,218.5 288,218.5C293.795,218.5 298.5,213.795 298.5,208L298.5,176ZM297.5,176L297.5,208C297.5,213.243 293.243,217.5 288,217.5L256,217.5C250.757,217.5 246.5,213.243 246.5,208L246.5,176C246.5,170.757 250.757,166.5 256,166.5L288,166.5C293.243,166.5 297.5,170.757 297.5,176Z" transform="translate(-240 -160)"/><path fill="#f9f6f9" d="M261,187C261,186.735 260.895,186.48 260.707,186.293C260.52,186.105 260.265,186 260,186C258.669,186 256.331,186 255,186C254.735,186 254.48,185.895 254.293,185.707C254.105,185.52 254,185.265 254,185C254,183.463 254,180.537 254,179C254,178.448 254.448,178 255,178C258.665,178 271.335,178 275,178C275.552,178 276,178.448 276,179C276,180.537 276,183.463 276,185C276,185.265 275.895,185.52 275.707,185.707C275.52,185.895 275.265,186 275,186C273.669,186 271.331,186 270,186C269.735,186 269.48,186.105 269.293,186.293C269.105,186.48 269,186.735 269,187C269,190.665 269,203.335 269,207C269,207.552 268.552,208 268,208C266.463,208 263.537,208 262,208C261.448,208 261,207.552 261,207C261,203.335 261,190.665 261,187ZM288,201C288,200.448 287.552,200 287,200L281,200C280.448,200 280,200.448 280,201L280,207C280,207.552 280.448,208 281,208L287,208C287.552,208 288,207.552 288,207L288,201ZM288,179C288,178.735 287.895,178.48 287.707,178.293C287.52,178.105 287.265,178 287,178C285.463,178 282.537,178 281,178C280.735,178 280.48,178.105 280.293,178.293C280.105,178.48 280,178.735 280,179C280,182.414 280,193.586 280,197C280,197.265 280.105,197.52 280.293,197.707C280.48,197.895 280.735,198 281,198C282.537,198 285.463,198 287,198C287.265,198 287.52,197.895 287.707,197.707C287.895,197.52 288,197.265 288,197C288,193.586 288,182.414 288,179Z" transform="translate(-239 -160)"/><path d="M260.5,187C260.5,186.867 260.447,186.74 260.354,186.646C260.26,186.553 260.133,186.5 260,186.5C258.669,186.5 256.331,186.5 255,186.5C254.602,186.5 254.221,186.342 253.939,186.061C253.658,185.779 253.5,185.398 253.5,185C253.5,183.463 253.5,180.537 253.5,179C253.5,178.172 254.172,177.5 255,177.5C258.665,177.5 271.335,177.5 275,177.5C275.828,177.5 276.5,178.172 276.5,179C276.5,180.537 276.5,183.463 276.5,185C276.5,185.398 276.342,185.779 276.061,186.061C275.779,186.342 275.398,186.5 275,186.5C273.669,186.5 271.331,186.5 270,186.5C269.867,186.5 269.74,186.553 269.646,186.646C269.553,186.74 269.5,186.867 269.5,187C269.5,190.665 269.5,203.335 269.5,207C269.5,207.828 268.828,208.5 268,208.5C266.463,208.5 263.537,208.5 262,208.5C261.172,208.5 260.5,207.828 260.5,207L260.5,187ZM288.5,201C288.5,200.172 287.828,199.5 287,199.5C285.463,199.5 282.537,199.5 281,199.5C280.172,199.5 279.5,200.172 279.5,201C279.5,202.537 279.5,205.463 279.5,207C279.5,207.828 280.172,208.5 281,208.5C282.537,208.5 285.463,208.5 287,208.5C287.828,208.5 288.5,207.828 288.5,207L288.5,201ZM261.5,187C261.5,186.602 261.342,186.221 261.061,185.939C260.779,185.658 260.398,185.5 260,185.5C258.669,185.5 256.331,185.5 255,185.5C254.867,185.5 254.74,185.447 254.646,185.354C254.553,185.26 254.5,185.133 254.5,185C254.5,183.463 254.5,180.537 254.5,179C254.5,178.724 254.724,178.5 255,178.5C258.665,178.5 271.335,178.5 275,178.5C275.276,178.5 275.5,178.724 275.5,179C275.5,180.537 275.5,183.463 275.5,185C275.5,185.133 275.447,185.26 275.354,185.354C275.26,185.447 275.133,185.5 275,185.5C273.669,185.5 271.331,185.5 270,185.5C269.602,185.5 269.221,185.658 268.939,185.939C268.658,186.221 268.5,186.602 268.5,187C268.5,190.665 268.5,203.335 268.5,207C268.5,207.276 268.276,207.5 268,207.5C266.463,207.5 263.537,207.5 262,207.5C261.724,207.5 261.5,207.276 261.5,207L261.5,187ZM287.5,201C287.5,200.724 287.276,200.5 287,200.5C285.463,200.5 282.537,200.5 281,200.5C280.724,200.5 280.5,200.724 280.5,201C280.5,202.537 280.5,205.463 280.5,207C280.5,207.276 280.724,207.5 281,207.5C282.537,207.5 285.463,207.5 287,207.5C287.276,207.5 287.5,207.276 287.5,207L287.5,201ZM288.5,179C288.5,178.602 288.342,178.221 288.061,177.939C287.779,177.658 287.398,177.5 287,177.5C285.463,177.5 282.537,177.5 281,177.5C280.602,177.5 280.221,177.658 279.939,177.939C279.658,178.221 279.5,178.602 279.5,179C279.5,182.414 279.5,193.586 279.5,197C279.5,197.398 279.658,197.779 279.939,198.061C280.221,198.342 280.602,198.5 281,198.5C282.537,198.5 285.463,198.5 287,198.5C287.398,198.5 287.779,198.342 288.061,198.061C288.342,197.779 288.5,197.398 288.5,197L288.5,179ZM287.5,179L287.5,197C287.5,197.133 287.447,197.26 287.354,197.354C287.26,197.447 287.133,197.5 287,197.5C285.463,197.5 282.537,197.5 281,197.5C280.867,197.5 280.74,197.447 280.646,197.354C280.553,197.26 280.5,197.133 280.5,197C280.5,193.586 280.5,182.414 280.5,179C280.5,178.867 280.553,178.74 280.646,178.646C280.74,178.553 280.867,178.5 281,178.5C282.537,178.5 285.463,178.5 287,178.5C287.133,178.5 287.26,178.553 287.354,178.646C287.447,178.74 287.5,178.867 287.5,179Z" transform="translate(-239 -160)"/></g></svg>