<svg xmlns="http://www.w3.org/2000/svg" fill-rule="evenodd" stroke-linejoin="round" stroke-miterlimit="2" clip-rule="evenodd" viewBox="0 0 64 64"><g><rect width="64" height="64" fill="none"/><path fill="#57b7eb" d="M661.12,346.284C660.828,346.567 660.738,347 660.891,347.377C661.044,347.753 661.41,348 661.817,348C664.906,348 670.107,348 672.651,348C672.985,348 673.296,348.166 673.482,348.443C673.667,348.72 673.703,349.071 673.576,349.38C673.147,350.424 672.579,351.809 672.255,352.597C672.101,352.972 671.735,353.217 671.33,353.217C668.112,353.217 654.176,353.217 648.46,353.217C648.053,353.217 647.687,352.971 647.534,352.594C647.38,352.217 647.471,351.785 647.762,351.501C651.133,348.218 658.344,341.195 660.426,339.168C660.762,338.841 660.825,338.325 660.58,337.927C659.213,335.708 654.869,328.657 652.939,325.525C652.749,325.216 652.741,324.829 652.918,324.512C653.094,324.196 653.428,324 653.791,324C661.234,324 689.658,324 696.508,324C696.842,324 697.153,324.166 697.339,324.443C697.525,324.72 697.56,325.071 697.433,325.38C694.138,333.403 677.515,373.876 675.255,379.38C675.101,379.755 674.735,380 674.33,380C673.051,380 670.237,380 668.492,380C668.158,380 667.847,379.834 667.661,379.557C667.475,379.28 667.44,378.929 667.567,378.62C670.54,371.38 684.317,337.837 687.29,330.597C687.417,330.289 687.382,329.938 687.196,329.661C687.01,329.384 686.699,329.217 686.365,329.217C682.066,329.217 669.658,329.217 665.005,329.217C664.643,329.217 664.309,329.413 664.132,329.73C663.955,330.046 663.963,330.433 664.154,330.742C665.429,332.812 667.656,336.427 668.58,337.927C668.825,338.325 668.762,338.841 668.426,339.168C667.016,340.541 663.334,344.127 661.12,346.284Z" transform="translate(-640 -320)"/><path fill="#4891d3" d="M686.365,329.217C686.365,329.217 684.557,329.217 688.857,329.217C689.191,329.217 689.502,329.384 689.688,329.661C689.873,329.938 689.909,330.289 689.782,330.597C686.809,337.837 673.032,371.38 670.059,378.62C669.932,378.929 669.967,379.28 670.153,379.557C670.339,379.834 670.65,380 670.984,380L668.492,380C668.158,380 667.847,379.834 667.661,379.557C667.475,379.28 667.44,378.929 667.567,378.62C670.54,371.38 684.317,337.837 687.29,330.597C687.417,330.289 687.382,329.938 687.196,329.661C687.01,329.384 686.699,329.217 686.365,329.217ZM653.791,324C661.234,324 656.282,324 656.282,324C655.92,324 655.586,324.196 655.409,324.512C655.233,324.829 655.241,325.216 655.431,325.525C657.361,328.657 661.705,335.708 663.072,337.927C663.317,338.325 663.253,338.841 662.918,339.168C660.836,341.195 653.625,348.218 650.254,351.501C649.963,351.785 649.872,352.217 650.025,352.594C650.179,352.971 650.545,353.217 650.952,353.217L648.46,353.217C648.053,353.217 647.687,352.971 647.534,352.594C647.38,352.217 647.471,351.785 647.762,351.501C651.133,348.218 658.344,341.195 660.426,339.168C660.762,338.841 660.825,338.325 660.58,337.927C659.213,335.708 654.869,328.657 652.939,325.525C652.749,325.216 652.741,324.829 652.918,324.512C653.094,324.196 653.428,324 653.791,324Z" transform="translate(-640 -320)"/><path d="M661.468,346.642L668.775,339.526C669.278,339.036 669.374,338.262 669.006,337.664C668.082,336.165 665.855,332.55 664.579,330.48C664.484,330.325 664.48,330.132 664.568,329.974C664.657,329.815 664.824,329.717 665.005,329.717C669.658,329.717 682.066,329.717 686.365,329.717C686.532,329.717 686.688,329.8 686.781,329.939C686.874,330.077 686.891,330.253 686.828,330.407C683.854,337.647 670.078,371.19 667.104,378.43C666.914,378.893 666.967,379.42 667.246,379.835C667.524,380.251 667.992,380.5 668.492,380.5C670.237,380.5 673.051,380.5 674.33,380.5C674.938,380.5 675.486,380.133 675.717,379.57C677.978,374.066 694.601,333.593 697.896,325.57C698.086,325.107 698.033,324.58 697.754,324.165C697.476,323.749 697.008,323.5 696.508,323.5C689.658,323.5 661.234,323.5 653.791,323.5C653.247,323.5 652.746,323.794 652.481,324.269C652.216,324.743 652.228,325.324 652.514,325.787C654.443,328.919 658.787,335.97 660.154,338.189C660.277,338.388 660.245,338.646 660.077,338.809C657.995,340.837 650.784,347.86 647.414,351.143C646.976,351.569 646.841,352.217 647.07,352.782C647.3,353.348 647.85,353.717 648.46,353.717C654.176,353.717 668.112,353.717 671.33,353.717C671.938,353.717 672.486,353.35 672.717,352.787C673.041,351.999 673.61,350.614 674.039,349.57C674.229,349.107 674.176,348.58 673.897,348.165C673.619,347.749 673.151,347.5 672.651,347.5C670.107,347.5 664.906,347.5 661.817,347.5C661.614,347.5 661.431,347.377 661.354,347.188C661.277,347 661.323,346.784 661.468,346.642ZM660.771,345.925C660.333,346.351 660.198,346.999 660.428,347.565C660.657,348.13 661.207,348.5 661.817,348.5C664.906,348.5 670.107,348.5 672.651,348.5C672.818,348.5 672.974,348.583 673.066,348.722C673.159,348.86 673.177,349.036 673.114,349.19C672.685,350.234 672.116,351.619 671.792,352.407C671.715,352.595 671.532,352.717 671.33,352.717C668.112,352.717 654.176,352.717 648.46,352.717C648.257,352.717 648.073,352.594 647.997,352.406C647.92,352.217 647.965,352.001 648.111,351.859C651.482,348.576 658.693,341.554 660.775,339.526C661.278,339.036 661.374,338.262 661.006,337.664C659.638,335.445 655.295,328.394 653.365,325.262C653.27,325.108 653.266,324.914 653.354,324.756C653.442,324.598 653.609,324.5 653.791,324.5C661.234,324.5 689.658,324.5 696.508,324.5C696.675,324.5 696.831,324.583 696.924,324.722C697.016,324.86 697.034,325.036 696.971,325.19C693.676,333.213 677.053,373.686 674.792,379.19C674.715,379.378 674.532,379.5 674.33,379.5C673.051,379.5 670.237,379.5 668.492,379.5C668.325,379.5 668.169,379.417 668.076,379.278C667.984,379.14 667.966,378.964 668.029,378.81C671.003,371.57 684.779,338.027 687.753,330.787C687.943,330.325 687.89,329.798 687.611,329.382C687.333,328.967 686.866,328.717 686.365,328.717C682.066,328.717 669.658,328.717 665.005,328.717C664.461,328.717 663.96,329.011 663.695,329.486C663.43,329.961 663.443,330.541 663.728,331.004C665.003,333.075 667.23,336.689 668.154,338.189C668.277,338.388 668.245,338.646 668.077,338.809L660.771,345.925Z" transform="translate(-640 -320)"/></g></svg>