<svg xmlns="http://www.w3.org/2000/svg" fill-rule="evenodd" stroke-linejoin="round" stroke-miterlimit="2" clip-rule="evenodd" viewBox="0 0 64 64"><g><rect width="64" height="64" fill="none"/><circle cx="432" cy="192" r="26" fill="#95d6a4" transform="translate(-400 -160)"/><path fill="#78c2a4" d="M414.646,172.646C410.515,177.249 408,183.333 408,190C408,204.35 419.65,216 434,216C440.667,216 446.751,213.485 451.354,209.354C446.592,214.66 439.683,218 432,218C417.65,218 406,206.35 406,192C406,184.317 409.34,177.408 414.646,172.646Z" transform="translate(-400 -160)"/><path d="M432,165.5C417.374,165.5 405.5,177.374 405.5,192C405.5,206.626 417.374,218.5 432,218.5C446.626,218.5 458.5,206.626 458.5,192C458.5,177.374 446.626,165.5 432,165.5ZM432,166.5C446.074,166.5 457.5,177.926 457.5,192C457.5,206.074 446.074,217.5 432,217.5C417.926,217.5 406.5,206.074 406.5,192C406.5,177.926 417.926,166.5 432,166.5Z" transform="translate(-400 -160)"/><path fill="#738b95" d="M576.67,185C581.11,181.759 586.476,180 592,180C597.524,180 602.89,181.759 607.33,185L611,185L608.216,187.784C609.936,189.503 611,191.878 611,194.5C611,199.743 606.743,204 601.5,204C598.878,204 596.503,202.936 594.784,201.216L592,204L589.216,201.216C587.497,202.936 585.122,204 582.5,204C577.257,204 573,199.743 573,194.5C573,191.878 574.064,189.503 575.784,187.784L573,185L576.67,185ZM601.382,185.001C598.451,183.691 595.257,183 592,183C588.743,183 585.549,183.691 582.618,185.001C587.639,185.061 591.729,189.027 591.987,194L592.013,194C592.271,189.027 596.361,185.061 601.382,185.001Z" transform="translate(-591.158 -170.105) scale(1.05263)"/><path d="M576.517,184.525C581.013,181.283 586.427,179.525 592,179.525C597.573,179.525 602.987,181.283 607.483,184.525L611,184.525C611.192,184.525 611.365,184.641 611.439,184.818C611.512,184.996 611.472,185.2 611.336,185.336L608.88,187.792C610.492,189.564 611.475,191.918 611.475,194.5C611.475,200.005 607.005,204.475 601.5,204.475C598.918,204.475 596.564,203.492 594.792,201.88L592.336,204.336C592.15,204.521 591.85,204.521 591.664,204.336L589.208,201.88C587.436,203.492 585.082,204.475 582.5,204.475C576.995,204.475 572.525,200.005 572.525,194.5C572.525,191.918 573.508,189.564 575.12,187.792L572.664,185.336C572.528,185.2 572.488,184.996 572.561,184.818C572.635,184.641 572.808,184.525 573,184.525L576.517,184.525ZM609.853,185.475L607.33,185.475C607.229,185.475 607.131,185.443 607.05,185.384C602.691,182.202 597.423,180.475 592,180.475C586.577,180.475 581.309,182.202 576.95,185.384C576.869,185.443 576.771,185.475 576.67,185.475L574.147,185.475L576.12,187.448C576.305,187.633 576.305,187.934 576.12,188.12C574.486,189.753 573.475,192.009 573.475,194.5C573.475,199.481 577.519,203.525 582.5,203.525C584.991,203.525 587.247,202.514 588.88,200.88C589.066,200.695 589.367,200.695 589.552,200.88L592,203.328L594.448,200.88C594.633,200.695 594.934,200.695 595.12,200.88C596.753,202.514 599.009,203.525 601.5,203.525C606.481,203.525 610.525,199.481 610.525,194.5C610.525,192.009 609.514,189.753 607.88,188.12C607.695,187.934 607.695,187.633 607.88,187.448L609.853,185.475ZM601.388,185.476C601.611,185.473 601.802,185.315 601.848,185.097C601.893,184.879 601.78,184.658 601.576,184.567C598.584,183.23 595.324,182.525 592,182.525C588.676,182.525 585.416,183.23 582.424,184.567C582.22,184.658 582.107,184.879 582.152,185.097C582.198,185.315 582.389,185.473 582.612,185.476C587.382,185.533 591.267,189.301 591.513,194.025C591.526,194.277 591.734,194.475 591.987,194.475L592.013,194.475C592.266,194.475 592.474,194.277 592.487,194.025C592.733,189.301 596.618,185.533 601.388,185.476ZM599.438,184.739C597.065,183.908 594.552,183.475 592,183.475C589.448,183.475 586.935,183.908 584.562,184.739C588.079,185.479 590.916,188.075 592,191.453C593.084,188.075 595.921,185.479 599.438,184.739Z" transform="translate(-591.158 -170.105) scale(1.05263)"/><circle cx="582" cy="195" r="9" fill="#95d6a4" transform="matrix(.76023 0 0 .76023 -420.456 -113.614)"/><path d="M582,185.342C576.67,185.342 572.342,189.67 572.342,195C572.342,200.33 576.67,204.658 582,204.658C587.33,204.658 591.658,200.33 591.658,195C591.658,189.67 587.33,185.342 582,185.342ZM582,186.658C586.604,186.658 590.342,190.396 590.342,195C590.342,199.604 586.604,203.342 582,203.342C577.396,203.342 573.658,199.604 573.658,195C573.658,190.396 577.396,186.658 582,186.658Z" transform="matrix(.76023 0 0 .76023 -420.456 -113.614)"/><circle cx="582" cy="195" r="9" fill="#738b95" transform="matrix(.40936 0 0 .40936 -216.246 -45.193)"/><path d="M582,184.779C576.359,184.779 571.779,189.359 571.779,195C571.779,200.641 576.359,205.221 582,205.221C587.641,205.221 592.221,200.641 592.221,195C592.221,189.359 587.641,184.779 582,184.779ZM582,187.221C586.293,187.221 589.779,190.707 589.779,195C589.779,199.293 586.293,202.779 582,202.779C577.707,202.779 574.221,199.293 574.221,195C574.221,190.707 577.707,187.221 582,187.221Z" transform="matrix(.40936 0 0 .40936 -216.246 -45.193)"/><circle cx="582" cy="195" r="9" fill="#95d6a4" transform="matrix(.76023 0 0 .76023 -400.456 -113.614)"/><path d="M582,185.342C576.67,185.342 572.342,189.67 572.342,195C572.342,200.33 576.67,204.658 582,204.658C587.33,204.658 591.658,200.33 591.658,195C591.658,189.67 587.33,185.342 582,185.342ZM582,186.658C586.604,186.658 590.342,190.396 590.342,195C590.342,199.604 586.604,203.342 582,203.342C577.396,203.342 573.658,199.604 573.658,195C573.658,190.396 577.396,186.658 582,186.658Z" transform="matrix(.76023 0 0 .76023 -400.456 -113.614)"/><circle cx="582" cy="195" r="9" fill="#738b95" transform="matrix(.40936 0 0 .40936 -196.246 -45.193)"/><path d="M582,184.779C576.359,184.779 571.779,189.359 571.779,195C571.779,200.641 576.359,205.221 582,205.221C587.641,205.221 592.221,200.641 592.221,195C592.221,189.359 587.641,184.779 582,184.779ZM582,187.221C586.293,187.221 589.779,190.707 589.779,195C589.779,199.293 586.293,202.779 582,202.779C577.707,202.779 574.221,199.293 574.221,195C574.221,190.707 577.707,187.221 582,187.221Z" transform="matrix(.40936 0 0 .40936 -196.246 -45.193)"/></g></svg>