<svg xmlns="http://www.w3.org/2000/svg" fill-rule="evenodd" stroke-linejoin="round" stroke-miterlimit="2" clip-rule="evenodd" viewBox="0 0 64 64"><g><rect width="64" height="64" fill="none"/><path fill="#738b95" d="M19,179C23.971,179 28,174.971 28,170C28,167.972 28,166.097 28,165C28,164.735 28.105,164.48 28.293,164.293C28.48,164.105 28.735,164 29,164C30.732,164 34.268,164 36,164C36.552,164 37,164.448 37,165C37,167.577 37,174.423 37,177C37,177.552 37.448,178 38,178C40.092,178 44.908,178 47,178C47.552,178 48,178.448 48,179C48,180.916 48,185.084 48,187C48,187.552 47.552,188 47,188C44.908,188 40.092,188 38,188C37.448,188 37,188.448 37,189C37,191.387 37,197.55 37,202C37,204.761 39.239,207 42,207C43.887,207 45.853,207 47,207C47.552,207 48,207.448 48,208C48,210.422 48,216.578 48,219C48,219.552 47.552,220 47,220C45.192,220 41.177,220 37,220C29.82,220 24,214.18 24,207C24,199.804 24,191.768 24,189C24,188.735 23.895,188.48 23.707,188.293C23.52,188.105 23.265,188 23,188C21.89,188 20.11,188 19,188C18.735,188 18.48,187.895 18.293,187.707C18.105,187.52 18,187.265 18,187C18,185.268 18,181.732 18,180C18,179.448 18.448,179 19,179C19,179 19,179 19,179Z" transform="translate(-1 -160)"/><path fill="#617881" d="M19,178.945L19,185C19,185.265 19.105,185.52 19.293,185.707C19.48,185.895 19.735,186 20,186C21.11,186 22.89,186 24,186C24.265,186 24.52,186.105 24.707,186.293C24.895,186.48 25,186.735 25,187C25,189.768 25,197.804 25,205C25,212.18 30.82,218 38,218L47,218L47,219C47,219.552 46.552,220 46,220C44.192,220 40.177,220 36,220C28.82,220 23,214.18 23,207C23,199.804 23,191.768 23,189C23,188.735 22.895,188.48 22.707,188.293C22.52,188.105 22.265,188 22,188C20.89,188 19.11,188 18,188C17.735,188 17.48,187.895 17.293,187.707C17.105,187.52 17,187.265 17,187C17,185.268 17,181.732 17,180C17,179.448 17.448,179 18,179C18,179 18,179 18,179C18.338,179 18.672,178.981 19,178.945ZM47,186L47,187C47,187.552 46.552,188 46,188C43.908,188 39.092,188 37,188C36.61,188 36.273,188.223 36.108,188.548C36.531,186 38.086,186 38.618,186L47,186ZM29,164L29,168C29,170.996 27.536,173.65 25.285,175.285C26.364,173.801 27,171.975 27,170C27,167.972 27,166.097 27,165C27,164.735 27.105,164.48 27.293,164.293C27.48,164.105 27.735,164 28,164L29,164Z" transform="translate(0 -160)"/><path d="M19,178.5C18.172,178.5 17.5,179.172 17.5,180C17.5,181.732 17.5,185.268 17.5,187C17.5,187.398 17.658,187.779 17.939,188.061C18.221,188.342 18.602,188.5 19,188.5C20.11,188.5 21.89,188.5 23,188.5C23.133,188.5 23.26,188.553 23.354,188.646C23.447,188.74 23.5,188.867 23.5,189C23.5,191.768 23.5,199.804 23.5,207C23.5,214.456 29.544,220.5 37,220.5C41.177,220.5 45.192,220.5 47,220.5C47.828,220.5 48.5,219.828 48.5,219C48.5,216.578 48.5,210.422 48.5,208C48.5,207.172 47.828,206.5 47,206.5C45.853,206.5 43.887,206.5 42,206.5C39.515,206.5 37.5,204.485 37.5,202C37.5,197.55 37.5,191.387 37.5,189C37.5,188.724 37.724,188.5 38,188.5C40.092,188.5 44.908,188.5 47,188.5C47.828,188.5 48.5,187.828 48.5,187C48.5,185.084 48.5,180.916 48.5,179C48.5,178.172 47.828,177.5 47,177.5C44.908,177.5 40.092,177.5 38,177.5C37.724,177.5 37.5,177.276 37.5,177C37.5,174.423 37.5,167.577 37.5,165C37.5,164.172 36.828,163.5 36,163.5C34.268,163.5 30.732,163.5 29,163.5C28.602,163.5 28.221,163.658 27.939,163.939C27.658,164.221 27.5,164.602 27.5,165C27.5,166.097 27.5,167.972 27.5,170C27.5,174.694 23.694,178.5 19,178.5L19,178.5ZM19,179.5C18.724,179.5 18.5,179.724 18.5,180C18.5,181.732 18.5,185.268 18.5,187C18.5,187.133 18.553,187.26 18.646,187.354C18.74,187.447 18.867,187.5 19,187.5C20.11,187.5 21.89,187.5 23,187.5C23.398,187.5 23.779,187.658 24.061,187.939C24.342,188.221 24.5,188.602 24.5,189C24.5,191.768 24.5,199.804 24.5,207C24.5,213.904 30.096,219.5 37,219.5C41.177,219.5 45.192,219.5 47,219.5C47.276,219.5 47.5,219.276 47.5,219C47.5,216.578 47.5,210.422 47.5,208C47.5,207.724 47.276,207.5 47,207.5C45.853,207.5 43.887,207.5 42,207.5C38.962,207.5 36.5,205.038 36.5,202C36.5,197.55 36.5,191.387 36.5,189C36.5,188.172 37.172,187.5 38,187.5C40.092,187.5 44.908,187.5 47,187.5C47.276,187.5 47.5,187.276 47.5,187C47.5,185.084 47.5,180.916 47.5,179C47.5,178.724 47.276,178.5 47,178.5C44.908,178.5 40.092,178.5 38,178.5C37.172,178.5 36.5,177.828 36.5,177C36.5,174.423 36.5,167.577 36.5,165C36.5,164.724 36.276,164.5 36,164.5C34.268,164.5 30.732,164.5 29,164.5C28.867,164.5 28.74,164.553 28.646,164.646C28.553,164.74 28.5,164.867 28.5,165C28.5,166.097 28.5,167.972 28.5,170C28.5,175.247 24.247,179.5 19,179.5Z" transform="translate(-1 -160)"/></g></svg>