<svg xmlns="http://www.w3.org/2000/svg" fill-rule="evenodd" stroke-linejoin="round" stroke-miterlimit="2" clip-rule="evenodd" viewBox="0 0 64 64"><g><rect width="64" height="64" fill="none"/><path fill="#57b7eb" d="M373.998,20.269C373.999,20.345 374,20.423 374,20.5L374,22C374,39.661 359.661,54 342,54C335.675,54 329.777,52.161 324.811,48.99C330.838,48.839 336.453,47.019 341.212,43.974C336.649,43.678 332.777,40.826 331.016,36.836C331.662,36.944 332.324,37 333,37C334.036,37 335.041,36.868 336,36.621C330.827,35.288 327,30.587 327,25C327,24.915 327.001,24.831 327.003,24.747C328.614,25.907 330.524,26.676 332.594,26.918C329.224,24.679 327,20.847 327,16.5C327,14.372 327.533,12.367 328.473,10.611C333.522,17.684 341.612,22.437 350.826,22.953C351,22.963 351,21.329 351,20.5C351,14.153 356.153,9 362.5,9C365.913,9 368.982,10.49 371.088,12.855C374.162,12.426 376.938,11.065 379.121,9.067C378.128,11.832 376.345,14.222 374.045,15.964C376.253,15.812 378.331,15.181 380.174,14.174C378.761,16.762 376.607,18.889 373.998,20.269Z" transform="translate(-320.493 .5)"/><path fill="#4891d3" d="M373.215,26.843C371.093,42.453 357.696,54.5 341.507,54.5C335.183,54.5 329.285,52.661 324.319,49.49C327.411,49.413 330.396,48.896 333.212,47.999C336.561,49.291 340.198,50 344,50C358.203,50 370.114,40.109 373.215,26.843Z" transform="translate(-320)"/><path d="M350.453,22.429L350.458,22.373C350.501,21.836 350.5,21.011 350.5,20.5C350.5,13.877 355.877,8.5 362.5,8.5C365.964,8.5 369.087,9.971 371.278,12.322C374.146,11.868 376.735,10.573 378.784,8.698C378.953,8.543 379.207,8.523 379.398,8.65C379.59,8.778 379.67,9.019 379.592,9.236C378.762,11.546 377.398,13.603 375.65,15.258C377.175,14.976 378.617,14.455 379.934,13.735C380.129,13.629 380.371,13.663 380.527,13.82C380.684,13.977 380.719,14.219 380.613,14.414C379.201,16.998 377.075,19.138 374.5,20.565L374.5,22C374.5,39.937 359.937,54.5 342,54.5C335.576,54.5 329.586,52.632 324.542,49.411C324.357,49.293 324.27,49.067 324.329,48.856C324.388,48.644 324.579,48.496 324.799,48.49C330.225,48.354 335.312,46.844 339.726,44.293C335.614,43.536 332.203,40.763 330.559,37.038C330.484,36.87 330.508,36.675 330.621,36.53C330.734,36.385 330.917,36.313 331.098,36.343C331.717,36.446 332.352,36.5 333,36.5C333.336,36.5 333.669,36.486 333.998,36.457C329.586,34.526 326.5,30.12 326.5,25C326.5,24.912 326.501,24.824 326.503,24.736C326.507,24.551 326.613,24.383 326.779,24.3C326.946,24.217 327.144,24.233 327.295,24.341C328.296,25.062 329.418,25.625 330.625,25.996C328.087,23.623 326.5,20.245 326.5,16.5C326.5,14.286 327.055,12.201 328.033,10.375C328.114,10.223 328.269,10.123 328.441,10.112C328.614,10.101 328.78,10.18 328.88,10.321C333.77,17.17 341.562,21.808 350.453,22.429ZM377.847,10.725C375.897,12.085 373.619,13.007 371.158,13.351C370.992,13.374 370.826,13.313 370.715,13.188C368.7,10.926 365.765,9.5 362.5,9.5C356.429,9.5 351.5,14.429 351.5,20.5C351.5,21.033 351.499,21.892 351.455,22.452C351.429,22.773 351.376,23.017 351.324,23.125C351.188,23.408 350.965,23.462 350.798,23.452C341.722,22.944 333.717,18.392 328.558,11.571C327.878,13.075 327.5,14.744 327.5,16.5C327.5,20.673 329.635,24.352 332.871,26.502C333.064,26.63 333.143,26.873 333.064,27.09C332.984,27.307 332.766,27.442 332.536,27.415C330.717,27.202 329.016,26.598 327.521,25.689C327.819,30.738 331.381,34.914 336.125,36.137C336.346,36.194 336.5,36.393 336.5,36.621C336.5,36.849 336.346,37.049 336.125,37.105C335.126,37.363 334.079,37.5 333,37.5C332.62,37.5 332.244,37.483 331.873,37.45C333.704,40.842 337.189,43.212 341.245,43.476C341.46,43.49 341.643,43.64 341.697,43.85C341.75,44.059 341.664,44.279 341.482,44.396C337.084,47.209 331.968,48.993 326.471,49.407C331.054,52.012 336.355,53.5 342,53.5C359.385,53.5 373.5,39.385 373.5,22L373.5,20.5C373.5,20.426 373.499,20.352 373.498,20.279C373.494,20.09 373.597,19.915 373.764,19.827C375.79,18.755 377.532,17.217 378.848,15.357C377.359,15.965 375.756,16.347 374.079,16.463C373.858,16.478 373.654,16.347 373.576,16.139C373.499,15.932 373.566,15.699 373.743,15.565C375.442,14.279 376.849,12.626 377.847,10.725Z" transform="translate(-320.493 .5)"/></g></svg>