<svg xmlns="http://www.w3.org/2000/svg" fill-rule="evenodd" stroke-linejoin="round" stroke-miterlimit="2" clip-rule="evenodd" viewBox="0 0 64 64"><g><rect width="64" height="64" fill="none"/><path fill="#8078bc" d="M376,88.87C376,88.639 375.911,88.418 375.752,88.255C375.593,88.092 375.378,88 375.154,88C369.787,88 340.599,88 337.065,88C336.84,88 336.625,88.092 336.466,88.255C335.652,89.092 333.062,91.754 332.248,92.591C332.089,92.755 332,92.976 332,93.206C332,96.66 332,123.892 332,129.13C332,129.361 332.089,129.582 332.248,129.745C332.407,129.908 332.622,130 332.846,130C334.357,130 337.5,130 339.011,130C339.478,130 339.857,130.389 339.857,130.87C339.857,131.332 339.857,131.899 339.857,132.361C339.857,132.841 340.236,133.231 340.703,133.231L342.65,133.231C342.874,133.231 343.089,133.139 343.248,132.976C343.835,132.372 345.307,130.859 345.895,130.255C346.054,130.092 346.269,130 346.493,130C348.965,130 363.749,130 366.221,130C366.445,130 366.661,129.908 366.819,129.745C368.149,128.379 374.423,121.929 375.752,120.562C375.911,120.399 376,120.178 376,119.947C376,116.779 376,93.666 376,88.87Z" transform="matrix(1.18182 0 0 1.14966 -386.364 -95.17)"/><path fill="#6b61b1" d="M328.293,89.279C328.105,89.466 328,89.72 328,89.986C328,93.956 328,125.264 328,131.286C328,131.551 328.105,131.805 328.293,131.993C328.48,132.18 328.735,132.286 329,132.286C330.785,132.286 334.5,132.286 336.286,132.286C336.838,132.286 337.286,132.733 337.286,133.286C337.286,133.817 337.286,134.469 337.286,135C337.286,135.552 337.733,136 338.286,136L340.586,136C340.851,136 341.105,135.895 341.293,135.707L339.293,137.707C339.105,137.895 338.851,138 338.586,138L336.286,138C335.733,138 335.286,137.552 335.286,137C335.286,136.469 335.286,135.817 335.286,135.286C335.286,134.733 334.838,134.286 334.286,134.286C332.5,134.286 328.785,134.286 327,134.286C326.735,134.286 326.48,134.18 326.293,133.993C326.105,133.805 326,133.551 326,133.286C326,127.264 326,95.956 326,91.986C326,91.72 326.105,91.466 326.293,91.279L328.293,89.279ZM369.15,131.993C369.15,131.993 368.721,132.422 367.15,133.993C366.962,134.18 366.708,134.286 366.443,134.286C363.521,134.286 346.05,134.286 343.129,134.286C342.863,134.286 342.609,134.391 342.421,134.579L344.421,132.579C344.609,132.391 344.863,132.286 345.129,132.286C348.05,132.286 365.521,132.286 368.443,132.286C368.708,132.286 368.962,132.18 369.15,131.993Z" transform="translate(-320 -80)"/><path fill="#f9f6f9" d="M340,129.1C340,128.492 339.508,128 338.9,128C337.373,128 334.627,128 333.1,128C332.492,128 332,127.508 332,126.9C332,121.174 332,94.826 332,89.1C332,88.492 332.492,88 333.1,88C339.198,88 368.802,88 374.9,88C375.192,88 375.472,88.116 375.678,88.322C375.884,88.528 376,88.808 376,89.1C376,94.277 376,116.11 376,119.544C376,119.836 375.884,120.116 375.678,120.322C374.389,121.611 369.611,126.389 368.322,127.678C368.116,127.884 367.836,128 367.544,128C364.529,128 347.471,128 344.456,128C344.164,128 343.884,128.116 343.678,128.322C342.727,129.273 340,132 340,132L340,129.1Z" transform="matrix(.9091 0 0 .9091 -287.818 -70)"/><path d="M339.45,129.1C339.45,128.796 339.204,128.55 338.9,128.55C337.373,128.55 334.627,128.55 333.1,128.55C332.189,128.55 331.45,127.811 331.45,126.9C331.45,121.174 331.45,94.826 331.45,89.1C331.45,88.189 332.189,87.45 333.1,87.45C339.198,87.45 368.802,87.45 374.9,87.45C375.338,87.45 375.757,87.624 376.067,87.933C376.376,88.243 376.55,88.662 376.55,89.1C376.55,94.277 376.55,116.11 376.55,119.544C376.55,119.982 376.376,120.402 376.067,120.711C374.778,122 370,126.778 368.711,128.067C368.402,128.376 367.982,128.55 367.544,128.55C364.529,128.55 347.471,128.55 344.456,128.55C344.31,128.55 344.17,128.608 344.067,128.711C343.116,129.662 340.389,132.389 340.389,132.389C340.232,132.546 339.995,132.593 339.79,132.508C339.584,132.423 339.45,132.222 339.45,132L339.45,129.1ZM340.55,130.672L343.289,127.933C343.598,127.624 344.018,127.45 344.456,127.45C347.471,127.45 364.529,127.45 367.544,127.45C367.69,127.45 367.83,127.392 367.933,127.289C369.222,126 374,121.222 375.289,119.933C375.392,119.83 375.45,119.69 375.45,119.544C375.45,116.11 375.45,94.277 375.45,89.1C375.45,88.954 375.392,88.814 375.289,88.711C375.186,88.608 375.046,88.55 374.9,88.55C368.802,88.55 339.198,88.55 333.1,88.55C332.796,88.55 332.55,88.796 332.55,89.1C332.55,94.826 332.55,121.174 332.55,126.9C332.55,127.204 332.796,127.45 333.1,127.45C334.627,127.45 337.373,127.45 338.9,127.45C339.811,127.45 340.55,128.189 340.55,129.1L340.55,130.672Z" transform="matrix(.9091 0 0 .9091 -287.818 -70)"/><path fill="#8078bc" d="M356,97C356,96.448 355.552,96 355,96C354.389,96 353.611,96 353,96C352.448,96 352,96.448 352,97C352,99.873 352,108.127 352,111C352,111.552 352.448,112 353,112C353.611,112 354.389,112 355,112C355.552,112 356,111.552 356,111C356,108.127 356,99.873 356,97Z" transform="translate(-324 -76)"/><path d="M356.5,97C356.5,96.172 355.828,95.5 355,95.5C354.389,95.5 353.611,95.5 353,95.5C352.172,95.5 351.5,96.172 351.5,97C351.5,99.873 351.5,108.127 351.5,111C351.5,111.828 352.172,112.5 353,112.5C353.611,112.5 354.389,112.5 355,112.5C355.828,112.5 356.5,111.828 356.5,111L356.5,97ZM355.5,97C355.5,96.724 355.276,96.5 355,96.5C354.389,96.5 353.611,96.5 353,96.5C352.724,96.5 352.5,96.724 352.5,97C352.5,99.873 352.5,108.127 352.5,111C352.5,111.276 352.724,111.5 353,111.5C353.611,111.5 354.389,111.5 355,111.5C355.276,111.5 355.5,111.276 355.5,111L355.5,97Z" transform="translate(-324 -76)"/><path fill="#8078bc" d="M356,97C356,96.448 355.552,96 355,96C354.389,96 353.611,96 353,96C352.448,96 352,96.448 352,97C352,99.873 352,108.127 352,111C352,111.552 352.448,112 353,112C353.611,112 354.389,112 355,112C355.552,112 356,111.552 356,111C356,108.127 356,99.873 356,97Z" transform="translate(-310 -76)"/><path d="M356.5,97C356.5,96.172 355.828,95.5 355,95.5C354.389,95.5 353.611,95.5 353,95.5C352.172,95.5 351.5,96.172 351.5,97C351.5,99.873 351.5,108.127 351.5,111C351.5,111.828 352.172,112.5 353,112.5C353.611,112.5 354.389,112.5 355,112.5C355.828,112.5 356.5,111.828 356.5,111L356.5,97ZM355.5,97C355.5,96.724 355.276,96.5 355,96.5C354.389,96.5 353.611,96.5 353,96.5C352.724,96.5 352.5,96.724 352.5,97C352.5,99.873 352.5,108.127 352.5,111C352.5,111.276 352.724,111.5 353,111.5C353.611,111.5 354.389,111.5 355,111.5C355.276,111.5 355.5,111.276 355.5,111L355.5,97Z" transform="translate(-310 -76)"/><path d="M376.423,88.87C376.423,88.524 376.289,88.192 376.051,87.947C375.813,87.703 375.49,87.565 375.154,87.565C369.787,87.565 340.599,87.565 337.065,87.565C336.728,87.565 336.405,87.703 336.167,87.947C335.353,88.785 332.763,91.446 331.949,92.284C331.711,92.529 331.577,92.86 331.577,93.206C331.577,96.66 331.577,123.892 331.577,129.13C331.577,129.476 331.711,129.808 331.949,130.053C332.187,130.297 332.51,130.435 332.846,130.435C334.357,130.435 337.5,130.435 339.011,130.435C339.245,130.435 339.434,130.63 339.434,130.87C339.434,131.332 339.434,131.899 339.434,132.361C339.434,133.082 340.002,133.666 340.703,133.666C341.341,133.666 342.182,133.666 342.65,133.666C342.986,133.666 343.309,133.528 343.547,133.284C344.135,132.68 345.607,131.166 346.194,130.562C346.274,130.481 346.381,130.435 346.493,130.435C348.965,130.435 363.749,130.435 366.221,130.435C366.558,130.435 366.88,130.297 367.118,130.053C368.448,128.686 374.722,122.236 376.051,120.87C376.289,120.625 376.423,120.293 376.423,119.947C376.423,116.779 376.423,93.666 376.423,88.87ZM375.577,88.87C375.577,93.666 375.577,116.779 375.577,119.947C375.577,120.063 375.532,120.173 375.453,120.255C374.124,121.621 367.849,128.071 366.52,129.438C366.441,129.519 366.333,129.565 366.221,129.565C363.749,129.565 348.965,129.565 346.493,129.565C346.157,129.565 345.834,129.703 345.596,129.947C345.008,130.551 343.536,132.064 342.949,132.668C342.869,132.75 342.762,132.796 342.65,132.796C342.182,132.796 341.341,132.796 340.703,132.796C340.47,132.796 340.28,132.601 340.28,132.361C340.28,131.899 340.28,131.332 340.28,130.87C340.28,130.149 339.712,129.565 339.011,129.565C337.5,129.565 334.357,129.565 332.846,129.565C332.734,129.565 332.626,129.519 332.547,129.438C332.468,129.356 332.423,129.246 332.423,129.13C332.423,123.892 332.423,96.66 332.423,93.206C332.423,93.091 332.468,92.98 332.547,92.899C333.362,92.061 335.951,89.4 336.766,88.562C336.845,88.481 336.953,88.435 337.065,88.435C340.599,88.435 369.787,88.435 375.154,88.435C375.266,88.435 375.374,88.481 375.453,88.562C375.532,88.644 375.577,88.754 375.577,88.87Z" transform="matrix(1.18182 0 0 1.14966 -386.364 -95.17)"/></g></svg>