<svg xmlns="http://www.w3.org/2000/svg" fill-rule="evenodd" stroke-linejoin="round" stroke-miterlimit="2" clip-rule="evenodd" viewBox="0 0 64 64"><g><rect width="64" height="64" fill="none"/><path fill="#738b95" d="M726.076,194L744,194C744.265,194 744.52,194.105 744.707,194.293C744.895,194.48 745,194.735 745,195C745,195.871 745,197.129 745,198C745,198.552 745.448,199 746,199C748.577,199 755.423,199 758,199C758.552,199 759,198.552 759,198L759,186C759,185.448 758.552,185 758,185L746,185C745.448,185 745,185.448 745,186C745,186.871 745,188.129 745,189C745,189.265 744.895,189.52 744.707,189.707C744.52,189.895 744.265,190 744,190C740.093,190 726.076,190 726.076,190C727.099,176.583 738.323,166 752,166C766.35,166 778,177.65 778,192C778,206.35 766.35,218 752,218C738.323,218 727.099,207.417 726.076,194Z" transform="translate(-720 -160)"/><path fill="#617881" d="M728.306,194C730.233,206.454 741.011,216 754,216C760.667,216 766.751,213.485 771.354,209.354C766.592,214.66 759.683,218 752,218C738.323,218 727.099,207.417 726.076,194L728.306,194ZM734.645,172.646C730.515,177.249 728,183.333 728,190L726.076,190C726.6,183.122 729.805,176.99 734.645,172.646Z" transform="translate(-720 -160)"/><path d="M726.076,193.5C725.937,193.5 725.804,193.558 725.709,193.66C725.615,193.762 725.567,193.899 725.577,194.038C726.62,207.713 738.06,218.5 752,218.5C766.626,218.5 778.5,206.626 778.5,192C778.5,177.374 766.626,165.5 752,165.5C738.06,165.5 726.62,176.287 725.577,189.962C725.567,190.101 725.615,190.238 725.709,190.34C725.804,190.442 725.937,190.5 726.076,190.5C726.076,190.5 740.093,190.5 744,190.5C744.398,190.5 744.779,190.342 745.061,190.061C745.342,189.779 745.5,189.398 745.5,189C745.5,188.129 745.5,186.871 745.5,186C745.5,185.724 745.724,185.5 746,185.5C748.577,185.5 755.423,185.5 758,185.5C758.276,185.5 758.5,185.724 758.5,186C758.5,188.577 758.5,195.423 758.5,198C758.5,198.276 758.276,198.5 758,198.5C755.423,198.5 748.577,198.5 746,198.5C745.724,198.5 745.5,198.276 745.5,198C745.5,197.129 745.5,195.871 745.5,195C745.5,194.602 745.342,194.221 745.061,193.939C744.779,193.658 744.398,193.5 744,193.5C740.093,193.5 726.076,193.5 726.076,193.5ZM726.621,194.5C727.88,207.403 738.77,217.5 752,217.5C766.074,217.5 777.5,206.074 777.5,192C777.5,177.926 766.074,166.5 752,166.5C738.77,166.5 727.88,176.597 726.621,189.5L744,189.5C744.133,189.5 744.26,189.447 744.354,189.354C744.447,189.26 744.5,189.133 744.5,189C744.5,188.129 744.5,186.871 744.5,186C744.5,185.172 745.172,184.5 746,184.5C748.577,184.5 755.423,184.5 758,184.5C758.828,184.5 759.5,185.172 759.5,186C759.5,188.577 759.5,195.423 759.5,198C759.5,198.828 758.828,199.5 758,199.5C755.423,199.5 748.577,199.5 746,199.5C745.172,199.5 744.5,198.828 744.5,198C744.5,197.129 744.5,195.871 744.5,195C744.5,194.867 744.447,194.74 744.354,194.646C744.26,194.553 744.133,194.5 744,194.5L726.621,194.5Z" transform="translate(-720 -160)"/></g></svg>