<svg xmlns="http://www.w3.org/2000/svg" fill-rule="evenodd" stroke-linejoin="round" stroke-miterlimit="2" clip-rule="evenodd" viewBox="0 0 64 64"><g><rect width="64" height="64" fill="none"/><path fill="#8078bc" d="M178,210.426C175.625,209.495 173.524,208.311 172,206.875C167.667,202.792 166.333,194.625 166,188.5C165.667,182.375 165.667,174.208 170,170.125C174.333,166.042 184.667,164 192,164C199.333,164 209.667,166.042 214,170.125C218.333,174.208 218.333,182.375 218,188.5C217.667,194.625 216.333,202.792 212,206.875C207.667,210.958 198.667,213 192,213C190.996,213 189.939,212.954 188.852,212.861L179.6,219.8C179.297,220.027 178.892,220.064 178.553,219.894C178.214,219.725 178,219.379 178,219L178,210.426Z" transform="translate(-160 -160)"/><path fill="#6b61b1" d="M170.895,169.373C167.67,173.718 167.698,180.948 168,186.5C168.333,192.625 169.667,200.792 174,204.875C175.524,206.311 177.625,207.495 180,208.426L180,217C180,217.379 180.214,217.725 180.553,217.894C180.892,218.064 181.297,218.027 181.6,217.8L190.852,210.861C191.939,210.954 192.996,211 194,211C200.265,211 208.59,209.197 213.167,205.591C212.804,206.053 212.416,206.483 212,206.875C207.667,210.958 198.667,213 192,213C190.996,213 189.939,212.954 188.852,212.861L179.6,219.8C179.297,220.027 178.892,220.064 178.553,219.894C178.214,219.725 178,219.379 178,219L178,210.426C175.625,209.495 173.524,208.311 172,206.875C167.667,202.792 166.333,194.625 166,188.5C165.667,182.375 165.667,174.208 170,170.125C170.275,169.866 170.574,169.615 170.895,169.373Z" transform="translate(-160 -160)"/><path d="M177.5,210.765C175.191,209.828 173.154,208.65 171.657,207.239C167.241,203.078 165.84,194.769 165.501,188.527C165.298,184.808 165.223,180.346 166.137,176.478C166.764,173.83 167.856,171.459 169.657,169.761C174.06,165.612 184.549,163.5 192,163.5C199.451,163.5 209.94,165.612 214.343,169.761C216.144,171.459 217.236,173.83 217.863,176.478C218.777,180.346 218.702,184.808 218.499,188.527C218.16,194.769 216.759,203.078 212.343,207.239C207.933,211.394 198.784,213.5 192,213.5C191.041,213.5 190.035,213.458 189,213.375L179.9,220.2C179.445,220.541 178.837,220.596 178.329,220.342C177.821,220.088 177.5,219.568 177.5,219L177.5,210.765ZM178.5,210.426C178.5,210.22 178.374,210.036 178.183,209.96C175.872,209.055 173.825,207.908 172.343,206.511C168.092,202.506 166.826,194.481 166.499,188.473C166.302,184.842 166.217,180.484 167.111,176.708C167.69,174.26 168.678,172.058 170.343,170.489C174.607,166.471 184.784,164.5 192,164.5C199.216,164.5 209.393,166.471 213.657,170.489C215.322,172.058 216.31,174.26 216.889,176.708C217.783,180.484 217.698,184.842 217.501,188.473C217.174,194.481 215.908,202.506 211.657,206.511C207.4,210.523 198.549,212.5 192,212.5C191.01,212.5 189.967,212.454 188.895,212.363C188.772,212.352 188.65,212.387 188.552,212.461L179.3,219.4C179.148,219.514 178.946,219.532 178.776,219.447C178.607,219.363 178.5,219.189 178.5,219L178.5,210.426Z" transform="translate(-160 -160)"/><path fill="#f9f6f9" d="M181,207.184C178.68,206.386 176.61,205.324 175.16,204C171.512,200.667 170.389,194 170.109,189C169.828,184 169.828,177.333 173.477,174C177.125,170.667 185.826,169 192,169C198.174,169 206.875,170.667 210.523,174C214.172,177.333 214.172,184 213.891,189C213.611,194 212.488,200.667 208.84,204C205.191,207.333 197.613,209 192,209C191.1,209 190.149,208.957 189.172,208.871L182.6,213.8C182.297,214.027 181.892,214.064 181.553,213.894C181.214,213.725 181,213.379 181,213L181,207.184Z" transform="translate(-160 -160)"/><path d="M180.5,207.538C178.246,206.729 176.246,205.669 174.823,204.369C171.088,200.957 169.897,194.146 169.609,189.028C169.438,185.983 169.376,182.329 170.148,179.161C170.68,176.981 171.609,175.029 173.139,173.631C176.856,170.235 185.71,168.5 192,168.5C198.29,168.5 207.144,170.235 210.861,173.631C212.391,175.029 213.32,176.981 213.852,179.161C214.624,182.329 214.562,185.983 214.391,189.028C214.103,194.146 212.912,200.957 209.177,204.369C205.453,207.771 197.728,209.5 192,209.5C191.145,209.5 190.244,209.462 189.319,209.386L182.9,214.2C182.445,214.541 181.837,214.596 181.329,214.342C180.821,214.088 180.5,213.568 180.5,213L180.5,207.538ZM181.5,207.184C181.5,206.97 181.364,206.78 181.163,206.711C178.913,205.937 176.903,204.915 175.498,203.631C171.936,200.376 170.882,193.854 170.608,188.972C170.442,186.017 170.37,182.471 171.12,179.399C171.603,177.419 172.425,175.638 173.814,174.369C177.394,171.098 185.941,169.5 192,169.5C198.059,169.5 206.606,171.098 210.186,174.369C211.575,175.638 212.397,177.419 212.88,179.399C213.63,182.471 213.558,186.017 213.392,188.972C213.118,193.854 212.064,200.376 208.502,203.631C204.929,206.896 197.498,208.5 192,208.5C191.114,208.5 190.177,208.458 189.215,208.373C189.093,208.362 188.97,208.397 188.872,208.471L182.3,213.4C182.148,213.514 181.946,213.532 181.776,213.447C181.607,213.363 181.5,213.189 181.5,213L181.5,207.184Z" transform="translate(-160 -160)"/><path fill="#8078bc" d="M596.86,31.959C598.132,31.902 599.201,30.985 599.451,29.737C599.659,28.705 599.865,27.677 599.865,27.677C599.946,27.269 600.271,26.955 600.681,26.887C601.974,26.671 604.739,26.21 605.679,26.053C605.888,26.019 606.102,26.051 606.291,26.145C606.593,26.296 607.073,26.536 607.447,26.724C607.786,26.893 608,27.239 608,27.618L608,31.973C608.009,32.716 607.603,33.435 606.894,33.789C602.635,35.918 598.388,36 592,36C585.612,36 581.365,35.918 577.106,33.789C576.397,33.435 575.991,32.716 576,31.973L576,27.618C576,27.239 576.214,26.893 576.553,26.724C576.927,26.536 577.407,26.296 577.709,26.145C577.898,26.051 578.112,26.019 578.321,26.053C579.261,26.21 582.026,26.671 583.319,26.887C583.729,26.955 584.054,27.269 584.135,27.677C584.135,27.677 584.341,28.705 584.547,29.737C584.797,30.987 585.867,31.905 587.14,31.961C588.611,32.008 590.211,32 592,32C593.789,32 595.389,32.008 596.86,31.959Z" transform="scale(1.08331) rotate(45 313.032 -650.902)"/><path d="M596.841,31.498C597.9,31.45 598.79,30.686 598.998,29.646C599.207,28.614 599.412,27.586 599.412,27.586C599.531,26.991 600.006,26.531 600.605,26.431C601.898,26.216 604.663,25.755 605.603,25.598C605.908,25.547 606.221,25.594 606.497,25.733C606.799,25.884 607.279,26.124 607.654,26.311C608.149,26.558 608.462,27.064 608.462,27.618C608.462,27.618 608.462,27.618 608.462,27.618C608.462,27.618 608.462,31.973 608.462,31.967C608.473,32.881 607.973,33.766 607.101,34.202C602.782,36.361 598.478,36.462 592,36.462C585.522,36.462 581.218,36.361 576.899,34.202C576.027,33.766 575.527,32.881 575.538,31.973C575.538,31.973 575.538,27.618 575.538,27.618C575.538,27.064 575.851,26.558 576.346,26.311C576.721,26.124 577.201,25.884 577.503,25.733C577.779,25.594 578.092,25.547 578.397,25.598C579.337,25.755 582.102,26.216 583.395,26.431C583.994,26.531 584.469,26.991 584.588,27.586C584.588,27.586 584.793,28.614 585,29.647C585.208,30.688 586.1,31.453 587.155,31.5C588.621,31.547 590.216,31.538 592,31.538C593.782,31.538 595.376,31.547 596.841,31.498ZM596.881,32.42C598.365,32.354 599.612,31.284 599.903,29.828C600.112,28.795 600.317,27.767 600.317,27.767C600.317,27.767 600.317,27.767 600.317,27.767C600.361,27.548 600.536,27.379 600.757,27.342C602.05,27.126 604.815,26.665 605.755,26.509C605.867,26.49 605.983,26.507 606.084,26.558C606.386,26.709 606.866,26.949 607.241,27.136C607.423,27.228 607.538,27.414 607.538,27.618L607.538,31.979C607.546,32.55 607.233,33.104 606.688,33.376C602.489,35.476 598.299,35.538 592,35.538C585.701,35.538 581.511,35.476 577.312,33.376C576.767,33.104 576.454,32.55 576.462,31.979C576.462,31.973 576.462,27.618 576.462,27.618C576.462,27.414 576.577,27.228 576.759,27.136C577.134,26.949 577.614,26.709 577.916,26.558C578.017,26.507 578.133,26.49 578.245,26.509C579.185,26.665 581.95,27.126 583.243,27.342C583.464,27.379 583.639,27.548 583.683,27.767C583.683,27.767 583.888,28.795 584.095,29.828C584.386,31.285 585.634,32.356 587.119,32.422C588.601,32.47 590.206,32.462 592,32.462C593.795,32.462 595.4,32.47 596.875,32.42L596.881,32.42Z" transform="scale(1.08331) rotate(45 313.032 -650.902)"/><path d="M198.393,186.974C198.464,186.654 198.5,186.327 198.5,186C198.5,183.516 196.484,181.5 194,181.5C193.673,181.5 193.346,181.536 193.026,181.607C192.757,181.666 192.587,181.933 192.646,182.203C192.706,182.472 192.973,182.643 193.243,182.583C193.491,182.528 193.745,182.5 194,182.5C195.932,182.5 197.5,184.068 197.5,186C197.5,186.255 197.472,186.509 197.417,186.757C197.357,187.027 197.528,187.294 197.797,187.354C198.067,187.413 198.334,187.243 198.393,186.974Z" transform="translate(-160 -160)"/><path d="M198.149,186.919C198.216,186.618 198.25,186.309 198.25,186C198.25,183.654 196.346,181.75 194,181.75C193.691,181.75 193.382,181.784 193.081,181.851C192.946,181.88 192.861,182.014 192.891,182.149C192.92,182.284 193.054,182.369 193.189,182.339C193.455,182.28 193.727,182.25 194,182.25C196.07,182.25 197.75,183.93 197.75,186C197.75,186.273 197.72,186.545 197.661,186.811C197.631,186.946 197.716,187.08 197.851,187.109C197.986,187.139 198.12,187.054 198.149,186.919Z" transform="matrix(2 0 0 2 -354 -346)"/><path d="M198.073,186.903C198.139,186.606 198.172,186.304 198.172,186C198.172,183.697 196.303,181.828 194,181.828C193.696,181.828 193.394,181.861 193.097,181.927C193.005,181.947 192.946,182.039 192.967,182.132C192.987,182.225 193.079,182.283 193.172,182.263C193.444,182.202 193.721,182.172 194,182.172C196.113,182.172 197.828,183.887 197.828,186C197.828,186.279 197.798,186.556 197.737,186.828C197.717,186.921 197.775,187.013 197.868,187.033C197.961,187.054 198.053,186.995 198.073,186.903Z" transform="translate(-529.624 -514.382) scale(2.90528)"/></g></svg>