<svg xmlns="http://www.w3.org/2000/svg" fill-rule="evenodd" stroke-linejoin="round" stroke-miterlimit="2" clip-rule="evenodd" viewBox="0 0 64 64"><g><rect width="64" height="64" fill="none"/><path fill="#57b7eb" d="M596,261C596,258.63 600,248 611,247.619C617.028,247.41 620,252 620,258C620,268.05 603,294 589,296.381C581.086,297.727 581,280 573,263C571.836,260.527 568.988,262.379 567.679,263.419C567.281,263.737 566.708,263.706 566.348,263.346C565.85,262.85 565.17,262.17 564.669,261.669C564.288,261.289 564.277,260.675 564.643,260.281C567.23,257.485 576.886,247.432 582,248C591,249 589,277 595,279C598,280 607,264 603,261C600.116,258.837 596,262 596,261Z" transform="translate(-564.189 -241.871) scale(1.00676)"/><path fill="#4891d3" d="M567.822,256.532C567.178,257.195 566.648,257.759 566.269,258.169C565.9,258.566 565.912,259.183 566.295,259.566C566.799,260.07 567.484,260.756 567.985,261.255C568.348,261.617 568.925,261.649 569.325,261.328C570.643,260.281 573.511,258.416 574.682,260.906C582.736,278.021 582.823,295.868 590.791,294.513C595.187,293.765 599.877,290.709 604.248,286.552C599.33,291.712 593.865,295.65 588.791,296.513C580.823,297.868 580.736,280.021 572.682,262.906C571.511,260.416 568.643,262.281 567.325,263.328C566.925,263.649 566.348,263.617 565.985,263.255C565.484,262.756 564.799,262.07 564.295,261.566C563.912,261.183 563.9,260.566 564.269,260.169C564.99,259.389 566.257,258.05 567.822,256.532ZM601.604,250.956C598.947,254.097 597.838,257.64 597.838,258.893C597.838,259.9 601.981,256.715 604.885,258.893C608.382,261.515 602.011,274.005 598.295,276.591C601.845,272.152 605.805,263.083 602.885,260.893C599.981,258.715 595.838,261.9 595.838,260.893C595.838,259.362 597.494,254.412 601.604,250.956Z" transform="translate(-560 -240)"/><path d="M595.503,261C595.503,261.207 595.574,261.356 595.672,261.467C595.818,261.631 596.109,261.751 596.548,261.663C597.121,261.549 598.18,261.073 599.384,260.841C600.461,260.634 601.671,260.624 602.702,261.397C603.09,261.688 603.313,262.137 603.424,262.688C603.553,263.322 603.533,264.08 603.405,264.917C603.001,267.566 601.519,270.95 599.84,273.701C598.731,275.518 597.539,277.06 596.506,277.915C596.198,278.17 595.909,278.361 595.642,278.468C595.461,278.54 595.299,278.576 595.157,278.529C594.649,278.359 594.219,277.957 593.83,277.391C593.393,276.756 593.017,275.921 592.677,274.941C591.616,271.876 590.933,267.432 590.113,263.034C589.277,258.551 588.295,254.117 586.666,251.175C585.505,249.078 584.005,247.723 582.055,247.506C580.436,247.327 578.375,248.123 576.224,249.451C571.427,252.413 566.105,257.97 564.279,259.944C563.731,260.533 563.748,261.451 564.318,262.02C564.819,262.521 565.5,263.202 565.997,263.698C566.536,264.236 567.394,264.283 567.989,263.806C568.601,263.321 569.57,262.636 570.527,262.37C571.007,262.237 571.483,262.205 571.884,262.428C572.148,262.574 572.371,262.83 572.551,263.211C577.345,273.399 579.291,283.849 581.79,290.288C582.477,292.057 583.208,293.53 584.041,294.628C585.382,296.393 586.989,297.227 589.083,296.871C596.18,295.664 604.065,288.516 610.148,280.363C616.225,272.219 620.497,263.089 620.497,258C620.497,254.237 619.351,251.015 617.096,249.078C615.571,247.769 613.538,247.034 610.983,247.123C604.176,247.358 599.965,251.394 597.688,255.116C596.151,257.631 595.503,260.009 595.503,261ZM596.521,260.648C596.778,260.578 597.103,260.462 597.476,260.338C599.063,259.809 601.42,259.194 603.298,260.603C604.376,261.411 604.696,263.042 604.387,265.067C603.966,267.826 602.436,271.354 600.688,274.219C599.307,276.482 597.782,278.328 596.573,279.097C595.915,279.515 595.316,279.629 594.843,279.471C593.534,279.035 592.515,277.508 591.739,275.267C590.664,272.164 589.967,267.668 589.137,263.216C588.323,258.849 587.385,254.523 585.798,251.657C584.815,249.882 583.595,248.677 581.945,248.494C580.496,248.333 578.671,249.107 576.745,250.296C572.03,253.208 566.803,258.677 565.007,260.619C564.823,260.817 564.828,261.126 565.02,261.318C565.521,261.818 566.201,262.499 566.699,262.995C566.88,263.176 567.168,263.192 567.37,263.03C568.066,262.477 569.175,261.715 570.261,261.413C571.006,261.206 571.743,261.213 572.366,261.56C572.786,261.793 573.163,262.181 573.449,262.789C578.255,273.001 580.211,283.474 582.716,289.929C583.364,291.598 584.046,292.992 584.832,294.028C585.923,295.464 587.213,296.181 588.917,295.891C595.82,294.717 603.435,287.699 609.352,279.769C615.275,271.831 619.503,262.961 619.503,258C619.503,254.563 618.509,251.601 616.449,249.832C615.096,248.67 613.285,248.037 611.017,248.115C604.624,248.337 600.675,252.138 598.536,255.635C597.288,257.675 596.649,259.606 596.521,260.648Z" transform="translate(-564.189 -241.871) scale(1.00676)"/></g></svg>